<?xml version="1.0" encoding="utf-8"?>
<!-- Generator: Adobe Illustrator 23.0.2, SVG Export Plug-In . SVG Version: 6.00 Build 0)  -->
<svg version="1.1" id="Layer_1" xmlns="http://www.w3.org/2000/svg" xmlns:xlink="http://www.w3.org/1999/xlink" x="0px" y="0px"
	 viewBox="0 0 600 300" style="enable-background:new 0 0 600 300;" xml:space="preserve">
<style type="text/css">
	.st0{opacity:0.24;}
	.st1{fill:#F4F7FA;}
	.st2{fill:url(#SVGID_1_);}
	.st3{fill:url(#SVGID_2_);}
	.st4{fill:url(#SVGID_3_);}
	.st5{fill:url(#SVGID_4_);}
	.st6{opacity:0.2;fill:url(#SVGID_5_);}
	.st7{fill:url(#SVGID_6_);}
	.st8{fill:url(#SVGID_7_);}
	.st9{fill:url(#SVGID_8_);}
	.st10{fill:url(#SVGID_9_);}
	.st11{fill:url(#SVGID_10_);}
	.st12{fill:url(#SVGID_11_);}
	.st13{fill:url(#SVGID_12_);}
	.st14{fill:url(#SVGID_13_);}
	.st15{fill:url(#SVGID_14_);}
	.st16{fill:url(#SVGID_15_);}
	.st17{fill:url(#SVGID_16_);}
	.st18{opacity:0.3;fill:url(#SVGID_17_);}
	.st19{fill:url(#SVGID_18_);}
	.st20{fill:url(#SVGID_19_);}
	.st21{opacity:0.3;fill:url(#SVGID_20_);}
	.st22{fill:#FFFFFF;}
	.st23{fill:url(#SVGID_21_);}
	.st24{fill:url(#SVGID_22_);}
	.st25{fill:url(#SVGID_23_);}
	.st26{fill:url(#SVGID_24_);}
	.st27{fill:url(#SVGID_25_);}
	.st28{opacity:0.3;fill:url(#SVGID_26_);}
	.st29{fill:url(#SVGID_27_);}
	.st30{fill:url(#SVGID_28_);}
	.st31{fill:url(#SVGID_29_);}
	.st32{fill:url(#SVGID_30_);}
	.st33{fill:url(#SVGID_31_);}
	.st34{fill:url(#SVGID_32_);}
	.st35{fill:url(#SVGID_33_);}
	.st36{fill:url(#SVGID_34_);}
	.st37{fill:url(#SVGID_35_);}
	.st38{fill:url(#SVGID_36_);}
	.st39{fill:url(#SVGID_37_);}
	.st40{fill:url(#SVGID_38_);}
	.st41{opacity:0.3;fill:url(#SVGID_39_);}
	.st42{fill:url(#SVGID_40_);}
	.st43{fill:url(#SVGID_41_);}
	.st44{fill:url(#SVGID_42_);}
	.st45{fill:url(#SVGID_43_);}
	.st46{fill:url(#SVGID_44_);}
	.st47{fill:url(#SVGID_45_);}
	.st48{opacity:0.4;fill:url(#SVGID_46_);}
	.st49{fill:url(#SVGID_47_);}
	.st50{fill:#BFC8D6;}
	.st51{fill:#AABBCC;}
	.st52{fill:url(#SVGID_48_);}
	.st53{opacity:0.2;fill:#BFC8D6;}
	.st54{fill:url(#SVGID_49_);}
	.st55{fill:#EAEDF3;}
	.st56{fill:#D8DEE8;}
	.st57{fill:url(#SVGID_50_);}
	.st58{fill:url(#SVGID_51_);}
	.st59{fill:url(#SVGID_52_);}
	.st60{fill:url(#SVGID_53_);}
	.st61{fill:url(#SVGID_54_);}
	.st62{fill:url(#SVGID_55_);}
	.st63{opacity:0.3;fill:url(#SVGID_56_);}
	.st64{fill:url(#SVGID_57_);}
	.st65{opacity:0.2;}
	.st66{fill:url(#SVGID_58_);}
	.st67{fill:url(#SVGID_59_);}
	.st68{fill:url(#SVGID_60_);}
	.st69{opacity:0.1;fill:url(#SVGID_61_);}
	.st70{fill:url(#SVGID_62_);}
	.st71{fill:url(#SVGID_63_);}
</style>
<path class="st0" d="M440,225c0,0,111,10,97,51s-71.66,26.55-82,28c-114,16-227-27-251-49s7-40,18-50s-10-46-10-46L440,225z"/>
<g>
	<path class="st1" d="M321.63,28.67c-68.94-2.01-128.65,47.32-137.68,112.05c-9.86,70.77,44.43,134.45,111.23,144.65
		c83.09,12.69,163.69-60.7,156.45-140.32C446.18,85.07,391.71,30.71,321.63,28.67z"/>
	<g>
		<linearGradient id="SVGID_1_" gradientUnits="userSpaceOnUse" x1="300.5265" y1="207.4669" x2="370.6128" y2="356.2468">
			<stop  offset="0" style="stop-color:#FCB148"/>
			<stop  offset="0.0521" style="stop-color:#FDBA46"/>
			<stop  offset="0.1424" style="stop-color:#FFC244"/>
			<stop  offset="0.3183" style="stop-color:#FFC444"/>
			<stop  offset="0.4849" style="stop-color:#FDB946"/>
			<stop  offset="0.7754" style="stop-color:#F99C4D"/>
			<stop  offset="0.8658" style="stop-color:#F8924F"/>
			<stop  offset="1" style="stop-color:#F8924F"/>
		</linearGradient>
		<path class="st2" d="M443.55,251.16h0.19c0,0.33,0,0.2,0,0.22c0,21.26-54.76,38.56-124.14,38.56c-1.36,0-2.71,0.03-4.06,0.02
			c-68.27-0.66-124.71-17.86-126.98-39.28l-0.11,0v-43.34l20.53-0.32c2.76-1.28,5.77-2.5,8.99-3.66
			c24.27-8.73,61.05-13.82,101.62-12.96c69.3,1.47,123.92,19.83,124.05,41.05l-0.09,0V251.16z"/>
		<linearGradient id="SVGID_2_" gradientUnits="userSpaceOnUse" x1="304.8366" y1="205.9457" x2="363.2631" y2="329.9739">
			<stop  offset="0" style="stop-color:#FCB148"/>
			<stop  offset="0.0521" style="stop-color:#FDBA46"/>
			<stop  offset="0.1424" style="stop-color:#FFC244"/>
			<stop  offset="0.3183" style="stop-color:#FFC444"/>
			<stop  offset="0.4849" style="stop-color:#FDB946"/>
			<stop  offset="0.7754" style="stop-color:#F99C4D"/>
			<stop  offset="0.8658" style="stop-color:#F8924F"/>
			<stop  offset="1" style="stop-color:#F8924F"/>
		</linearGradient>
		<path class="st3" d="M443.75,231.53c0,21.26-54.76,38.25-124.14,37.95c-71.5-0.31-131.09-18.77-131.09-41.22
			s59.59-39.38,131.09-37.86C388.99,191.88,443.75,210.27,443.75,231.53z"/>
		<linearGradient id="SVGID_3_" gradientUnits="userSpaceOnUse" x1="363.9792" y1="125.055" x2="352.8434" y2="283.9932">
			<stop  offset="0" style="stop-color:#AA80F9"/>
			<stop  offset="0.9964" style="stop-color:#6165D7"/>
		</linearGradient>
		<polygon class="st4" points="313.45,231.53 402.03,201.57 402.03,173.74 315.45,198.13 		"/>
		<linearGradient id="SVGID_4_" gradientUnits="userSpaceOnUse" x1="277.9371" y1="103.102" x2="241.6844" y2="301.2841">
			<stop  offset="0" style="stop-color:#AA80F9"/>
			<stop  offset="0.9964" style="stop-color:#6165D7"/>
		</linearGradient>
		<path class="st5" d="M315.35,244.45V290c0,0-0.17,0-0.31-0.01c-68.08-0.72-124.25-17.92-126.52-39.29l-0.06-0.02v-49.82
			l20.53,6.16c2.76-1.28,5.67-2.5,8.89-3.66C257.3,217.16,315.35,244.45,315.35,244.45z"/>
		<linearGradient id="SVGID_5_" gradientUnits="userSpaceOnUse" x1="280.2709" y1="90.7424" x2="241.5871" y2="302.2145">
			<stop  offset="0" style="stop-color:#AA80F9"/>
			<stop  offset="0.9964" style="stop-color:#6165D7"/>
		</linearGradient>
		<path class="st6" d="M315.35,245.21V290c0,0-0.17,0-0.31-0.01c-68.08-0.77-124.25-19.02-126.52-41.7l-0.06-0.02v-46.61l20.53,0.26
			c2.76-1.36,5.67-2.65,8.89-3.88C257.3,212.68,315.35,245.21,315.35,245.21z"/>
		<linearGradient id="SVGID_6_" gradientUnits="userSpaceOnUse" x1="327.6251" y1="257.877" x2="374.218" y2="356.785">
			<stop  offset="0" style="stop-color:#AA80F9"/>
			<stop  offset="0.9964" style="stop-color:#6165D7"/>
		</linearGradient>
		<path class="st7" d="M315.35,198.13l86.61-24.34c-21.75-6.92-50.48-11.58-82.4-12.45c-71.5-1.96-131.16,15.72-131.16,39.55
			c0,23.37,57.74,42.95,126.96,44.33V198.13z"/>
	</g>
	<g>
		
			<linearGradient id="SVGID_7_" gradientUnits="userSpaceOnUse" x1="382.7757" y1="463.064" x2="381.2131" y2="455.9064" gradientTransform="matrix(0.977 0.2132 -0.2132 0.977 40.672 -460.1315)">
			<stop  offset="0" style="stop-color:#FFC444"/>
			<stop  offset="0.9964" style="stop-color:#F36F56"/>
		</linearGradient>
		<polygon class="st8" points="317.26,67.04 313.57,66.24 314.57,61.62 318.27,62.42 		"/>
		
			<linearGradient id="SVGID_8_" gradientUnits="userSpaceOnUse" x1="367.4147" y1="495.4013" x2="372.53" y2="451.6888" gradientTransform="matrix(0.977 0.2132 -0.2132 0.977 40.672 -460.1315)">
			<stop  offset="0" style="stop-color:#444B8C"/>
			<stop  offset="0.9964" style="stop-color:#3E4177"/>
		</linearGradient>
		<path class="st9" d="M294.43,56.65c0,0,8.42,2.38,8.15,12.49c-0.27,10.11,0.59,14.35,3.41,14.19c2.82-0.16,7.79-19.28,7.79-19.28
			l4.66,1.09c0,0-4.84,46.96-18.07,40.14c-13.23-6.82-15.55-21.65-15.48-21.96C284.95,83.01,294.43,56.65,294.43,56.65z"/>
		<g>
			
				<linearGradient id="SVGID_9_" gradientUnits="userSpaceOnUse" x1="1478.8811" y1="564.8821" x2="1488.7419" y2="564.8821" gradientTransform="matrix(0.9686 0.2485 -0.2485 0.9686 -943.2832 -858.8043)">
				<stop  offset="0" style="stop-color:#444B8C"/>
				<stop  offset="0.9964" style="stop-color:#26264F"/>
			</linearGradient>
			<path class="st10" d="M358.74,56.63c0.02,0.29-0.19,0.54-0.47,0.56l-9.31,0.78c-0.29,0.02-0.54-0.19-0.56-0.47l0,0
				c-0.02-0.29,0.19-0.54,0.47-0.56l9.31-0.78C358.46,56.14,358.71,56.35,358.74,56.63L358.74,56.63z"/>
			
				<linearGradient id="SVGID_10_" gradientUnits="userSpaceOnUse" x1="1478.6593" y1="573.1861" x2="1488.9635" y2="573.1861" gradientTransform="matrix(0.9686 0.2485 -0.2485 0.9686 -943.2832 -858.8043)">
				<stop  offset="0" style="stop-color:#444B8C"/>
				<stop  offset="0.9964" style="stop-color:#26264F"/>
			</linearGradient>
			<path class="st11" d="M356.32,67.03c-0.11,0.27-0.41,0.4-0.67,0.29l-8.68-3.45c-0.27-0.11-0.4-0.41-0.29-0.67l0,0
				c0.11-0.27,0.41-0.4,0.67-0.29l8.68,3.45C356.3,66.46,356.43,66.76,356.32,67.03L356.32,67.03z"/>
			
				<linearGradient id="SVGID_11_" gradientUnits="userSpaceOnUse" x1="1477.9954" y1="580.4521" x2="1487.551" y2="580.4521" gradientTransform="matrix(0.9686 0.2485 -0.2485 0.9686 -943.2832 -858.8043)">
				<stop  offset="0" style="stop-color:#444B8C"/>
				<stop  offset="0.9964" style="stop-color:#26264F"/>
			</linearGradient>
			<path class="st12" d="M352.74,75.13c-0.18,0.22-0.51,0.26-0.73,0.08l-7.3-5.83c-0.22-0.18-0.26-0.51-0.08-0.73l0,0
				c0.18-0.22,0.51-0.26,0.73-0.08l7.3,5.83C352.88,74.58,352.92,74.91,352.74,75.13L352.74,75.13z"/>
		</g>
		
			<linearGradient id="SVGID_12_" gradientUnits="userSpaceOnUse" x1="-2949.3396" y1="497.7132" x2="-2940.2468" y2="497.7132" gradientTransform="matrix(-0.996 0.0897 0.0897 0.996 -2721.9465 -27.7902)">
			<stop  offset="0" style="stop-color:#444B8C"/>
			<stop  offset="0.9964" style="stop-color:#26264F"/>
		</linearGradient>
		<path class="st13" d="M251.74,202.03c-0.47,0.43-0.5,1.45-0.52,2.11c-0.01,0.3-0.01,0.44,0.03,0.55c0.29,0.74,1.76,0.73,4.08,0.83
			c3.67,0.15,4.77,0.37,5.02-0.19c0.24-0.52-0.46-1.32-0.54-1.4c-0.42-0.47-0.91-0.62-1.86-0.87c-1.75-0.46-2.93-0.7-3.29-0.77
			C252.42,201.83,252.05,201.75,251.74,202.03z"/>
		
			<linearGradient id="SVGID_13_" gradientUnits="userSpaceOnUse" x1="-3410.5654" y1="398.239" x2="-3406.5759" y2="389.9819" gradientTransform="matrix(-0.9976 0.0694 0.0694 0.9976 -3174.9719 43.1559)">
			<stop  offset="0" style="stop-color:#FFC444"/>
			<stop  offset="0.9964" style="stop-color:#F36F56"/>
		</linearGradient>
		<path class="st14" d="M254.31,198.38l0.14,4.17c-0.11,0.2-1.38,0.73-2.33,0.16l-0.72-4.13L254.31,198.38z"/>
		
			<linearGradient id="SVGID_14_" gradientUnits="userSpaceOnUse" x1="-3161.0415" y1="812.9623" x2="-3151.3811" y2="812.9623" gradientTransform="matrix(-0.977 0.2133 0.2133 0.977 -2970.158 81.8108)">
			<stop  offset="0" style="stop-color:#444B8C"/>
			<stop  offset="0.9964" style="stop-color:#26264F"/>
		</linearGradient>
		<path class="st15" d="M282.61,201.45c-0.63,0.63-0.83,1.83-0.34,2.45c0.48,0.61,1.27,0.21,3.43,0.4c2.32,0.19,2.9,0.77,4.5,0.42
			c0.65-0.14,1.8-0.51,1.8-0.97c0-0.32-0.56-0.52-2.44-1.26c-2.67-1.06-2.66-1.11-3.23-1.23
			C284.89,200.95,283.45,200.63,282.61,201.45z"/>
		
			<linearGradient id="SVGID_15_" gradientUnits="userSpaceOnUse" x1="-3330.6482" y1="614.2576" x2="-3326.5742" y2="605.8257" gradientTransform="matrix(-0.9894 0.1453 0.1453 0.9894 -3098.8521 79.2001)">
			<stop  offset="0" style="stop-color:#FFC444"/>
			<stop  offset="0.9964" style="stop-color:#F36F56"/>
		</linearGradient>
		<path class="st16" d="M284.31,197.74l0.96,3.94c-0.1,0.2-1.32,0.83-2.31,0.34l-1.53-3.86L284.31,197.74z"/>
		
			<linearGradient id="SVGID_16_" gradientUnits="userSpaceOnUse" x1="2850.0813" y1="-27.1886" x2="2824.3147" y2="-85.2727" gradientTransform="matrix(0.9986 0.0533 -0.0533 0.9986 -2558.2854 61.194)">
			<stop  offset="0" style="stop-color:#444B8C"/>
			<stop  offset="0.9964" style="stop-color:#3E4177"/>
		</linearGradient>
		<path class="st17" d="M278.48,112.28c-0.53,13.04-0.42,27.73,0.86,43.76c1.27,15.84,3.46,30.21,6.02,42.88
			c-1.51,0.32-3.02,0.64-4.52,0.96c-3.58-3.72-8.05-9.51-9.93-17.46c-1.17-4.93-0.56-7.4-1.14-13.43
			c-0.93-9.59-3.58-14.73-6.18-22.56c-2.34-7.04-5-17.32-5.99-30.94C264.56,114.44,271.52,113.36,278.48,112.28z"/>
		
			<linearGradient id="SVGID_17_" gradientUnits="userSpaceOnUse" x1="2846.0857" y1="-25.4162" x2="2820.3191" y2="-83.5002" gradientTransform="matrix(0.9986 0.0533 -0.0533 0.9986 -2558.2854 61.194)">
			<stop  offset="0" style="stop-color:#444B8C"/>
			<stop  offset="0.9964" style="stop-color:#3E4177"/>
		</linearGradient>
		<path class="st18" d="M276.4,173.22c-1.66-6.58-4.86-8.32-4.97-14.53c-0.08-4.39,1.5-4.75,1.39-8.95
			c-0.16-6.38-3.89-9.72-5.77-13.73c-1.98-4.24-2.74-11.04,2.6-22.36c-4.02,0.62-8.04,1.24-12.06,1.87
			c0.99,13.61,3.66,23.9,5.99,30.94c2.6,7.83,5.25,12.97,6.18,22.56c0.59,6.02-0.02,8.49,1.14,13.43
			c1.88,7.95,6.34,13.74,9.93,17.46c0.38-0.08,0.77-0.16,1.15-0.24c-3.88-4.63-5.24-8.76-5.59-12.11
			C275.83,182.09,278.08,179.85,276.4,173.22z"/>
		
			<linearGradient id="SVGID_18_" gradientUnits="userSpaceOnUse" x1="2528.0798" y1="384.5657" x2="2502.3127" y2="326.4802" gradientTransform="matrix(0.9976 -0.0694 0.0694 0.9976 -2273.9502 -19.0226)">
			<stop  offset="0" style="stop-color:#444B8C"/>
			<stop  offset="0.9964" style="stop-color:#3E4177"/>
		</linearGradient>
		<path class="st19" d="M263.41,111.47c-1.8,16.52-3.44,33.36-4.93,50.51c-1.11,12.87-2.11,25.58-2.98,38.13
			c-1.53,0.11-3.06,0.21-4.59,0.32c-1.32-2.81-3.05-7.09-4.1-12.52c-1.27-6.59-0.69-10.43-1.04-17.21
			c-0.39-7.6-1.47-9.31-3.01-18.96c-3.13-19.58-4.7-29.36,0.27-35.14C244.64,114.73,249.63,110.08,263.41,111.47z"/>
		
			<linearGradient id="SVGID_19_" gradientUnits="userSpaceOnUse" x1="317.5061" y1="515.1808" x2="356.9041" y2="424.1473" gradientTransform="matrix(0.977 0.2132 -0.2132 0.977 40.672 -460.1315)">
			<stop  offset="0" style="stop-color:#444B8C"/>
			<stop  offset="0.9964" style="stop-color:#3E4177"/>
		</linearGradient>
		<path class="st20" d="M291.62,89.43c-2.08,7.1-2.6,7.1-5.98,17.02c-3.23,9.49-4.62,14.97-5.98,18.13
			c-0.95,2.23-1.89,3.3-3.45,3.82c-2.45,0.82-2.89-0.91-13.72-4.42c-7.26-2.36-10.97-3.53-15.01-3.07c-4.6,0.51-7,2.38-8.78,2.14
			c-0.22-0.03-0.43-0.09-0.63-0.19c-0.05-0.02-0.1-0.05-0.15-0.08c-0.06-0.04-0.13-0.08-0.19-0.13c-1.83-1.35-1.32-4.9-0.24-11.05
			c1.67-9.48,3.09-15.87,3.56-18.16c1.66-8.19,1.48-15.21,0.76-23.1c-0.2-2.25-0.45-4.58-0.7-7.03c-0.73-6.89-1.84-12.57-2.75-16.59
			c8.66-0.97,21.64-1.32,36.56,2.59c8.64,2.27,15.82,5.4,21.4,8.36c-0.18,4.67-0.36,9.34-0.53,14.01
			C294.97,76.21,293.7,82.33,291.62,89.43z"/>
		
			<linearGradient id="SVGID_20_" gradientUnits="userSpaceOnUse" x1="325.0253" y1="518.7524" x2="363.4242" y2="430.0277" gradientTransform="matrix(0.977 0.2132 -0.2132 0.977 40.672 -460.1315)">
			<stop  offset="0" style="stop-color:#444B8C"/>
			<stop  offset="0.9964" style="stop-color:#3E4177"/>
		</linearGradient>
		<path class="st21" d="M279.69,124.59c-0.97,2.28-1.91,3.37-3.5,3.89c-2.44,0.79-2.89-0.91-13.73-4.39
			c-7.27-2.33-10.98-3.5-15.01-3.07c-4.6,0.48-6.98,2.29-8.75,2.04c-0.22-0.03-0.43-0.09-0.63-0.19c-0.05-0.02-0.1-0.05-0.15-0.08
			c-0.06-0.04-0.13-0.08-0.19-0.13c-1.83-1.35-1.32-4.9-0.24-11.05c1.67-9.48,3.09-15.87,3.56-18.16c1.66-8.19,1.48-15.21,0.76-23.1
			c3.67-0.64,5.42,0.05,6.31,0.98c2.57,2.69-1.9,7.37,0.22,13.95c2.24,6.94,9.09,7.6,9.12,12.32c0.04,5.94-10.79,9.59-9.89,11.74
			c0.86,2.07,10.29-2.66,16.94,1.71c4.66,3.06,3.6,7.74,8.55,11.2c2.05,1.43,4.35,2.11,6.61,2.36
			C279.67,124.59,279.68,124.58,279.69,124.59z"/>
		<path class="st22" d="M264.41,47.15c-0.51,2.27,1.21,10.75,4.59,23.31c0.94,3.48,2.12,7.33,3.34,11.46
			c1.56-2.14,2.89-4.29,4.07-6.39l0,0c5.81-11.63,6.17-22.17,6.11-23.73c-0.01-0.13-0.45-0.35-0.45-0.35
			C275.64,47.66,266.39,46.99,264.41,47.15z"/>
		<g>
			
				<linearGradient id="SVGID_21_" gradientUnits="userSpaceOnUse" x1="3020.8127" y1="-1369.4436" x2="3021.8269" y2="-1396.4591" gradientTransform="matrix(0.7785 0.6275 -0.6275 0.7785 -2944.6089 -771.5921)">
				<stop  offset="0" style="stop-color:#FFC444"/>
				<stop  offset="0.9964" style="stop-color:#F36F56"/>
			</linearGradient>
			<path class="st23" d="M276.18,38.69c-0.69,2.61-1.55,4.6-2.22,5.94c-0.76,1.54-1.1,1.89-1.49,2.15
				c-0.58,0.39-1.36,0.64-5.35,0.54c-2.17-0.05-2.43-0.14-2.53,0.05c-0.49,0.92,4.13,5.8,10.08,6.57c3.64,0.47,7.38-0.65,7.47-1.76
				c0.09-1.11-3.56-1.51-4.08-3.7c-0.36-1.53,0.97-3.19,2.36-4.49C279.98,41.98,276.63,40.69,276.18,38.69z"/>
			
				<linearGradient id="SVGID_22_" gradientUnits="userSpaceOnUse" x1="-3066.9768" y1="276.2664" x2="-3066.3569" y2="268.6212" gradientTransform="matrix(-0.8127 -0.5826 -0.5826 0.8127 -2060.9675 -1956.8619)">
				<stop  offset="0" style="stop-color:#444B8C"/>
				<stop  offset="0.9964" style="stop-color:#26264F"/>
			</linearGradient>
			<path class="st24" d="M282.09,42.16c2.53-0.39,2.85-0.42,3.38-0.8c2.1-1.56,2.51-5.45,0.95-7.6c-0.08-0.11-1.14-1.54-2.1-1.32
				c-0.81,0.19-0.66,1.36-1.67,2.11c-0.95,0.71-1.79,0.21-4.13,0.35c-1.92,0.12-3.12,0.2-3.91,0.94c-1.64,1.53-1.33,5.66,0.63,6.96
				C275.95,43.27,276.39,43.05,282.09,42.16z"/>
			<g>
				
					<linearGradient id="SVGID_23_" gradientUnits="userSpaceOnUse" x1="-6488.3516" y1="2838.3508" x2="-6475.4976" y2="2804.0286" gradientTransform="matrix(-0.9985 0.055 0.055 0.9985 -7059.0581 -4038.25)">
					<stop  offset="0" style="stop-color:#FFC444"/>
					<stop  offset="0.9964" style="stop-color:#F36F56"/>
				</linearGradient>
				<path class="st25" d="M275.23,43.21c0,0,0.3,2.91,3.12,4.04c2.53,1.01,5.51-4.31,4.51-6.23c-0.34-0.64-1.3-1.3-2.27-1.47
					c-0.57-0.1-0.84,0.03-1.77-0.15c-0.86-0.17-1.03-0.35-1.35-0.27c-0.4,0.1-0.9,0.6-1.19,2.43c-0.24-0.7-0.72-1.15-1.2-1.15
					c-0.08,0-0.3,0.03-0.48,0.16C273.96,41.04,274.15,42.12,275.23,43.21z"/>
			</g>
		</g>
		
			<linearGradient id="SVGID_24_" gradientUnits="userSpaceOnUse" x1="348.054" y1="453.2521" x2="353.5706" y2="453.2521" gradientTransform="matrix(-0.977 -0.2132 -0.2132 0.977 712.9925 -312.6766)">
			<stop  offset="0" style="stop-color:#AA80F9"/>
			<stop  offset="0.9964" style="stop-color:#6165D7"/>
		</linearGradient>
		<path class="st26" d="M276.72,54.08l-1.45,3.59l-2.6-0.57l-1.39-3.99C271.28,53.11,276.2,54.38,276.72,54.08z"/>
		<g>
			
				<linearGradient id="SVGID_25_" gradientUnits="userSpaceOnUse" x1="347.5229" y1="450.9467" x2="347.9966" y2="473.5263" gradientTransform="matrix(-0.977 -0.2132 -0.2132 0.977 712.9925 -312.6766)">
				<stop  offset="0" style="stop-color:#AA80F9"/>
				<stop  offset="0.9964" style="stop-color:#6165D7"/>
			</linearGradient>
			<path class="st27" d="M269,70.46c0.28,1.05,0.58,2.14,0.89,3.25c0.71,2.57,1.6,5.33,2.45,8.21c1.56-2.14,2.89-4.29,4.07-6.39l0,0
				l-1.03-17.59l-0.07-0.29c0-0.02-0.03-0.05-0.03-0.07c-0.17-0.8-2.58-0.56-2.58-0.56L269,70.46z"/>
			
				<linearGradient id="SVGID_26_" gradientUnits="userSpaceOnUse" x1="343.7765" y1="467.4438" x2="350.5326" y2="467.4438" gradientTransform="matrix(-0.977 -0.2132 -0.2132 0.977 712.9925 -312.6766)">
				<stop  offset="0" style="stop-color:#AA80F9"/>
				<stop  offset="0.9964" style="stop-color:#6165D7"/>
			</linearGradient>
			<path class="st28" d="M269.9,73.72c0.71,2.57,1.6,5.33,2.45,8.21c1.56-2.14,2.89-4.29,4.07-6.39l0,0l-1.03-17.59
				c-0.48,0-1.64,0.25-2,2.54c-0.47,2.95,1.51,8.77-0.69,10.44C271.82,71.58,270.78,72.61,269.9,73.72z"/>
		</g>
		
			<linearGradient id="SVGID_27_" gradientUnits="userSpaceOnUse" x1="309.9208" y1="489.8509" x2="313.05" y2="499.4016" gradientTransform="matrix(0.977 0.2132 -0.2132 0.977 40.672 -460.1315)">
			<stop  offset="0" style="stop-color:#FFC444"/>
			<stop  offset="0.9964" style="stop-color:#F36F56"/>
		</linearGradient>
		<path class="st29" d="M237.05,92.44l3.48,0.38c0,0,1.87-1.38,3.54,0.64c1.67,2.03,1.1,4.2-0.4,4.71
			c-1.51,0.51-3.74-0.78-4.24-1.17c-0.49-0.4-3.26-1.04-3.4-1.07c-0.14-0.03-0.74-0.03-0.74-0.03L237.05,92.44z"/>
		
			<linearGradient id="SVGID_28_" gradientUnits="userSpaceOnUse" x1="2514.9868" y1="502.2103" x2="2554.3848" y2="411.1769" gradientTransform="matrix(0.977 0.2132 -0.2132 0.977 -2135.7415 -935.1667)">
			<stop  offset="0" style="stop-color:#444B8C"/>
			<stop  offset="0.9964" style="stop-color:#3E4177"/>
		</linearGradient>
		<path class="st30" d="M237.19,91.62c-0.29,2.23-1.09,3.62-2.11,4.46c-4.52,3.75-16.11-0.72-21.92-8.33
			c-4.3-5.64-5.57-13.21-4.11-19.43c2.86-12.13,16.75-21.6,34.43-22.06c0.86,7.97,1.73,15.94,2.59,23.91
			c-10.38-2.1-18.37,4.33-18.66,10.1C227.2,84.58,231.23,89.37,237.19,91.62z"/>
		<g>
			
				<linearGradient id="SVGID_29_" gradientUnits="userSpaceOnUse" x1="2761.374" y1="1105.3407" x2="2774.6963" y2="1193.9231" gradientTransform="matrix(0.3722 0.9282 -0.9282 0.3722 566.8335 -3048.6584)">
				<stop  offset="0" style="stop-color:#FF9085"/>
				<stop  offset="1" style="stop-color:#FB6FBB"/>
			</linearGradient>
			<path class="st31" d="M338.6,52.76l0.74-1.42l2.09,0.14c0.47,0.03,0.86,0.36,0.97,0.82c0.58,2.41,1.88,10.07-3.07,17.07
				c-0.26,0.37-0.72,0.53-1.16,0.41c-0.79-0.22-1.61-0.57-1.61-0.57L338.6,52.76z"/>
			
				<linearGradient id="SVGID_30_" gradientUnits="userSpaceOnUse" x1="2750.4182" y1="1106.995" x2="2763.74" y2="1195.5748" gradientTransform="matrix(0.3722 0.9282 -0.9282 0.3722 566.8335 -3048.6584)">
				<stop  offset="0" style="stop-color:#FF9085"/>
				<stop  offset="1" style="stop-color:#FB6FBB"/>
			</linearGradient>
			<path class="st32" d="M320.16,59.15l-3.07,3.89c0,0-1.03,0.97-1.29,1.5c-0.92,0.07-2.1-0.75-2.1-0.75l2.3-5.73l4.07,0.94
				L320.16,59.15z"/>
			
				<linearGradient id="SVGID_31_" gradientUnits="userSpaceOnUse" x1="2807.4836" y1="1353.6642" x2="2776.6033" y2="1421.4438" gradientTransform="matrix(0.3722 0.9282 -0.9282 0.3722 566.8335 -3048.6584)">
				<stop  offset="0" style="stop-color:#893976"/>
				<stop  offset="1" style="stop-color:#311944"/>
			</linearGradient>
			<path class="st33" d="M314.07,53.74c0,0,17.12,1.44,25.27-2.4c4.01,8.22-2.78,17.87-2.78,17.87s-16.1-9.49-23.34-10.86
				C312.18,56.49,314.07,53.74,314.07,53.74z"/>
			
				<linearGradient id="SVGID_32_" gradientUnits="userSpaceOnUse" x1="2744.7317" y1="1107.84" x2="2758.0542" y2="1196.423" gradientTransform="matrix(0.3722 0.9282 -0.9282 0.3722 566.8335 -3048.6584)">
				<stop  offset="0" style="stop-color:#FF9085"/>
				<stop  offset="1" style="stop-color:#FB6FBB"/>
			</linearGradient>
			<path class="st34" d="M314.13,56.12c0,0,0.43-1.23-0.06-2.38c-0.2-0.52-2.42,2.05-0.86,4.62
				C313.52,57.61,313.83,56.86,314.13,56.12z"/>
		</g>
		
			<linearGradient id="SVGID_33_" gradientUnits="userSpaceOnUse" x1="469.8732" y1="1772.2502" x2="468.4519" y2="1765.7399" gradientTransform="matrix(0.3894 0.9211 -0.9211 0.3894 1759.5881 -1055.5587)">
			<stop  offset="0" style="stop-color:#FFC444"/>
			<stop  offset="0.9964" style="stop-color:#F36F56"/>
		</linearGradient>
		<path class="st35" d="M317.31,60.29c0,0,3.01,0.82,2.34,1.74c-0.67,0.92-2.64,3.4-3.91,2.35
			C314.47,63.33,315.06,61.36,317.31,60.29z"/>
	</g>
	<g>
		<g>
			<linearGradient id="SVGID_34_" gradientUnits="userSpaceOnUse" x1="375.903" y1="203.8033" x2="390.106" y2="255.0577">
				<stop  offset="0" style="stop-color:#444B8C"/>
				<stop  offset="0.9964" style="stop-color:#3E4177"/>
			</linearGradient>
			<path class="st36" d="M389.9,232.86c0,0,0.68,2.75,0.7,3.74c0.02,0.99-10.92,2.38-11.09,1.65c-0.17-0.73,1.66-2.07,2.98-2.59
				c1.32-0.52,5.2-1.95,5.2-1.95L389.9,232.86z"/>
			<linearGradient id="SVGID_35_" gradientUnits="userSpaceOnUse" x1="388.5438" y1="240.0406" x2="388.7496" y2="222.7499">
				<stop  offset="0" style="stop-color:#311944"/>
				<stop  offset="1" style="stop-color:#893976"/>
			</linearGradient>
			<path class="st37" d="M387.01,230.3l0.63,3.43c0,0,1.34,0.74,2.42,0l0.26-3.81L387.01,230.3z"/>
			<linearGradient id="SVGID_36_" gradientUnits="userSpaceOnUse" x1="393.685" y1="198.8756" x2="407.8881" y2="250.1303">
				<stop  offset="0" style="stop-color:#444B8C"/>
				<stop  offset="0.9964" style="stop-color:#3E4177"/>
			</linearGradient>
			<path class="st38" d="M409.86,235.8c0,0,0.68,2.75,0.7,3.74c0.02,0.99-10.92,2.38-11.09,1.65c-0.17-0.73,1.66-2.07,2.98-2.59
				c1.32-0.52,5.2-1.95,5.2-1.95L409.86,235.8z"/>
			<linearGradient id="SVGID_37_" gradientUnits="userSpaceOnUse" x1="408.5376" y1="240.2787" x2="408.7434" y2="222.9878">
				<stop  offset="0" style="stop-color:#311944"/>
				<stop  offset="1" style="stop-color:#893976"/>
			</linearGradient>
			<path class="st39" d="M406.97,233.24l0.63,3.43c0,0,1.34,0.74,2.42,0l0.26-3.81L406.97,233.24z"/>
			<linearGradient id="SVGID_38_" gradientUnits="userSpaceOnUse" x1="378.5771" y1="184.4317" x2="396.9867" y2="184.4317">
				<stop  offset="0" style="stop-color:#311944"/>
				<stop  offset="1" style="stop-color:#893976"/>
			</linearGradient>
			<path class="st40" d="M381.77,139.84c-1.06,2.68-2.13,5.35-3.19,8.03c0.16,14.77,0.93,30.79,2.62,47.85
				c1.26,12.69,2.91,24.68,4.79,35.9c1.72-0.22,3.43-0.43,5.15-0.65c2.09-5.14,4.43-12.86,3.96-22.12
				c-0.49-9.66-3.52-10.71-4.07-19.95c-0.72-11.98,4.04-15.57,5.56-30.18c0.58-5.58,0.69-12.83-0.82-21.48
				C391.1,138.11,386.43,138.98,381.77,139.84z"/>
			<linearGradient id="SVGID_39_" gradientUnits="userSpaceOnUse" x1="378.5772" y1="184.4317" x2="396.9868" y2="184.4317">
				<stop  offset="0" style="stop-color:#444B8C"/>
				<stop  offset="0.9964" style="stop-color:#26264F"/>
			</linearGradient>
			<path class="st41" d="M395.77,137.24c-2.52,0.47-5.04,0.94-7.56,1.41c-3.94,8.33-4.55,16.71-3.45,20.31
				c1.55,5.09,4.69,6.51,4.94,11.73c0.25,5.16-2.68,6.74-4.12,12.97c-1,4.31-0.33,8.15,1.03,15.64c2.75,15.1,6.8,19.46,4.12,24.7
				c-0.76,1.49-2.2,3.3-5.19,4.84c0.15,0.93,0.3,1.86,0.45,2.78c1.72-0.22,3.43-0.43,5.15-0.65c2.09-5.14,4.43-12.86,3.96-22.12
				c-0.49-9.66-3.52-10.71-4.07-19.95c-0.72-11.98,4.04-15.57,5.56-30.18C397.17,153.14,397.28,145.89,395.77,137.24z"/>
			<linearGradient id="SVGID_40_" gradientUnits="userSpaceOnUse" x1="388.9706" y1="187.0617" x2="416.9163" y2="187.0617">
				<stop  offset="0" style="stop-color:#311944"/>
				<stop  offset="1" style="stop-color:#893976"/>
			</linearGradient>
			<path class="st42" d="M388.97,143.93c3.43,12.81,6.65,26.55,9.47,41.17c3.41,17.65,5.82,34.36,7.48,49.92
				c1.89-0.1,3.79-0.2,5.68-0.29c6.27-15.33,5.92-25.35,4.33-31.77c-0.61-2.47-2.13-7.3-2.98-14.62c-0.59-5.1-0.57-9.03-0.54-13.74
				c0.07-10.34,0.98-12.67,0.5-20.53c-0.44-7.38-0.71-11.11-2.99-13.12C403.92,135.66,390.02,143.34,388.97,143.93z"/>
			<g>
				<linearGradient id="SVGID_41_" gradientUnits="userSpaceOnUse" x1="375.6273" y1="104.851" x2="365.8081" y2="125.5965">
					<stop  offset="0" style="stop-color:#FCB148"/>
					<stop  offset="0.0521" style="stop-color:#FDBA46"/>
					<stop  offset="0.1424" style="stop-color:#FFC244"/>
					<stop  offset="0.3183" style="stop-color:#FFC444"/>
					<stop  offset="0.4849" style="stop-color:#FDB946"/>
					<stop  offset="0.7754" style="stop-color:#F99C4D"/>
					<stop  offset="0.8658" style="stop-color:#F8924F"/>
					<stop  offset="1" style="stop-color:#F8924F"/>
				</linearGradient>
				<path class="st43" d="M375.76,93.28c0,0-11.86,4.95-10.3,18.53c13.54-0.77,17.69-1.59,17.69-1.59L375.76,93.28z"/>
				<linearGradient id="SVGID_42_" gradientUnits="userSpaceOnUse" x1="387.5658" y1="134.6889" x2="368.2032" y2="175.5971">
					<stop  offset="0" style="stop-color:#FCB148"/>
					<stop  offset="0.0521" style="stop-color:#FDBA46"/>
					<stop  offset="0.1424" style="stop-color:#FFC244"/>
					<stop  offset="0.3183" style="stop-color:#FFC444"/>
					<stop  offset="0.4849" style="stop-color:#FDB946"/>
					<stop  offset="0.7754" style="stop-color:#F99C4D"/>
					<stop  offset="0.8658" style="stop-color:#F8924F"/>
					<stop  offset="1" style="stop-color:#F8924F"/>
				</linearGradient>
				<path class="st44" d="M414.37,144.68c-2.13,8.99-32.26,12.97-36.81,4.52c-1.51-2.79-0.79-8.01,0.07-14.22
					c0.11-0.84,0.42-3.37,0.65-6.87c0.01-0.07,0.01-0.14,0.02-0.21c0.07-1.02,0.1-2.2,0.07-3.58c-0.1-5.41-0.97-7.43-1.86-13.75
					c-0.56-3.94-1.15-9.79-1.05-17.17c4.03-1.52,9.53-3.13,16.2-3.74c7.13-0.66,13.28,0.02,17.94,0.96c1.68,0.34,2.8,1.94,2.53,3.63
					c-0.33,2.07-0.6,3.99-0.83,5.77c-1.33,10.39-1.12,16.24-0.46,19.73c1.53,8.16-0.99,7.59-0.59,11.01
					C411.26,139.26,415.2,141.19,414.37,144.68z"/>
				
					<linearGradient id="SVGID_43_" gradientUnits="userSpaceOnUse" x1="-168.9122" y1="87.4275" x2="-148.9712" y2="87.4275" gradientTransform="matrix(-1 0 0 1 235.0002 0)">
					<stop  offset="0" style="stop-color:#AB316D"/>
					<stop  offset="1" style="stop-color:#792D3D"/>
				</linearGradient>
				<path class="st45" d="M394.6,81.01c0.24,2.29,0.48,4.59,0.72,6.88c0.07,0.62,0.56,1.11,1.19,1.16c2.47,0.2,4.93,0.41,7.4,0.61
					l-13.67,4.19l-6.27-2.99c1.91-0.59,3.82-1.19,5.74-1.78c0.49-0.15,0.85-0.58,0.91-1.09c0.17-1.42,0.33-2.83,0.5-4.25
					L394.6,81.01z"/>
				
					<linearGradient id="SVGID_44_" gradientUnits="userSpaceOnUse" x1="-1676.6995" y1="-191.7931" x2="-1667.8881" y2="-191.7931" gradientTransform="matrix(-0.9121 -0.4099 -0.4099 0.9121 -1210.1642 -430.7737)">
					<stop  offset="0" style="stop-color:#AB316D"/>
					<stop  offset="1" style="stop-color:#792D3D"/>
				</linearGradient>
				<path class="st46" d="M396.75,81.98c-2.6,2.36-6.9,3.35-8.23,1.89s0.49-5.04,3.09-7.4c2.6-2.36,5.56-2.38,6.89-0.92
					S399.35,79.61,396.75,81.98z"/>
				
					<linearGradient id="SVGID_45_" gradientUnits="userSpaceOnUse" x1="-4004.6309" y1="-203.9385" x2="-4012.27" y2="-190.4427" gradientTransform="matrix(0.9121 0.4099 -0.4099 0.9121 3972.4861 1898.3368)">
					<stop  offset="0" style="stop-color:#444B8C"/>
					<stop  offset="0.9964" style="stop-color:#26264F"/>
				</linearGradient>
				<path class="st47" d="M394.72,80.74c0.11,0.19,1.13-0.39,1.41-0.08c0.24,0.26-0.07,1.15-0.68,1.57
					c-0.53,0.36-0.91,0.13-1.2,0.46c-0.48,0.55-0.06,1.88,0.31,1.91c0.24,0.02,0.27-0.51,0.7-0.94c0.85-0.84,2.07-0.15,3.46-0.47
					c2.19-0.49,3.97-3.27,3.5-4.83c-0.18-0.59-0.61-0.75-0.8-1.66c-0.21-0.99,0.19-1.25-0.01-1.91c-0.35-1.13-1.95-1.75-3.07-1.9
					c-1.41-0.18-1.8,0.43-2.61,0.01c-0.96-0.5-0.68-1.5-1.78-2.2c-0.06-0.04-1.09-0.68-2.24-0.33c-1.49,0.44-1.95,2.17-2.02,2.42
					c-0.42,1.57,0.18,3.42,1.37,4.31c0.25,0.19,0.22,0.1,3.04,1.29c0.93,0.39,1.49,0.64,1.53,1.04
					C395.68,80.02,394.61,80.55,394.72,80.74z"/>
				<linearGradient id="SVGID_46_" gradientUnits="userSpaceOnUse" x1="388.0793" y1="153.8536" x2="365.2126" y2="202.1651">
					<stop  offset="0" style="stop-color:#FCB148"/>
					<stop  offset="0.0521" style="stop-color:#FDBA46"/>
					<stop  offset="0.1424" style="stop-color:#FFC244"/>
					<stop  offset="0.3183" style="stop-color:#FFC444"/>
					<stop  offset="0.4849" style="stop-color:#FDB946"/>
					<stop  offset="0.7754" style="stop-color:#F99C4D"/>
					<stop  offset="0.8658" style="stop-color:#F8924F"/>
					<stop  offset="1" style="stop-color:#F8924F"/>
				</linearGradient>
				<path class="st48" d="M414.37,144.68c-2.13,8.99-32.26,12.97-36.81,4.52c-1.51-2.79-0.79-8.01,0.07-14.22
					c0.11-0.84,0.42-3.37,0.65-6.87c0.01-0.07,0.01-0.14,0.02-0.21c2.21,0.16,4.79,0.72,7.7,1.8c14.01,5.19,14.01-2.08,6.6-5.36
					c-7.4-3.28-7.12-15.04-0.97-12.65c6.16,2.39,9.32,3.5,11.05-4.46c1.73-7.97,7.87-7.27,7.87-7.27c0.26,0,0.51,0.02,0.75,0.06
					c-1.33,10.39-1.12,16.24-0.46,19.73c1.53,8.16-0.99,7.59-0.59,11.01C411.26,139.26,415.2,141.19,414.37,144.68z"/>
				<linearGradient id="SVGID_47_" gradientUnits="userSpaceOnUse" x1="405.4305" y1="112.0993" x2="460.5358" y2="98.4957">
					<stop  offset="0" style="stop-color:#FCB148"/>
					<stop  offset="0.0521" style="stop-color:#FDBA46"/>
					<stop  offset="0.1424" style="stop-color:#FFC244"/>
					<stop  offset="0.3183" style="stop-color:#FFC444"/>
					<stop  offset="0.4849" style="stop-color:#FDB946"/>
					<stop  offset="0.7754" style="stop-color:#F99C4D"/>
					<stop  offset="0.8658" style="stop-color:#F8924F"/>
					<stop  offset="1" style="stop-color:#F8924F"/>
				</linearGradient>
				<path class="st49" d="M422.69,105.25c-2.29-17.76-17.62-14.73-17.62-14.73c-7.58,1.68,4.39,20.21,3.48,25.77
					c-0.51,3.12-3.73,4.07-6.45,4.3c-3.04,0.26-5.93,1.3-8.43,3.05l-3.04,2.13c0,0,1.51,2.79,18.05,5.24
					C425.22,133.46,424.99,123.01,422.69,105.25z"/>
			</g>
		</g>
		<g>
			<g>
				<polygon class="st50" points="365.56,127.79 404.02,127.22 393.79,132.15 365.46,130.3 				"/>
				<path class="st51" d="M405.37,128.24L405.37,128.24c0,0.72-0.45,1.36-1.13,1.61l-12.29,4.82l-0.06-3.34l12.11-4.11
					C404.69,127.02,405.37,127.53,405.37,128.24z"/>
			</g>
			
				<linearGradient id="SVGID_48_" gradientUnits="userSpaceOnUse" x1="3786.9749" y1="126.4429" x2="3796.6152" y2="126.4429" gradientTransform="matrix(1 0 0 1 -3397.1382 0)">
				<stop  offset="0" style="stop-color:#AB316D"/>
				<stop  offset="1" style="stop-color:#792D3D"/>
			</linearGradient>
			<path class="st52" d="M399.45,125.96c0.24-0.05-1.15-2.81-2.24-2.5c-1.09,0.32-6.41,3.4-6.89,4.67
				c-0.48,1.27-0.48,1.27-0.48,1.27s2.32,0.18,3.76-0.3C395.04,128.62,397.53,126.39,399.45,125.96z"/>
			<g>
				<g>
					<path class="st51" d="M390.88,107.89l2.71,24.68c0.09,0.85-1.1,2.12-1.95,2.08l-39.77-2.44c-0.65-0.03-1.2-0.51-1.31-1.16
						l-4.99-23.84c-0.15-0.87,1.41-1.76,2.29-1.74l41.67,1.17C390.23,106.67,390.81,107.2,390.88,107.89z"/>
					<path class="st50" d="M389.97,108.61l2.71,24.68c0.09,0.85-0.6,1.59-1.45,1.54l-40.27-1.91c-0.65-0.03-1.2-0.51-1.31-1.16
						l-4.11-23.95c-0.15-0.87,0.53-1.65,1.41-1.63l41.67,1.17C389.32,107.39,389.9,107.92,389.97,108.61z"/>
				</g>
				<path class="st53" d="M366.33,127.15c3.52-1.49,2.28-4.33,6.43-7.87c5.48-4.67,11.06-2.65,13.02-6.27
					c0.61-1.13,0.9-2.88-0.16-5.72l3.02,0.08c0.7,0.02,1.27,0.55,1.35,1.24l2.71,24.68c0.09,0.85-0.6,1.59-1.45,1.54l-40.27-1.91
					c-0.65-0.03-1.2-0.51-1.31-1.16l-0.57-3.3c1.22-0.68,2.68-1.3,4.39-1.64C359.38,125.63,362.28,128.86,366.33,127.15z"/>
			</g>
			
				<linearGradient id="SVGID_49_" gradientUnits="userSpaceOnUse" x1="3745.5476" y1="131.3742" x2="3752.0513" y2="131.3742" gradientTransform="matrix(1 0 0 1 -3397.1382 0)">
				<stop  offset="0" style="stop-color:#AB316D"/>
				<stop  offset="1" style="stop-color:#792D3D"/>
			</linearGradient>
			<path class="st54" d="M348.43,129.48c-0.07-0.2,0.07-0.4,0.28-0.41c0.85-0.04,2.82-0.06,3.91,0.61c1.42,0.87,3.25,2.45,1.7,3.25
				l-1.44,0.75c-0.07,0.03-0.14,0.04-0.21,0.03c-0.51-0.11-2.66-0.59-2.9-0.71C349.56,132.88,348.74,130.44,348.43,129.48z"/>
		</g>
	</g>
	<g>
		<g>
			<polygon class="st50" points="325.56,207.85 325.56,224.53 327.6,225.45 325.56,225.45 325.56,235.53 323.2,236.99 
				325.34,236.99 325.44,252.94 354.57,263.58 354.57,215.81 			"/>
			<polygon class="st55" points="325.68,207.85 354.42,203.3 381.97,209.75 353.83,215.81 			"/>
			<polygon class="st56" points="353.83,215.88 354.53,219.26 352.87,220.88 353.91,233.89 353.91,239.32 352.85,240.84 
				354.38,243.62 355.04,263.58 381.59,256.63 381.59,244.63 379.84,244.25 382,243.49 381.03,242.35 380.23,234.64 379.44,228.83 
				381.13,228.32 380.11,226.68 379.78,217.84 381.24,216.57 380,213.79 380.14,210.14 			"/>
		</g>
		<polygon class="st55" points="329.08,219.03 347.99,223.35 332.56,222.93 		"/>
		<polygon class="st50" points="379.79,218.17 357.95,222.08 379.86,220.13 		"/>
	</g>
	<g>
		
			<linearGradient id="SVGID_50_" gradientUnits="userSpaceOnUse" x1="5500.7529" y1="245.2484" x2="5501.7705" y2="230.0966" gradientTransform="matrix(1 0 0 1 -5153.7842 0)">
			<stop  offset="0" style="stop-color:#FFC444"/>
			<stop  offset="0.9964" style="stop-color:#F36F56"/>
		</linearGradient>
		<path class="st57" d="M346.49,231.36c0,0,2.35,0.79,2.59,4.88c-0.38-0.03-1.28,0-1.28,0s0.17-2.97-1.5-3.55
			C346.44,232.34,346.49,231.36,346.49,231.36z"/>
		
			<linearGradient id="SVGID_51_" gradientUnits="userSpaceOnUse" x1="5495.6577" y1="239.9272" x2="5496.3677" y2="229.3573" gradientTransform="matrix(1 0 0 1 -5153.7842 0)">
			<stop  offset="0.1" style="stop-color:#311944"/>
			<stop  offset="0.267" style="stop-color:#371B47"/>
			<stop  offset="0.4803" style="stop-color:#462150"/>
			<stop  offset="0.7186" style="stop-color:#612A5F"/>
			<stop  offset="0.9736" style="stop-color:#853774"/>
			<stop  offset="1" style="stop-color:#893976"/>
		</linearGradient>
		<path class="st58" d="M337.88,231.11c0.06,0.74,0.12,1.49,0.18,2.23c1.16-0.33,2.43-0.72,3.79-0.79c1.77-0.09,3.4,0.11,4.84,0.47
			c0.06-0.09,0.2-0.32,0.26-0.69c0.1-0.59-0.07-1.09-0.1-1.17c-0.74-0.27-1.54-0.5-2.39-0.66
			C342.01,230.06,339.79,230.5,337.88,231.11z"/>
		
			<linearGradient id="SVGID_52_" gradientUnits="userSpaceOnUse" x1="5492.0044" y1="232.3553" x2="5499.855" y2="236.5644" gradientTransform="matrix(1 0 0 1 -5153.7842 0)">
			<stop  offset="0.1" style="stop-color:#311944"/>
			<stop  offset="0.267" style="stop-color:#371B47"/>
			<stop  offset="0.4803" style="stop-color:#462150"/>
			<stop  offset="0.7186" style="stop-color:#612A5F"/>
			<stop  offset="0.9736" style="stop-color:#853774"/>
			<stop  offset="1" style="stop-color:#893976"/>
		</linearGradient>
		<path class="st59" d="M337.78,231.76c0-0.27,0.02-0.61,0.11-0.65c0.08-0.04,0.19,0.21,0.24,0.34c0.02,0.06,0.06,0.19,0.09,0.63
			c0.03,0.56-0.01,0.83-0.04,1c-0.02,0.1-0.06,0.26-0.11,0.26c-0.04,0-0.08-0.09-0.13-0.28
			C337.86,232.81,337.77,232.38,337.78,231.76z"/>
		
			<linearGradient id="SVGID_53_" gradientUnits="userSpaceOnUse" x1="5489.7832" y1="247.0381" x2="5490.937" y2="229.8586" gradientTransform="matrix(1 0 0 1 -5153.7842 0)">
			<stop  offset="0" style="stop-color:#FFC444"/>
			<stop  offset="0.9964" style="stop-color:#F36F56"/>
		</linearGradient>
		<path class="st60" d="M335.64,236.46c0.49,0.1,1.67,0.38,1.67,0.38s-0.77-2.62,0.68-3.82c0.04-0.2,0.08-0.51,0.03-0.89
			c-0.04-0.29-0.11-0.52-0.17-0.69C337.23,231.82,335.89,233.06,335.64,236.46z"/>
		
			<linearGradient id="SVGID_54_" gradientUnits="userSpaceOnUse" x1="5481.5176" y1="245.5845" x2="5477.0674" y2="204.9066" gradientTransform="matrix(1 0 0 1 -5153.7842 0)">
			<stop  offset="0.1" style="stop-color:#311944"/>
			<stop  offset="0.6853" style="stop-color:#6D2F66"/>
			<stop  offset="1" style="stop-color:#893976"/>
		</linearGradient>
		<path class="st61" d="M325.59,237.15c0,0,0.06-1.37,2.09-1.37c0.32,0.25,0.34,1.37,0.34,1.37H325.59z"/>
		
			<linearGradient id="SVGID_55_" gradientUnits="userSpaceOnUse" x1="5500.7915" y1="262.6577" x2="5471.3857" y2="246.2842" gradientTransform="matrix(1 0 0 1 -5153.7842 0)">
			<stop  offset="0" style="stop-color:#311944"/>
			<stop  offset="1" style="stop-color:#893976"/>
		</linearGradient>
		<path class="st62" d="M323.79,264.15l5.55,3.62l3.36-13.29l-5.54-17.82l-1.57,0.5l-2.38,25.59
			C323.16,263.33,323.39,263.89,323.79,264.15z"/>
		
			<linearGradient id="SVGID_56_" gradientUnits="userSpaceOnUse" x1="5474.2412" y1="239.7377" x2="5483.1826" y2="254.7311" gradientTransform="matrix(1 0 0 1 -5153.7842 0)">
			<stop  offset="0" style="stop-color:#311944"/>
			<stop  offset="1" style="stop-color:#893976"/>
		</linearGradient>
		<path class="st63" d="M332.7,254.48l-5.54-17.82l-1.57,0.5c0.39,1.57,0.57,4.13,0.66,5.56c0.37,6.07,1.6,7.76,1.01,11.99
			c-0.5,3.52-1.58,4-1.49,6.37c0.1,2.58,1.5,4.74,3.16,6.44l0.41,0.27L332.7,254.48z"/>
		
			<linearGradient id="SVGID_57_" gradientUnits="userSpaceOnUse" x1="5496.3311" y1="221.7565" x2="5499.6094" y2="265.7506" gradientTransform="matrix(1 0 0 1 -5153.7842 0)">
			<stop  offset="0.1" style="stop-color:#311944"/>
			<stop  offset="0.6853" style="stop-color:#6D2F66"/>
			<stop  offset="1" style="stop-color:#893976"/>
		</linearGradient>
		<polygon class="st64" points="327.16,236.66 357.61,236.66 362.4,264.9 329.34,267.77 		"/>
		<g class="st65">
			
				<linearGradient id="SVGID_58_" gradientUnits="userSpaceOnUse" x1="5490.834" y1="246.7223" x2="5514.6338" y2="265.0596" gradientTransform="matrix(1 0 0 1 -5153.7842 0)">
				<stop  offset="0" style="stop-color:#311944"/>
				<stop  offset="1" style="stop-color:#893976"/>
			</linearGradient>
			<path class="st66" d="M357.61,236.66h-10.26c-0.19,0.58-0.48,1.38-0.9,2.29c-4.59,9.86-15.09,11.1-14.9,12.72
				c0.28,2.42,23.67-1.02,24.26,2.31c0.29,1.61-4.65,5.26-9.81,6.64c-6.18,1.66-10.72-0.43-13.74,3.29
				c-1.02,1.26-1.47,2.74-1.69,3.73l31.82-2.74L357.61,236.66z"/>
		</g>
		
			<linearGradient id="SVGID_59_" gradientUnits="userSpaceOnUse" x1="5484.9282" y1="244.0805" x2="5494.6768" y2="243.7019" gradientTransform="matrix(1 0 0 1 -5153.7842 0)">
			<stop  offset="0.1" style="stop-color:#311944"/>
			<stop  offset="0.6853" style="stop-color:#6D2F66"/>
			<stop  offset="1" style="stop-color:#893976"/>
		</linearGradient>
		<path class="st67" d="M327.68,235.78c-0.34,0-0.82-0.05-1.34,0.28c-0.11,0.07-0.21,0.15-0.3,0.23l0.24-0.09
			c0.39-0.12,0.92,0.04,1.12,0.46c0.24,0.51,0.33,1.7,0.39,2.29c0.15,1.67,1.09,12.09,1.09,12.09c0.07,0.88,0.69,1.54,1.42,1.53
			l28.32-1.59c0.22,0,0.43-0.08,0.61-0.22c0.37-0.31,0.54-0.84,0.45-1.34L358.23,237c-0.12-0.71-0.64-1.23-1.24-1.23H327.68z"/>
		
			<linearGradient id="SVGID_60_" gradientUnits="userSpaceOnUse" x1="5500.2344" y1="278.2327" x2="5496.7051" y2="238.5694" gradientTransform="matrix(1 0 0 1 -5153.7842 0)">
			<stop  offset="0.1" style="stop-color:#311944"/>
			<stop  offset="0.267" style="stop-color:#371B47"/>
			<stop  offset="0.4803" style="stop-color:#462150"/>
			<stop  offset="0.7186" style="stop-color:#612A5F"/>
			<stop  offset="0.9736" style="stop-color:#853774"/>
			<stop  offset="1" style="stop-color:#893976"/>
		</linearGradient>
		<path class="st68" d="M327.98,235.78c-0.34,0-0.75-0.05-1.2,0.08c-0.12,0.04-0.32,0.1-0.4,0.18c0,0,0.96-0.25,1.33,0.62
			c0.22,0.53,0.33,1.7,0.39,2.29c0.15,1.67,1.09,12.09,1.09,12.09c0.07,0.88,0.69,1.54,1.42,1.53l28.64-0.66
			c0.22,0,0.43-0.08,0.61-0.22c0.37-0.31,0.54-0.84,0.45-1.34L358.53,237c-0.12-0.71-0.64-1.23-1.24-1.23H327.98z"/>
		
			<linearGradient id="SVGID_61_" gradientUnits="userSpaceOnUse" x1="5501.9487" y1="287.3708" x2="5495.9712" y2="232.7305" gradientTransform="matrix(1 0 0 1 -5153.7842 0)">
			<stop  offset="0" style="stop-color:#311944"/>
			<stop  offset="1" style="stop-color:#893976"/>
		</linearGradient>
		<path class="st69" d="M360.29,250.34L358.53,237c-0.12-0.71-0.64-1.23-1.24-1.23h-29.31c-0.34,0-0.75-0.05-1.2,0.08
			c-0.12,0.04-0.32,0.1-0.4,0.18c0,0,0.96-0.25,1.33,0.62c0.04,0.08,0.07,0.18,0.1,0.29c2.78,0.12,5.57,0.03,8.35,0.23
			c5.5,0.37,11.07,0.37,16.26,2.76c1.66,0.76,2.8,3.51,2.35,4.78c-0.32,0.91-1.43,0.84-1.82,2.04c-0.41,1.26,0.57,2.12,0.16,3
			c-0.43,0.93-1.73,0.49-3.84,1.15c-1.16,0.36-2.05,0.9-2.61,1.29l12.59-0.29c0.22-0.01,0.43-0.08,0.61-0.22
			C360.21,251.37,360.37,250.84,360.29,250.34z"/>
		<g>
			
				<linearGradient id="SVGID_62_" gradientUnits="userSpaceOnUse" x1="5503.1006" y1="254.9705" x2="5485.397" y2="245.7164" gradientTransform="matrix(1 0 0 1 -5153.7842 0)">
				<stop  offset="0" style="stop-color:#FFC444"/>
				<stop  offset="0.9964" style="stop-color:#F36F56"/>
			</linearGradient>
			<path class="st70" d="M346.58,254.38l-3.59,0.93l-0.38,0.03c-0.38,0.03-0.71-0.32-0.73-0.79l-0.16-4.41
				c-0.02-0.47,0.29-0.85,0.67-0.86l0.38-0.01l3.61,0.49c0.34-0.01,0.63-0.2,0.65,0.24l0.15,4.14
				C347.2,254.58,346.92,254.35,346.58,254.38z"/>
			
				<linearGradient id="SVGID_63_" gradientUnits="userSpaceOnUse" x1="5544.7529" y1="235.5564" x2="5485.1812" y2="256.9246" gradientTransform="matrix(1 0 0 1 -5153.7842 0)">
				<stop  offset="0" style="stop-color:#FFC444"/>
				<stop  offset="0.9964" style="stop-color:#F36F56"/>
			</linearGradient>
			<path class="st71" d="M346.85,254.99l-3.97,0.35c-0.38,0.03-0.71-0.32-0.73-0.79l-0.16-4.41c-0.02-0.47,0.29-0.85,0.67-0.86
				l3.98-0.06c0.34-0.01,0.64,0.35,0.65,0.79l0.15,4.14C347.46,254.58,347.2,254.96,346.85,254.99z"/>
		</g>
	</g>
</g>
</svg>
