<?xml version="1.0" encoding="utf-8"?>
<!-- Generator: Adobe Illustrator 23.0.2, SVG Export Plug-In . SVG Version: 6.00 Build 0)  -->
<svg version="1.1" id="Layer_1" xmlns="http://www.w3.org/2000/svg" xmlns:xlink="http://www.w3.org/1999/xlink" x="0px" y="0px"
	 viewBox="0 0 600 300" style="enable-background:new 0 0 600 300;" xml:space="preserve">
<style type="text/css">
	.st0{opacity:0.3;fill:#999999;}
	.st1{fill:#F0A17D;}
	.st2{opacity:0.5;fill:#C27B61;}
	.st3{fill:#784C3E;}
	.st4{opacity:0.5;fill:#4A2C24;}
	.st5{fill:#FAC59A;}
	.st6{opacity:0.5;fill:#CC9A79;}
	.st7{fill:#FAB29A;}
	.st8{opacity:0.5;fill:#CC8A79;}
	.st9{fill:#4A2F26;}
	.st10{opacity:0.5;fill:#1C110E;}
	.st11{fill:none;}
</style>
<path class="st0" d="M622.5,393.17c-0.02-0.01-0.04-0.02-0.1-0.04c-0.02-0.01-0.04-0.02-0.06-0.03c-0.15-0.08-0.39-0.19-0.71-0.36
	c-0.1-0.05-0.22-0.11-0.34-0.17c-0.11-0.06-0.23-0.11-0.36-0.18c-0.23-0.1-0.48-0.23-0.75-0.36c-0.09-0.05-0.17-0.09-0.26-0.13
	c-1.73-0.86-4.3-2.12-7.61-3.73c-0.26-0.12-0.53-0.26-0.81-0.39c-0.9-0.44-1.85-0.9-2.85-1.38c-0.39-0.19-0.78-0.38-1.18-0.57
	c-2.25-1.09-4.72-2.28-7.39-3.56c-0.24-0.12-0.48-0.23-0.73-0.35c-0.59-0.29-1.19-0.58-1.79-0.86c-0.4-0.19-0.79-0.38-1.18-0.57
	c-0.41-0.19-0.81-0.38-1.21-0.57c-0.8-0.38-1.63-0.77-2.47-1.18c-5.05-2.4-10.65-5.03-16.68-7.85c-0.66-0.31-1.32-0.62-1.98-0.92
	c-3.9-1.82-7.98-3.7-12.22-5.65c-0.81-0.37-1.63-0.75-2.45-1.13c-0.73-0.33-1.47-0.67-2.21-1c-0.7-0.33-1.4-0.64-2.11-0.97
	c-0.05-0.02-0.08-0.04-0.13-0.06c-1.1-0.51-2.22-1.01-3.34-1.52c-13.41-6.09-28.08-12.6-43.4-19.18c-1.17-0.51-2.36-1.01-3.53-1.52
	c-6.86-2.92-13.85-5.87-20.89-8.78c-1.39-0.57-2.76-1.13-4.15-1.7c-0.11-0.04-0.23-0.09-0.34-0.14c-1.79-0.73-3.58-1.47-5.37-2.2
	c-8.24-3.33-16.53-6.61-24.79-9.79c-4.03-8.92-8.19-17.83-13.86-25.8c-1-1.4-2.03-2.77-3.04-4.16c-0.41-5.2-1.07-10.41-1.66-15.44
	c-0.01-0.02,0-0.04-0.01-0.05c-2-14.85,0.29-21.59,4.65-28.28c1.49-2.28,7.75-9.95,16.12-19.9c0,0,0,0,0,0c0.12,0,0.24,0.01,0.35,0
	c1.49-0.07,3-0.42,4.55-1.13c0.6-0.28,1.16-0.56,1.68-0.85c7.76-4.34,6.43-10.08,6.43-10.08c0.02,0,15.72-3.76,15.22-14.5l0,0l0,0
	c0-0.08-0.01-0.16-0.02-0.24c-0.01-0.08-0.01-0.15-0.02-0.23c-0.02-0.18-0.05-0.37-0.07-0.56c-0.02-0.12-0.03-0.24-0.05-0.36
	c0-0.02,0-0.03-0.01-0.05c-0.01-0.06-0.02-0.11-0.03-0.17c-0.07-0.35-0.14-0.7-0.24-1.07c0.02,0.02,0.04,0.03,0.07,0.04
	c0.51,0.31,3.77,2.07,8.04-0.27c1.33-0.73,2.75-1.84,4.22-3.53c3.32-3.83,4.43-7.21,3.81-10.42c0,0,0,0,0,0l0,0
	c-0.32-1.64-1.1-3.24-2.25-4.82c0.73-0.82,1.45-1.63,2.16-2.42c0,0,0,0,0,0c1.66,0.93,4.11,1.8,6.95,1.15
	c2.03-0.47,4.24-1.71,6.5-4.25c3.68-4.14,4.15-9.26,2.53-14.36c0,0,0,0,0,0c3.29-3.5,6.72-7.11,10.27-10.81
	C580.23,82.48,739.28-78.4,739.28-78.4l-52.39-65.86c0,0-1.58,1.49-4.5,4.27C657.96-116.76,539.67-3.61,472,73.96
	c-0.02,0.02-0.04,0.05-0.06,0.07c-0.56,0.64-1.11,1.28-1.67,1.92c-0.14,0.16-0.27,0.31-0.41,0.47c-0.46,0.54-0.92,1.07-1.38,1.6
	c-0.21,0.24-0.42,0.48-0.62,0.72c-0.41,0.48-0.82,0.95-1.23,1.43c-0.24,0.28-0.48,0.56-0.72,0.84c-0.37,0.44-0.75,0.87-1.12,1.31
	c-0.27,0.32-0.54,0.63-0.81,0.95c-0.33,0.39-0.67,0.78-1,1.18c-0.29,0.35-0.59,0.69-0.88,1.04c-0.32,0.38-0.64,0.76-0.96,1.14
	c-0.29,0.34-0.58,0.68-0.86,1.02c-0.33,0.39-0.65,0.78-0.98,1.17c-0.27,0.32-0.54,0.64-0.8,0.96c-0.36,0.43-0.71,0.86-1.06,1.28
	c-0.22,0.27-0.44,0.53-0.66,0.8c-0.39,0.48-0.78,0.95-1.17,1.42c-0.18,0.22-0.36,0.43-0.53,0.65c-0.31,0.38-0.61,0.75-0.92,1.12
	c-6.34,0.48-13.84,0.55-21.39,0.62c-2.12-0.02-26.27-1-42.87-6.25c-0.69-0.21-1.35-0.43-2-0.67l-0.01,0
	c-0.18-0.05-0.36-0.11-0.53-0.18c0,0-5.38-5.02-10.3-9.14c-0.88-0.75-1.75-1.46-2.57-2.1c0,0-0.02-0.08-0.06-0.25
	c-0.5-2.05-4.02-16.47-8.64-35.94c5.46-3.43,9.65-6.54,11.4-10.91c0,0,0,0,0-0.01c0,0,0,0,0,0.01c0.52-1.29,0.81-2.69,0.88-4.23
	c0.01-0.22,0.03-0.43,0.03-0.66c0-4.25-1.01-7.09-2.25-8.98c-2.04-3.09-4.72-3.64-4.72-3.64l0,0l0,0c0,0,0,0,0,0c0,0,0,0,0,0
	c0,0,0.06-0.33,0.14-0.9c0.01-0.07,0.02-0.14,0.03-0.22c0-0.02,0-0.04,0.01-0.06c0.01-0.08,0.02-0.17,0.03-0.25
	c0.02-0.2,0.05-0.41,0.07-0.65c0.01-0.05,0.01-0.09,0.02-0.14c0.01-0.06,0.01-0.14,0.02-0.21c0.02-0.25,0.05-0.5,0.07-0.78
	c0-0.05,0.01-0.08,0.01-0.13c0.02-0.22,0.03-0.44,0.04-0.68c0-0.06,0-0.13,0.01-0.19c0.01-0.25,0.02-0.51,0.03-0.78
	c0-0.14,0.01-0.28,0.01-0.42c0-0.33,0-0.67,0-1.01c0-0.12-0.01-0.24-0.01-0.37c-0.01-0.29-0.02-0.58-0.04-0.88
	c-0.01-0.12-0.01-0.24-0.02-0.36c-0.03-0.34-0.06-0.69-0.1-1.05c-0.01-0.1-0.02-0.19-0.03-0.29c-0.02-0.13-0.04-0.25-0.06-0.38
	c-0.01-0.06-0.02-0.11-0.02-0.17c-0.02-0.11-0.03-0.23-0.05-0.34c-0.01-0.04-0.02-0.09-0.03-0.13c-0.08-0.48-0.17-0.96-0.29-1.45
	c-0.02-0.08-0.03-0.16-0.05-0.24c-0.03-0.14-0.08-0.28-0.11-0.42c-0.01-0.02-0.01-0.04-0.02-0.06c-0.04-0.14-0.07-0.28-0.11-0.41
	c-0.03-0.09-0.06-0.17-0.09-0.26c-0.06-0.2-0.13-0.39-0.2-0.59c-0.05-0.14-0.09-0.28-0.14-0.42c-0.07-0.16-0.13-0.32-0.2-0.49
	c-0.04-0.08-0.08-0.16-0.11-0.25c-0.05-0.11-0.1-0.23-0.16-0.34c-0.04-0.08-0.07-0.17-0.12-0.25c-0.03-0.06-0.07-0.11-0.09-0.17
	c-0.13-0.25-0.27-0.5-0.42-0.75c-0.13-0.22-0.27-0.44-0.42-0.65c-0.12-0.18-0.24-0.35-0.38-0.52c-0.13-0.17-0.27-0.33-0.41-0.5
	c-0.13-0.15-0.28-0.3-0.42-0.45c-0.19-0.2-0.39-0.39-0.6-0.57c-0.21-0.18-0.43-0.36-0.66-0.53c-0.06-0.05-0.12-0.1-0.18-0.15
	c-0.06-0.04-0.13-0.07-0.19-0.11c-0.3-0.21-0.62-0.4-0.96-0.58c-0.05-0.03-0.09-0.06-0.14-0.09c-0.3-0.16-0.61-0.3-0.94-0.44l0,0
	l0,0c-0.02-0.01-0.03-0.01-0.05-0.02l-0.19-0.07c-0.02-0.01-0.05-0.02-0.08-0.03c-0.05-0.02-0.1-0.04-0.15-0.06
	c-0.2-0.07-0.41-0.13-0.62-0.19c-0.13-0.04-0.24-0.08-0.37-0.12c-0.06-0.01-0.12-0.03-0.17-0.04c-0.21-0.05-0.44-0.09-0.66-0.13
	c-0.16-0.03-0.31-0.07-0.48-0.1c0.02-0.02,0.04-0.03,0.07-0.05c0.63-0.42,4.98-3.73,2.59-11.22c-0.23-0.72-0.5-1.47-0.87-2.27
	c-0.22-0.48-0.45-0.93-0.68-1.37c-0.06-0.11-0.12-0.25-0.18-0.36c-0.1-0.19-0.22-0.35-0.32-0.53c-0.2-0.33-0.39-0.68-0.59-0.98
	c-1.8-2.71-3.9-4.27-6.3-4.93c-0.1-0.03-0.19-0.07-0.3-0.09c-1.64-0.4-3.42-0.37-5.34-0.01c-0.08-0.38-0.16-0.75-0.25-1.12
	c1.35-0.3,2.57-0.75,3.47-1.52c0.51-0.44,0.82-1.06,1.04-1.7c0.98-2.85,0.19-6.82-1.11-9.9c-0.35-0.82-0.73-1.58-1.12-2.23
	c-0.58-0.97-1.26-1.88-1.94-2.79c-1.59-2.12-3.25-3.75-5.26-4.92c-0.7-3.43-1.34-6.65-1.9-9.6c-0.47-2.44-0.88-4.71-1.24-6.77
	c-6.66-38.48-32.58-217.59-32.58-217.59l-69.54,10.39l-13.28,1.98c0,0,29.43,158.59,46.61,232.95
	c-6.84,6.28-12.24,14.11-15.62,22.76c-2.43,6.21-3.84,12.8-5.84,19.16c-4.67,5.64-9.79,12.22-14.98,19.65
	c-0.01,0.02-0.02,0.03-0.02,0.04c-8.11,12.08-14.12,15.49-21.59,17.54c-3.63,1-21.38,3.7-41.81,6.53c-1.46-3.05-3.22-5.55-5.61-7.35
	c-1.49-1.12-3.22-1.97-5.27-2.52c-0.8-0.21-1.56-0.38-2.28-0.52c-10.9-1.99-14.18,4.58-14.18,4.58c-0.02-0.01-18.09-8.87-26.13,1.84
	l0,0l0,0c-0.06,0.08-0.11,0.16-0.17,0.24c-0.06,0.08-0.11,0.16-0.17,0.24c-0.13,0.19-0.25,0.4-0.38,0.6
	c-0.08,0.13-0.16,0.25-0.24,0.38c-0.01,0.02-0.02,0.04-0.03,0.06c-0.03,0.06-0.07,0.13-0.1,0.19c-0.21,0.39-0.42,0.79-0.61,1.22
	c-0.01-0.03-0.02-0.06-0.03-0.09c-0.26-0.74-2.19-5.57-9.14-6.31c-1.6-0.17-3.47-0.13-5.65,0.24c-6.23,1.04-9.98,3.41-11.93,6.99
	c0,0,0,0,0,0c0,0,0,0,0,0c-1.48,2.71-1.92,6.11-1.62,10.14c-1.06,0.11-2.12,0.21-3.2,0.32c0.01-0.06,0.02-0.1,0.02-0.1
	s-0.63-6.94-6.63-9.94c-0.01,0-0.01,0-0.01,0c-2.32-1.16-5.43-1.73-9.62-1.07c-7.68,1.19-12.43,6.79-14.67,14.19
	c-5.48,0.54-11.04,1.1-16.65,1.65c-77.19,7.64-163.4,16.02-163.4,16.02l-4.36,81.57c0,0,0.01,0,0.02,0c0.02,0,0.05,0,0.11,0
	c0.02,0,0.04-0.01,0.07,0c0.17,0,0.43-0.02,0.79-0.03c0.11,0,0.24-0.01,0.37-0.02c0.12,0,0.25-0.01,0.39-0.01
	c0.25-0.02,0.53-0.03,0.82-0.04c0.1,0,0.19,0,0.29-0.01c1.9-0.08,4.72-0.21,8.34-0.39c0.29-0.01,0.58-0.03,0.88-0.04
	c0.99-0.05,2.03-0.1,3.11-0.16c0.42-0.02,0.85-0.05,1.29-0.07c2.46-0.13,5.16-0.27,8.08-0.43c0.26-0.01,0.53-0.03,0.8-0.04
	c0.64-0.03,1.3-0.07,1.96-0.11c0.42-0.02,0.85-0.05,1.28-0.07c0.44-0.03,0.88-0.06,1.32-0.08c0.88-0.05,1.78-0.11,2.69-0.15
	c5.51-0.32,11.59-0.7,18.15-1.14c0.71-0.04,1.43-0.09,2.15-0.14c4.24-0.28,8.66-0.58,13.24-0.91c0.88-0.06,1.76-0.13,2.65-0.19
	c0.79-0.06,1.58-0.12,2.39-0.18c0.76-0.05,1.51-0.11,2.28-0.17c0.05,0,0.09-0.01,0.14-0.01c1.19-0.09,2.4-0.18,3.61-0.27
	c14.48-1.11,30.25-2.44,46.61-4.04c1.25-0.12,2.51-0.24,3.77-0.37c7.32-0.73,14.76-1.51,22.23-2.34c1.46-0.16,2.92-0.33,4.39-0.5
	c0.12-0.02,0.24-0.03,0.36-0.04c1.89-0.22,3.79-0.43,5.69-0.65c5.55-0.66,11.1-1.35,16.64-2.07c2.18,3.93,6.37,8.92,14.36,14.42
	c14.23,9.8,32.81,26.78,47.04,36.17c0.31,0.38,0.61,0.74,0.93,1.12c0.02,0.01,0.03,0.03,0.04,0.05
	c11.24,12.88,13.28,20.75,13.33,29.86c0.02,3.25-1.24,15.42-3.1,31.17c-3.39,0.57-6.25,1.56-8.53,3.42c0,0,0,0,0,0c0,0,0,0,0,0
	c-0.93,0.76-1.77,1.67-2.5,2.76c-0.02,0.03-0.03,0.06-0.05,0.08c-0.22,0.34-0.44,0.69-0.65,1.06c-5.47,9.97,0.03,14.63,0.03,14.63
	l0,0l0,0l0,0c0,0-0.02,0.02-0.05,0.06c0,0,0,0-0.01,0.01c0,0.01-0.01,0.02-0.03,0.03c-0.03,0.04-0.08,0.1-0.13,0.16
	c-0.08,0.11-0.18,0.24-0.3,0.4c-0.08,0.11-0.16,0.23-0.26,0.35c-0.04,0.06-0.08,0.12-0.13,0.18c-0.1,0.13-0.2,0.27-0.3,0.43
	c-0.01,0.02-0.03,0.03-0.04,0.06c-0.06,0.09-0.14,0.2-0.2,0.3c-0.11,0.17-0.23,0.34-0.35,0.53c-0.06,0.09-0.11,0.17-0.17,0.26
	c-0.06,0.1-0.13,0.2-0.2,0.31c-0.06,0.09-0.12,0.19-0.19,0.29c-0.03,0.05-0.06,0.1-0.09,0.16c-0.02,0.03-0.04,0.07-0.06,0.1
	c-0.14,0.24-0.29,0.49-0.44,0.75c-0.05,0.08-0.1,0.17-0.14,0.25c-0.17,0.3-0.34,0.61-0.51,0.94c-0.04,0.08-0.08,0.16-0.12,0.24
	c-0.16,0.32-0.32,0.64-0.47,0.97c-0.02,0.04-0.04,0.07-0.05,0.11c-0.17,0.37-0.34,0.75-0.49,1.14c-0.01,0.03-0.03,0.07-0.04,0.1
	c-0.02,0.02-0.03,0.06-0.04,0.08L103,283.1c-0.08,0.22-0.16,0.45-0.24,0.67c-0.01,0.03-0.02,0.07-0.03,0.1
	c-0.03,0.09-0.06,0.17-0.09,0.26c-0.02,0.07-0.05,0.14-0.07,0.21c-0.04,0.12-0.07,0.24-0.11,0.35c-0.04,0.12-0.08,0.25-0.11,0.37
	c-0.02,0.08-0.05,0.17-0.07,0.25c-0.01,0.03-0.01,0.05-0.02,0.08c-0.03,0.11-0.05,0.23-0.08,0.34c-0.02,0.08-0.04,0.15-0.05,0.23
	c-0.03,0.12-0.06,0.23-0.08,0.34c-0.02,0.07-0.02,0.15-0.04,0.22c-0.06,0.28-0.1,0.55-0.15,0.83c-0.01,0.09-0.04,0.18-0.05,0.28
	c-0.02,0.17-0.04,0.35-0.06,0.53c-0.01,0.12-0.02,0.24-0.03,0.36c-0.04,0.47-0.05,0.94-0.04,1.41c0,0.07-0.01,0.14,0,0.21
	c0,0.09,0.01,0.18,0.02,0.28c0,0.07,0.01,0.14,0.01,0.2c0.01,0.09,0.01,0.18,0.02,0.27c0.01,0.11,0.03,0.22,0.05,0.34
	c0.01,0.11,0.03,0.23,0.05,0.34c0.01,0.07,0.02,0.13,0.03,0.2c0.03,0.15,0.05,0.29,0.08,0.43c0.01,0.04,0.02,0.07,0.03,0.11
	c0.02,0.11,0.06,0.21,0.08,0.32c0.04,0.15,0.07,0.3,0.12,0.45c0.02,0.07,0.04,0.13,0.06,0.2c0,0.01,0.01,0.03,0.01,0.04
	c0.02,0.06,0.04,0.13,0.06,0.2c0.05,0.15,0.12,0.29,0.18,0.44c0.04,0.11,0.09,0.22,0.13,0.33c0.01,0.03,0.02,0.05,0.03,0.08
	c0.04,0.1,0.08,0.2,0.13,0.29c0.03,0.07,0.08,0.13,0.12,0.2c0.15,0.3,0.32,0.6,0.51,0.89c0.05,0.08,0.08,0.15,0.13,0.23
	c0.01,0.02,0.02,0.03,0.04,0.04c0.18,0.27,0.38,0.54,0.59,0.8l0.17,0.2c0.03,0.03,0.05,0.05,0.07,0.08c0.03,0.04,0.06,0.07,0.09,0.1
	c0.23,0.25,0.47,0.51,0.73,0.76c0.05,0.04,0.09,0.09,0.13,0.13c0.24,0.21,0.49,0.43,0.76,0.64c0.05,0.04,0.09,0.08,0.14,0.12
	c-0.03,0-0.05,0-0.08,0.01c-0.03,0-0.09,0.01-0.13,0.02c-0.05,0.01-0.1,0.01-0.17,0.02c-0.06,0.01-0.1,0.02-0.17,0.03
	c-0.17,0.03-0.37,0.08-0.61,0.14c-0.02,0.01-0.04,0.01-0.06,0.02c-0.25,0.07-0.52,0.17-0.82,0.29c-0.02,0.01-0.03,0.01-0.05,0.02
	c-0.3,0.12-0.61,0.28-0.93,0.47c-0.03,0.02-0.05,0.02-0.08,0.04c-0.08,0.05-0.17,0.1-0.25,0.15c-0.03,0.02-0.05,0.03-0.08,0.05
	c-0.04,0.02-0.07,0.05-0.11,0.07c-0.04,0.02-0.07,0.04-0.11,0.07c-0.13,0.09-0.27,0.2-0.41,0.31c-0.01,0.01-0.03,0.03-0.04,0.04
	c-0.07,0.06-0.14,0.12-0.22,0.18c-0.05,0.04-0.1,0.09-0.15,0.13c-0.05,0.04-0.09,0.1-0.14,0.14c-0.14,0.13-0.28,0.27-0.42,0.42
	c-0.1,0.11-0.2,0.22-0.3,0.34c-0.11,0.13-0.22,0.27-0.33,0.41c-0.05,0.07-0.11,0.13-0.16,0.2c-0.07,0.12-0.16,0.24-0.24,0.36
	c-0.01,0.02-0.03,0.04-0.04,0.06c-0.06,0.09-0.11,0.18-0.17,0.27c-0.04,0.07-0.08,0.13-0.12,0.2c-0.03,0.06-0.06,0.13-0.09,0.19
	c-0.15,0.27-0.29,0.55-0.42,0.85c-0.02,0.05-0.05,0.09-0.07,0.15c-0.07,0.16-0.14,0.33-0.2,0.49c-0.01,0.03-0.02,0.07-0.03,0.1
	c-0.06,0.16-0.11,0.33-0.17,0.5c-0.08,0.24-0.16,0.49-0.23,0.75c-0.05,0.19-0.1,0.39-0.15,0.6c-0.06,0.27-0.12,0.56-0.17,0.85
	c-0.04,0.21-0.08,0.41-0.11,0.63c-0.06,0.4-0.11,0.83-0.15,1.27c-0.01,0.11-0.03,0.21-0.04,0.33c0,0.05,0,0.1-0.01,0.16
	c-0.02,0.28-0.04,0.55-0.05,0.82c-0.01,0.14,0,0.26,0,0.39c-0.01,0.39-0.01,0.77,0,1.14c0.01,0.28,0.02,0.55,0.03,0.82
	c0.02,0.32,0.05,0.63,0.08,0.93c0.02,0.16,0.02,0.34,0.05,0.5c0.03,0.19,0.06,0.39,0.1,0.58c0,0,0,0,0,0
	c0.1,0.52,0.22,1.02,0.36,1.49c0.07,0.22,0.15,0.42,0.23,0.63c0.1,0.28,0.2,0.56,0.32,0.82c0.01,0.02,0.01,0.04,0.02,0.06
	c0.08,0.17,0.16,0.33,0.24,0.49c0.1,0.19,0.21,0.37,0.32,0.54c0.01,0.02,0.03,0.05,0.04,0.07c0,0.01,0.01,0.01,0.01,0.02
	c0.1,0.16,0.19,0.31,0.3,0.45c0.1,0.14,0.2,0.27,0.3,0.4c0.03,0.04,0.07,0.08,0.1,0.12c0.03,0.04,0.06,0.08,0.09,0.11
	c0,0.01,0.01,0.01,0.01,0.02c0.13,0.16,0.26,0.3,0.4,0.44c0.15,0.15,0.29,0.3,0.45,0.45c2.07,1.89,5.04,2.97,8.74,3.53
	c-0.09,0.6-0.17,1.2-0.26,1.79c-2.67-1.18-5.55-2.41-7.89-1.93c-0.67,0.15-1.25,0.54-1.76,1c-2.26,2.05-3.49,5.96-3.84,9.34
	c-0.1,0.9-0.12,1.76-0.09,2.53c0.03,1.14,0.2,2.28,0.36,3.42c0.75,5.51,4.22,9.51,8.96,12.44c-1.12,6.59-2.24,13.08-3.38,19.43
	c-13.97,77.94-29.06,136.2-29.06,136.2L164.49,539l0,0l0,0l0,0c0,0,6.29-17.16,13.58-45.73c0.02-0.08,0.04-0.17,0.06-0.25
	c0.24-0.95,0.49-1.92,0.73-2.89c0.03-0.13,0.07-0.26,0.1-0.39c0.24-0.95,0.47-1.91,0.71-2.88c0.03-0.14,0.07-0.28,0.1-0.42
	c0.24-0.97,0.48-1.96,0.72-2.96c0.03-0.14,0.07-0.28,0.1-0.43c0.24-1.02,0.49-2.04,0.73-3.08c0.03-0.12,0.06-0.24,0.08-0.36
	c0.26-1.11,0.52-2.22,0.78-3.36c0.01-0.05,0.02-0.1,0.04-0.16c1.1-4.82,2.21-9.87,3.3-15.12c0.01-0.05,0.02-0.11,0.03-0.16
	c0.25-1.22,0.5-2.45,0.76-3.7c0.04-0.22,0.09-0.44,0.13-0.67c0.22-1.08,0.43-2.16,0.64-3.25c0.06-0.32,0.13-0.65,0.19-0.97
	c0.2-1.01,0.39-2.02,0.58-3.04c0.07-0.37,0.14-0.74,0.21-1.11c0.19-0.99,0.37-1.99,0.56-2.99c0.07-0.39,0.14-0.79,0.22-1.18
	c0.18-0.99,0.36-1.99,0.54-2.99c0.07-0.41,0.15-0.82,0.22-1.23c0.18-1.01,0.35-2.02,0.53-3.04c0.07-0.41,0.14-0.82,0.21-1.23
	c0.18-1.04,0.35-2.08,0.53-3.13c0.07-0.4,0.13-0.79,0.2-1.19c0.18-1.13,0.37-2.26,0.55-3.4c0.05-0.32,0.1-0.64,0.15-0.96
	c0.22-1.37,0.43-2.76,0.64-4.15c0.01-0.09,0.03-0.18,0.04-0.27c0.46-3.01,0.9-6.06,1.33-9.15c0.04-0.31,0.09-0.63,0.13-0.95
	c0.16-1.2,0.33-2.4,0.49-3.62c0.06-0.48,0.12-0.96,0.19-1.44c0.14-1.05,0.27-2.1,0.4-3.16c0.07-0.56,0.14-1.13,0.21-1.7
	c0.12-0.99,0.24-1.97,0.36-2.97c0.07-0.61,0.14-1.23,0.21-1.85c0.11-0.96,0.22-1.91,0.33-2.88c0.07-0.64,0.14-1.28,0.21-1.93
	c0.1-0.95,0.2-1.91,0.3-2.87c0.07-0.65,0.13-1.3,0.2-1.96c0.1-0.96,0.19-1.91,0.28-2.87c0.06-0.67,0.13-1.34,0.19-2.01
	c0.09-0.96,0.18-1.92,0.26-2.88c0.06-0.67,0.12-1.35,0.18-2.02c0.08-0.98,0.17-1.97,0.25-2.96c0.05-0.66,0.11-1.32,0.16-1.99
	c0.08-1.05,0.16-2.11,0.24-3.17c0.04-0.6,0.09-1.19,0.13-1.79c0.01-0.15,0.02-0.3,0.03-0.46c5.2-7.17,9.11-15.58,13.8-23.16
	c5.76-2.38,12-5.15,18.55-8.39l0.05-0.02c13.11-6.78,20.11-6.88,27.76-5.05c4.54,1.09,29.07,10.21,53.64,19.73
	c-0.29,2.64-0.16,5.06,0.64,7.31c0.55,1.54,1.4,3,2.64,4.39c0.71,0.8,1.4,1.46,2.08,2.06c6.7,5.9,11.92,2.92,11.93,2.91
	c0.01,0.02,8.95,15.21,20.01,11.26c0,0,0,0,0,0v0c0.08-0.03,0.16-0.06,0.24-0.09c0.08-0.03,0.16-0.06,0.24-0.09
	c0.19-0.08,0.37-0.17,0.56-0.26c0.12-0.06,0.24-0.1,0.36-0.16c0.02-0.01,0.03-0.01,0.05-0.02c0.06-0.03,0.11-0.06,0.17-0.09
	c0.34-0.18,0.69-0.37,1.04-0.6c-0.01,0.03-0.02,0.05-0.02,0.08c-0.17,0.67-1.08,5.13,3.64,9.03c1.09,0.9,2.48,1.77,4.25,2.55
	c5.06,2.25,8.95,2.32,12.1,0.65c0,0,0,0,0,0c0,0,0,0,0,0c3.12-1.66,5.52-5.03,7.61-9.7c0.19-0.43,0.39-0.89,0.6-1.35
	c1.15,0.49,2.32,0.99,3.49,1.49c-1.38,2.49-3.19,4.31-3.19,4.31s-0.95,1.79-1.2,4.28c-0.18,1.83,0.01,4.03,1.26,6.19c0,0,0,0,0,0
	c0,0,0,0,0,0.01c1.14,1.96,3.14,3.88,6.52,5.42c9.02,4.11,17.27-1.27,23.22-8.86c4.78,2.04,9.62,4.1,14.5,6.19
	c0.22,0.09,0.45,0.19,0.67,0.29c72.34,30.91,153.07,65.56,153.07,65.56l43.72-70.38C622.52,393.19,622.52,393.18,622.5,393.17z
	 M480.76,163.33c-0.59-0.47-1.17-0.95-1.76-1.42C479.58,162.38,480.17,162.86,480.76,163.33z M467.25,121.55
	c-1.19-0.73-2.42-1.75-3.59-2.86l0,0C464.84,119.8,466.06,120.82,467.25,121.55c2.72,1.67,8.27,3.96,14.54,6.98
	C475.52,125.52,469.97,123.22,467.25,121.55z M391.96,187.08c-0.4-0.26-0.79-0.52-1.19-0.78
	C391.17,186.55,391.56,186.81,391.96,187.08z M482.51,164.75c0.58,0.47,1.15,0.94,1.71,1.4
	C483.66,165.69,483.09,165.22,482.51,164.75z M484.7,162.83c0.42,0.24,0.8,0.47,1.16,0.67c0.71,0.41,1.28,0.74,1.66,0.97
	c0.2,0.12,0.4,0.25,0.59,0.38c-0.19-0.13-0.39-0.26-0.59-0.38c-0.38-0.23-0.95-0.56-1.66-0.97
	C485.51,163.29,485.12,163.07,484.7,162.83z M500.33,139.61c0.03,0.03,0.06,0.05,0.09,0.08
	C500.39,139.66,500.36,139.63,500.33,139.61z M502.39,141.44c0.05,0.05,0.1,0.1,0.15,0.15
	C502.49,141.54,502.44,141.49,502.39,141.44z M504.33,143.41c0.05,0.05,0.1,0.1,0.14,0.16
	C504.42,143.52,504.38,143.47,504.33,143.41z M506.13,145.53c0.03,0.03,0.05,0.07,0.08,0.1
	C506.19,145.59,506.16,145.56,506.13,145.53z M197.95,108.06c0.81-0.21,1.6-0.41,2.37-0.62c2.31-0.6,4.48-1.16,6.49-1.68
	c0.67-0.17,1.33-0.34,1.98-0.51c1.6-0.41,3.12-0.8,4.55-1.16c0.56-0.15,1.12-0.28,1.66-0.42c0.54-0.13,1.07-0.27,1.59-0.41
	c2.07-0.53,3.94-1,5.63-1.43c0.43-0.1,0.84-0.21,1.24-0.31c2.15-0.54,4.03-1.01,5.7-1.44c0.34-0.08,0.66-0.16,0.98-0.25
	c8.33-2.12,11.85-3.1,22.29-6.37c24.18-7.59,33.37-6.64,50.28-14.17c1.81-0.81,3.73-1.74,5.73-2.76
	c14.73,36.48,30.07,61.25,45.97,79.15c0.2,0.24,0.42,0.47,0.63,0.7c0.05,0.06,0.11,0.12,0.15,0.17
	c9.52,10.58,19.25,18.72,29.15,25.49c0.85,0.59,1.74,1.19,2.66,1.8c0.04,0.03,0.09,0.06,0.13,0.09l0,0
	c1.16,0.77,2.37,1.55,3.62,2.37c-15.87,23.49-15.81,22.84-24.82,37.82c-13.45,22.38-21.19,27.93-29.08,45.3
	c-1.25,2.75-2.5,5.87-3.73,9.22c-0.21,0.58-0.42,1.18-0.63,1.77c-3.86-0.95-7.46-1.85-10.82-2.7c-0.82-0.2-1.63-0.41-2.42-0.62
	c-3.91-0.98-7.48-1.88-10.76-2.71c-0.82-0.21-1.62-0.42-2.41-0.61c-2.35-0.6-4.54-1.15-6.59-1.68c-0.68-0.17-1.36-0.35-2-0.51
	c-1.63-0.42-3.17-0.82-4.61-1.19c-0.57-0.14-1.14-0.3-1.69-0.43c-0.55-0.14-1.09-0.29-1.61-0.42c-2.1-0.54-3.98-1.04-5.71-1.48
	c-0.43-0.12-0.85-0.22-1.25-0.33c-2.18-0.57-4.07-1.06-5.77-1.5c-0.34-0.09-0.67-0.18-0.99-0.26c-8.44-2.19-12.04-3.03-22.93-5.22
	c-25.2-5.07-32.91-10.4-51.62-11.96c-0.27-0.02-0.55-0.04-0.83-0.06c0.37-33.94,0.74-32.95-0.1-53.19
	c-1.25-29.77,2.63-39.92-0.76-61.42c-0.54-3.4-1.31-7.16-2.24-11.13c-1.03-4.4-2.27-9.08-3.62-13.83
	C195.2,108.77,196.61,108.41,197.95,108.06z M488.8,170.03c-0.89-0.77-1.88-1.62-2.94-2.51
	C486.92,168.41,487.92,169.26,488.8,170.03c0.43,0.37,0.84,0.75,1.23,1.12C489.64,170.78,489.23,170.41,488.8,170.03z
	 M492.93,170.44c0,0-0.85-1.59-2.27-3.24C492.08,168.85,492.93,170.44,492.93,170.44C492.93,170.44,492.94,170.44,492.93,170.44
	C492.93,170.44,492.93,170.44,492.93,170.44z M510.27,152.28C510.27,152.28,510.27,152.28,510.27,152.28
	C510.27,152.28,510.27,152.28,510.27,152.28z"/>
<g>
	<path class="st1" d="M406.54,246.57c1.16,1.79,2.49,3.46,3.72,5.2c4.64,6.52,7.96,13.87,11.25,21.16c1.25,2.76,2.51,5.84,1.6,8.72
		c-8.3-1.86-16.46-4.35-24.38-7.45c0.95-5.81,1.18-11.73,0.68-17.6c-0.64-7.53-2.35-15.66,1.39-22.23
		C402.44,238.57,404.1,242.79,406.54,246.57z"/>
	<path class="st2" d="M406.54,246.57c1.16,1.79,2.49,3.46,3.72,5.2c4.64,6.52,7.96,13.87,11.25,21.16c1.25,2.76,2.51,5.84,1.6,8.72
		c-8.3-1.86-16.46-4.35-24.38-7.45c0.95-5.81,1.18-11.73,0.68-17.6c-0.64-7.53-2.35-15.66,1.39-22.23
		C402.44,238.57,404.1,242.79,406.54,246.57z"/>
	<path class="st3" d="M221.5,318.51c1.65-11.46,3.29-22.93,4.94-34.39c7.77-2.8,16.12-3.97,24.36-3.43
		C237.09,289.15,234.39,308.84,221.5,318.51z"/>
	<path class="st4" d="M221.5,318.51c1.65-11.46,3.29-22.93,4.94-34.39c7.77-2.8,16.12-3.97,24.36-3.43
		C237.09,289.15,234.39,308.84,221.5,318.51z"/>
	<path class="st5" d="M442.82,106.29c0,0-2.83-5.79-16.97-4.54c-14.14,1.24-36.98-0.55-44.9,3.19l45.59,22.01L442.82,106.29z"/>
	<path class="st3" d="M291.54,13.93c-7.29,3.01-13.16,8.61-18.84,14.08c-2.26,2.18-4.52,4.36-6.78,6.53
		c3.42-6.83,4.44-14.59,7.22-21.7c2.78-7.12,7.33-13.53,13.13-18.5C286.8,1.12,288.6,7.8,291.54,13.93z"/>
	<g>
		<path class="st5" d="M370,110.32c11.55-10.84,27.45-6.17,42.1-1.73c8.85,2.68,14.26,4.95,14.55,5.07c0,0,0.76,1.09,1.93,2.52
			c1.61,1.98,3.99,4.62,6.23,5.99c3.87,2.37,15.17,6.38,23.69,12.55c8.52,6.17,14.25,16.8,8.03,23.8c-1.73,1.95-3.43,2.9-4.99,3.26
			c-4.02,0.93-7.04-2.12-7.04-2.12s-1.66-3.12-4.15-4.58c-2.35-1.38-13.88-8.03-15.13-8.74c-0.05-0.03-0.08-0.05-0.1-0.07
			c0,0,10.77,8.32,16.21,13.07c2.71,2.37,4.48,4.67,4.95,7.11c0.48,2.46-0.37,5.05-2.92,7.99c-4.75,5.47-8.89,3.23-9.4,2.92
			c-0.02-0.01-0.03-0.02-0.05-0.03c0.2,0.72,0.31,1.4,0.33,2.05c0.38,8.24-11.67,11.12-11.67,11.12s1.16,5.01-6.22,8.38
			c-1.19,0.54-2.34,0.82-3.49,0.87c-4.97,0.23-9.72-3.76-16.42-8.1c-9.82-6.37-19.6-12.81-29.38-19.23
			c-9.64-6.33-15.73-9.62-17.86-22.42c-0.51-3.09-0.64-6.23-0.56-9.35c0.21-9.06,2.18-18.33,7.4-25.73
			C367.29,113.14,368.61,111.62,370,110.32z"/>
		<path class="st6" d="M435.13,146.28c17.09,7.75,18.74,9.57,22.4,12.93c1.48,1.36,2.87,2.13,4.01,2.56
			c-4.02,0.93-7.04-2.12-7.04-2.12s-1.66-3.12-4.15-4.58c-2.35-1.38-13.88-8.03-15.13-8.74
			C435.18,146.31,435.15,146.29,435.13,146.28z"/>
		<path class="st6" d="M404.31,174.17c6.03,1.19,11.83,6.12,18.67,11.4c6.84,5.28,9.59,4.93,9.59,4.93s1.16,5.01-6.22,8.38
			c-1.19,0.54-2.34,0.82-3.49,0.87c10.87-7.23,5.88-8.06-2.5-14.79C411.82,178.11,404.53,174.29,404.31,174.17z"/>
		<path class="st6" d="M418.79,161.24c0,0,19.37,14.5,21.69,17.28c2.32,2.78-0.32,7.23-7.91,11.98c0,0,12.05-2.89,11.67-11.12
			l0.01,0.01c0-0.06-0.01-0.12-0.01-0.18c0-0.06-0.01-0.12-0.01-0.18c-0.02-0.24-0.05-0.49-0.1-0.74c-0.01-0.04-0.02-0.09-0.02-0.13
			c-0.05-0.27-0.11-0.54-0.19-0.82c0.02,0.01,0.03,0.02,0.05,0.03c0.51,0.31,4.65,2.56,9.4-2.92c2.55-2.94,3.4-5.53,2.92-7.99
			c-0.39,1.86-1.58,4.55-4.97,7.04c-3.34,2.45-7.16,2.56-9.91,2.18C434.72,171.32,418.79,161.24,418.79,161.24z"/>
		<path class="st6" d="M412.1,108.58c8.85,2.68,14.26,4.95,14.54,5.06c0.01,0,0.01,0,0.01,0.01c0,0,0.76,1.09,1.93,2.52
			C419.91,113.32,414.92,110.6,412.1,108.58z"/>
	</g>
	<path class="st5" d="M373.35,169.99c-8.33-5.47-16.51-12.11-24.5-20.99c-0.04-0.04-0.08-0.09-0.12-0.13
		c-0.16-0.18-0.32-0.36-0.48-0.54c-15.34-17.28-30.02-42.89-43.93-84.28c-2.89-8.59-5.66-17.6-8.29-26.75
		c-2.78-9.68-5.41-19.52-7.87-29.2c-12.35-48.82-38.8-191.38-38.8-191.38l10.18-1.52l53.33-7.97c0,0,19.88,137.37,24.99,166.89
		c0.27,1.58,0.59,3.32,0.95,5.19c1.81,9.5,4.63,22.52,7.72,36.24c7.38,32.74,16.35,69.53,17.07,72.49c0.03,0.13,0.05,0.19,0.05,0.19
		c0.63,0.5,1.29,1.04,1.97,1.61c3.77,3.16,7.9,7.01,7.9,7.01c0.13,0.05,0.27,0.1,0.41,0.14l0.01,0c0.5,0.18,1.01,0.35,1.54,0.51
		c12.98,4.11,32,4.8,32.97,4.79C409.48,102.3,373.35,169.99,373.35,169.99z"/>
	<path class="st6" d="M348.26,148.33c-15.34-17.28-30.02-42.89-43.93-84.28c-2.89-8.59-5.66-17.6-8.29-26.75
		c-2.78-9.68-5.41-19.52-7.87-29.2c-12.35-48.82-38.8-191.38-38.8-191.38l10.18-1.52c5.4,26.67,40.25,203.54,47.17,228.3
		C315.03,73.2,327.92,125.22,348.26,148.33z"/>
	<path class="st6" d="M346.55,15.55c-4.38,3.53-10.33,5.55-15.77,7.55c-7.84,2.89-15.45,6.44-22.7,10.6
		c-3.72,2.13-7.94,4.51-12.04,3.6c-2.78-9.68-5.41-19.52-7.87-29.2c2.44-1.48,4.64-3.51,6.5-5.69c3.54-4.15,6.26-8.97,9.94-13
		c5.43-5.94,12.93-9.96,20.89-11.19c4.44-0.69,9.17-0.45,13.33,1.09C340.64-11.19,343.45,1.83,346.55,15.55z"/>
	<path class="st7" d="M110.85,129.39c0,0-1.88,7.81,12.69,17.83c14.57,10.03,35.08,29.89,45.67,32.58l-26.32-57.34L110.85,129.39z"
		/>
	<g>
		<path class="st3" d="M365.73,52.11c-1.96,4.89-7.91,7.72-15.04,12.27c-7.39,4.71-22.97,15.37-35.45,22.07
			c-2.34,1.26-4.58,2.37-6.64,3.29c-12.97,5.77-20.02,5.05-38.57,10.87c-8.01,2.51-10.71,3.26-17.1,4.89
			c-0.25,0.06-0.5,0.12-0.75,0.19c-1.28,0.33-2.72,0.69-4.37,1.11c-0.31,0.08-0.63,0.16-0.95,0.24c-1.3,0.33-2.73,0.69-4.32,1.1
			c-0.4,0.1-0.81,0.21-1.22,0.31c-0.41,0.11-0.84,0.21-1.28,0.33c-1.09,0.28-2.26,0.58-3.49,0.89c-0.5,0.13-1,0.26-1.52,0.39
			c-1.55,0.4-3.2,0.83-4.98,1.29c-0.59,0.16-1.2,0.31-1.82,0.47c-2.48,0.64-5.18,1.34-8.12,2.12c-0.6,0.15-1.21,0.31-1.83,0.48
			c-2.62,0.69-5.43,1.43-8.46,2.23c-0.21,0.05-0.43,0.11-0.64,0.17c-0.58,0.16-1.18,0.32-1.78,0.47c-0.41,0.1-0.83,0.21-1.25,0.33
			c-1.67,0.44-3.4,0.9-5.19,1.37c-2.55,0.68-5.22,1.39-8.02,2.13c-0.51,0.14-1.03,0.27-1.55,0.41c-1.14,0.3-2.3,0.61-3.49,0.93
			c-0.67,0.18-1.33,0.36-2.01,0.53c-0.49,0.13-0.99,0.26-1.48,0.38c-1.18,0.3-2.37,0.6-3.58,0.89c-0.6,0.15-1.21,0.29-1.82,0.44
			c-1.23,0.29-2.46,0.57-3.71,0.86c-0.62,0.14-1.25,0.28-1.88,0.42c-0.63,0.14-1.26,0.28-1.9,0.42c-0.64,0.14-1.27,0.27-1.92,0.41
			c-11.57,2.46-24.1,4.64-37.03,6.58c-0.72,0.11-1.44,0.22-2.16,0.32c-0.56,0.09-1.12,0.17-1.69,0.25
			c-2.22,0.32-4.44,0.64-6.67,0.95c-0.56,0.08-1.12,0.15-1.68,0.23c-6.84,0.93-13.75,1.8-20.64,2.62c-1.45,0.17-2.91,0.33-4.36,0.5
			c-0.09,0.01-0.18,0.02-0.27,0.03c-1.12,0.13-2.25,0.26-3.37,0.38c-5.73,0.63-11.43,1.23-17.05,1.79c-0.97,0.1-1.93,0.19-2.89,0.28
			c-12.55,1.22-24.64,2.25-35.75,3.1c-0.93,0.07-1.86,0.14-2.77,0.21c-0.04,0-0.07,0.01-0.11,0.01c-0.59,0.04-1.17,0.09-1.75,0.13
			c-0.62,0.04-1.23,0.09-1.83,0.14c-0.68,0.05-1.36,0.1-2.03,0.15c-3.51,0.25-6.91,0.49-10.16,0.7c-0.55,0.04-1.1,0.07-1.65,0.11
			c-5.03,0.33-9.69,0.62-13.92,0.87c-0.7,0.03-1.39,0.08-2.06,0.12c-0.34,0.02-0.68,0.04-1.01,0.06c-0.33,0.02-0.66,0.04-0.99,0.05
			c-0.5,0.03-1.01,0.06-1.5,0.08c-0.21,0.01-0.41,0.02-0.61,0.03c-2.24,0.13-4.31,0.23-6.2,0.33c-0.34,0.02-0.66,0.04-0.99,0.05
			c-0.84,0.04-1.63,0.08-2.39,0.12c-0.23,0.01-0.46,0.02-0.67,0.03c-2.78,0.13-4.94,0.23-6.4,0.3c-0.08,0.01-0.15,0.01-0.22,0.01
			c-0.23,0.01-0.44,0.02-0.63,0.03c-0.1,0-0.21,0.01-0.3,0.01c-0.1,0.01-0.2,0.01-0.28,0.01c-0.27,0.01-0.47,0.02-0.6,0.03
			c-0.02,0-0.04,0-0.05,0c-0.04,0-0.07,0-0.08,0c-0.01,0-0.02,0-0.02,0l3.35-62.56c0,0,66.12-6.43,125.32-12.29
			c20.82-2.06,40.8-4.05,56.73-5.67c6.97-0.71,17.27-1.96,28.15-3.37c22.01-2.86,46.36-6.38,50.2-7.44
			c5.73-1.57,10.34-4.19,16.56-13.45c0-0.01,0.01-0.02,0.02-0.03c5.69-8.15,11.29-15,15.91-20.26c0.61-0.69,1.2-1.35,1.77-1.98
			c0.38-0.42,0.75-0.83,1.12-1.23c0.67-0.72,1.3-1.4,1.89-2.03c0.23-0.24,0.45-0.48,0.66-0.7c0.02-0.02,0.03-0.03,0.05-0.05
			c0.45-0.47,0.87-0.91,1.27-1.32c0.01-0.01,0.02-0.02,0.03-0.03c0.14-0.15,0.28-0.29,0.41-0.42c0.83-0.86,1.55-1.57,2.15-2.16
			c0.14-0.14,0.27-0.27,0.4-0.39c0.04-0.04,0.08-0.08,0.11-0.11c0.08-0.08,0.17-0.16,0.24-0.24c0.39-0.37,0.69-0.66,0.89-0.84
			c0.04-0.04,0.08-0.07,0.11-0.1c0.1-0.09,0.16-0.14,0.18-0.16c0.01,0,0.01,0,0.01-0.01c0,0,1.38-0.26,3.28-0.75
			c2.62-0.68,6.21-1.82,8.52-3.37c4-2.69,12.83-11.83,22.53-17.32c5.23-2.97,11.79-4.98,17.83-3.81c3.51,0.68,5.7,2.37,7.78,5.14
			c0.52,0.7,1.04,1.39,1.48,2.14c0.3,0.5,0.6,1.08,0.86,1.71c1,2.36,1.6,5.41,0.85,7.59c-0.17,0.49-0.41,0.97-0.8,1.3
			c-2.11,1.8-6.52,1.38-9.11,2.01c-3.46,0.84-6.28,3.17-9.12,5.19c-2.82,2.01-5.65,4.02-8.47,6.04l-0.06,0.04
			c-0.05,0.04-0.1,0.07-0.14,0.1c-0.05,0.03-0.09,0.06-0.14,0.1c-0.01,0-0.01,0.01-0.01,0.01c-0.01,0-0.01,0-0.01,0s0,0-0.01,0
			c0,0.01-0.01,0.01-0.01,0.01l-0.01,0c-0.02,0.01-0.04,0.02-0.04,0.03c0.01-0.01,0.03-0.02,0.05-0.03c0.02,0,0.03-0.01,0.04-0.02
			c0,0,0.01,0,0.01,0l0.02-0.01c0.3-0.15,1.02-0.53,2.03-1.06c3.95-2.06,12.36-6.39,17.56-8.73c3.48-1.57,6.47-2.26,9.03-1.64
			c2.58,0.63,4.71,2.59,6.42,6.34c3.19,6.99-0.8,9.99-1.32,10.35c-0.02,0.01-0.04,0.02-0.05,0.04c0.3,0.05,0.59,0.11,0.87,0.18
			c0.04,0.01,0.09,0.02,0.13,0.03c0.26,0.07,0.52,0.15,0.76,0.24c0.06,0.02,0.12,0.04,0.18,0.06l0.18,0.07
			c0.25,0.1,0.49,0.21,0.72,0.33c0.36,0.18,0.68,0.38,0.99,0.6c1.23,0.86,2.12,2.01,2.75,3.29c0.11,0.21,0.2,0.43,0.3,0.64
			c0.05,0.12,0.1,0.25,0.15,0.37c0.12,0.31,0.23,0.64,0.33,0.97c0.07,0.22,0.13,0.46,0.19,0.68c0.11,0.46,0.2,0.93,0.28,1.39
			c0.04,0.23,0.07,0.46,0.1,0.68c0.18,1.48,0.19,2.91,0.13,4.11c-0.01,0.18-0.02,0.35-0.03,0.52c-0.02,0.3-0.05,0.59-0.07,0.86
			c0,0.07-0.01,0.15-0.02,0.22c-0.01,0.1-0.02,0.19-0.03,0.28c-0.01,0.11-0.02,0.21-0.03,0.3c-0.01,0.02-0.01,0.03-0.01,0.05
			c-0.02,0.11-0.03,0.21-0.05,0.3c-0.01,0.04-0.01,0.08-0.02,0.13c-0.01,0.08-0.02,0.15-0.03,0.21c-0.03,0.14-0.04,0.22-0.04,0.22
			s5.34,1.08,5.35,9.68C366.43,49.75,366.19,50.99,365.73,52.11z"/>
		<path class="st4" d="M346.66-5.7c-0.27,1.41-0.68,2.81-1.61,3.88c-0.76,0.87-1.79,1.45-2.8,2.01c-2.18,1.21-4.39,2.37-6.51,3.68
			c-5.81,3.62-10.99,8.35-16.14,12.83c-0.18,0.07-0.29,0.28-0.21,0.46c0.79-0.52,1.57-1.04,2.35-1.56
			c-1.02,0.53-1.74,0.91-2.03,1.06l-0.02,0.01c-0.01,0-0.01,0-0.01,0c-0.01,0-0.01,0-0.02,0c-0.01,0-0.01,0.01-0.02,0.01l-0.01,0
			c0.01,0,0.01-0.01,0.02-0.01s0.01,0,0.01,0s0-0.01,0.01-0.01c0.04-0.03,0.09-0.06,0.14-0.1c0.04-0.03,0.09-0.06,0.14-0.1
			l0.06-0.04c2.82-2.02,5.65-4.03,8.47-6.04c2.84-2.02,5.66-4.36,9.12-5.19c2.59-0.63,7.01-0.21,9.11-2.01
			c0.39-0.34,0.63-0.82,0.8-1.3C348.26-0.29,347.66-3.34,346.66-5.7z"/>
		<path class="st4" d="M332.9,58.74c3.8-5.29,11.11-8.71,19.21-12.98c8.1-4.27,8.97-7.08,8.97-7.08s5.34,1.09,5.35,9.68
			c0,1.39-0.24,2.62-0.7,3.75c-2.19-13.67-5.18-9.22-15.36-4.09C340.01,53.23,333.12,58.58,332.9,58.74z"/>
		<path class="st4" d="M326.81,39.08c0,0,22.51-12.3,26.21-13.31c3.7-1.01,6.83,3.49,8.07,12.9c0,0,2.52-12.89-5.59-16.15l0.01,0
			c-0.06-0.02-0.12-0.04-0.18-0.07c-0.06-0.02-0.12-0.04-0.18-0.07c-0.24-0.09-0.5-0.17-0.76-0.23c-0.04-0.01-0.09-0.02-0.14-0.03
			c-0.28-0.07-0.57-0.13-0.87-0.18c0.02-0.01,0.03-0.02,0.05-0.04c0.52-0.35,4.51-3.35,1.32-10.35c-1.71-3.75-3.84-5.71-6.42-6.34
			c1.62,1.2,3.69,3.52,4.6,7.89c0.9,4.3-0.68,8.04-2.26,10.51C343.55,28.16,326.81,39.08,326.81,39.08z"/>
		<path class="st4" d="M273.08,22.35c6.48-7.36,11.05-11.57,11.28-11.79c0.01,0,0.01,0,0.01-0.01c0,0,1.38-0.26,3.28-0.75
			C281.1,16.91,276.27,20.52,273.08,22.35z"/>
		<path class="st4" d="M315.24,86.45c-2.34,1.26-4.58,2.37-6.64,3.29c-12.97,5.77-20.02,5.05-38.57,10.87
			c-8.01,2.51-10.71,3.26-17.1,4.89c-0.25,0.06-0.5,0.12-0.75,0.19c-1.28,0.33-2.72,0.69-4.37,1.11c-0.31,0.08-0.63,0.16-0.95,0.24
			c-1.3,0.33-2.73,0.69-4.32,1.1c-0.4,0.1-0.8,0.2-1.22,0.31c-0.41,0.11-0.84,0.21-1.28,0.33c-1.09,0.28-2.26,0.58-3.49,0.89
			c-0.49,0.13-1,0.26-1.52,0.39c-1.55,0.4-3.2,0.83-4.98,1.29c-0.59,0.16-1.2,0.31-1.82,0.47c-2.48,0.64-5.18,1.34-8.12,2.12
			c-0.6,0.15-1.21,0.31-1.83,0.48c-2.62,0.69-5.43,1.43-8.46,2.23c-0.21,0.05-0.43,0.11-0.64,0.17c-0.59,0.15-1.18,0.31-1.78,0.47
			c-0.41,0.1-0.83,0.21-1.25,0.33c-1.67,0.44-3.4,0.9-5.19,1.37c-2.55,0.68-5.22,1.39-8.02,2.13c-0.51,0.14-1.03,0.27-1.55,0.41
			c-1.14,0.3-2.3,0.61-3.49,0.93c-0.67,0.18-1.33,0.36-2.01,0.53c-0.49,0.13-0.99,0.26-1.48,0.38c-1.18,0.3-2.37,0.6-3.58,0.89
			c-0.6,0.15-1.21,0.29-1.82,0.44c-1.23,0.29-2.46,0.57-3.71,0.86c-0.62,0.14-1.25,0.28-1.88,0.42c-0.63,0.14-1.26,0.28-1.9,0.42
			c-0.64,0.14-1.27,0.27-1.92,0.41c-11.57,2.46-24.1,4.64-37.03,6.58c-0.72,0.11-1.44,0.22-2.16,0.32
			c-0.56,0.09-1.12,0.17-1.69,0.25c-2.22,0.32-4.44,0.64-6.67,0.95c-0.56,0.08-1.12,0.15-1.68,0.23c-6.84,0.93-13.75,1.8-20.64,2.62
			c-1.45,0.17-2.91,0.33-4.36,0.5c-0.09,0.01-0.18,0.02-0.27,0.03c-1.12,0.13-2.24,0.25-3.37,0.38c-5.73,0.63-11.43,1.23-17.05,1.79
			c-0.97,0.1-1.93,0.19-2.89,0.28c-12.55,1.22-24.64,2.25-35.75,3.1c-0.93,0.07-1.86,0.14-2.77,0.21c-0.04,0-0.07,0.01-0.11,0.01
			c-0.59,0.04-1.17,0.09-1.75,0.13c-0.62,0.04-1.23,0.09-1.83,0.14c-0.68,0.05-1.36,0.1-2.03,0.15c-3.51,0.25-6.91,0.49-10.16,0.7
			c-0.55,0.04-1.1,0.07-1.65,0.11c-5.03,0.33-9.69,0.62-13.92,0.87c-0.7,0.03-1.39,0.08-2.06,0.12c-0.34,0.02-0.68,0.04-1.01,0.06
			c-0.33,0.01-0.66,0.03-0.99,0.05c-0.5,0.03-1.01,0.06-1.5,0.08c-0.21,0.01-0.41,0.02-0.61,0.03c-2.24,0.13-4.31,0.23-6.2,0.33
			c-0.33,0.02-0.66,0.03-0.99,0.05c-0.84,0.04-1.63,0.08-2.39,0.12c-0.23,0.01-0.45,0.02-0.67,0.03c-2.78,0.13-4.94,0.23-6.4,0.3
			c-0.08,0.01-0.15,0.01-0.22,0.01c-0.23,0.01-0.44,0.02-0.63,0.03c-0.1,0-0.21,0.01-0.3,0.01c-0.1,0.01-0.2,0.01-0.28,0.01
			c-0.27,0.01-0.47,0.02-0.6,0.03c-0.02,0-0.04,0-0.05,0c-0.04,0-0.07,0-0.08,0c-0.01,0-0.02,0-0.02,0l1.98-19.2
			c31.4,3.03,92.48-1.87,144.3-7.79c36.54-4.18,68.49-8.87,82.18-11.66c0.52-0.1,1.03-0.21,1.54-0.31
			c34.66-7.08,65.65-13.87,85.83-17.28C300.6,89.85,308.52,88.1,315.24,86.45z"/>
	</g>
	<path class="st4" d="M209.84,116.64c-0.21,0.05-0.43,0.11-0.64,0.17c-0.58,0.16-1.18,0.32-1.78,0.47c-0.41,0.1-0.83,0.21-1.25,0.33
		c-1.67,0.44-3.4,0.9-5.19,1.37c-2.55,0.68-5.22,1.39-8.02,2.13c-0.51,0.14-1.03,0.27-1.55,0.41c-1.14,0.3-2.3,0.61-3.49,0.93
		c-0.67,0.18-1.33,0.36-2.01,0.53c-0.49,0.13-0.99,0.26-1.48,0.38c-1.18,0.3-2.37,0.6-3.58,0.89c-0.6,0.15-1.21,0.29-1.82,0.44
		c-1.23,0.29-2.46,0.57-3.71,0.86c-0.62,0.14-1.25,0.28-1.88,0.42c-0.63,0.14-1.26,0.28-1.9,0.42c-0.64,0.14-1.27,0.27-1.92,0.41
		c-11.57,2.46-24.1,4.64-37.03,6.58c-0.72,0.11-1.44,0.22-2.16,0.32c-0.56,0.09-1.12,0.17-1.69,0.25
		c-0.82-2.86-2.45-7.24-5.61-13.52c-1.68-3.33-3.81-7.22-6.48-11.69c-7.39-12.36-10.15-26.26-11.14-36.18
		c20.82-2.06,40.8-4.05,56.73-5.67c6.97-0.71,17.27-1.96,28.15-3.37l16.46,44.94L209.84,116.64z"/>
	<g>
		<path class="st7" d="M202.59,442.34l-70.01-22.87c0,0,11.57-44.68,22.29-104.46c1.39-7.76,2.77-15.78,4.11-23.99
			c1.02-6.27,2.27-14.86,3.58-24.32c3.82-27.69,8.06-62.72,8.03-67.93c-0.04-6.99-1.61-13.02-10.22-22.9
			c-0.01-0.01-0.02-0.02-0.03-0.04c-7.52-8.94-13.59-17.39-18.15-24.24c-6.38-9.6-9.77-16.07-9.94-16.4c0-0.01,0-0.01-0.01-0.01
			c0,0,0.13-1.65,0.15-3.95c0.03-3.17-0.17-7.6-1.23-10.7c-1.83-5.35-9.52-18.17-12.8-30.86c-3.29-12.68-0.35-27.45,11.18-29.24
			c3.21-0.5,5.6-0.07,7.38,0.82c0,0,0,0,0.01,0c4.6,2.3,5.08,7.62,5.08,7.62s-0.88,4.31,0.35,7.69c1.16,3.19,6.96,18.74,7.59,20.41
			c0.02,0.07,0.03,0.11,0.04,0.13c0,0.01,0,0.01,0.01,0.01c0,0-3.74-16.54-5.19-25.43c-0.72-4.42-0.59-8.04,0.89-10.76
			c1.5-2.74,4.37-4.56,9.15-5.36c8.91-1.49,11.1,3.96,11.34,4.66c0.01,0.03,0.02,0.05,0.02,0.07c0.38-0.85,0.82-1.59,1.31-2.24
			c6.17-8.22,20.04-1.41,20.04-1.41s2.86-5.73,12.63-3.12c1.58,0.42,2.9,1.07,4.04,1.94c4.95,3.72,6.36,11.33,9.34,20.82
			c3.09,9.82,10.45,30.76,14.25,46.98c0.71,3.05,1.3,5.93,1.72,8.54c2.6,16.49-0.37,24.27,0.58,47.11
			c0.91,21.81-0.02,11.47-0.21,88.37c-0.01,3.64-0.02,7.47-0.02,11.52c-0.01,7.19-0.19,14.28-0.53,21.24
			C225.57,379.68,202.59,442.34,202.59,442.34z"/>
		<path class="st8" d="M229.35,300.02c-7.42,2.74-14.88,5.45-21.83,8.99c-6.42,3.28-12.56,7.37-19.57,9.02
			c-5.94,1.4-12.16,0.97-18.23,0.33c-4.99-0.53-10.3-1.36-14.85-3.36c1.39-7.76,2.77-15.78,4.11-23.99
			c1.02-6.27,2.27-14.86,3.58-24.32c4.81-0.21,9.92,0.6,14.68,1.31c14.94,2.21,30.17,2.32,45.14,0.34c2.5-0.33,5.01-0.72,7.53-1.07
			c-0.01,3.64-0.02,7.47-0.02,11.52C229.87,285.97,229.68,293.06,229.35,300.02z"/>
		<path class="st8" d="M149.98,97.09c-10.26-21.01-10.4-24.07-11.25-30.2c-0.34-2.48-1.07-4.33-1.82-5.65
			c4.6,2.3,5.08,7.62,5.08,7.62s-0.88,4.31,0.35,7.69c1.16,3.19,6.96,18.74,7.59,20.41C149.96,97.02,149.97,97.06,149.98,97.09z"/>
		<path class="st8" d="M201.74,94.76c-4.85-5.92-6.51-15.27-8.88-25.77c-2.38-10.5-5.3-12.35-5.3-12.35s2.86-5.73,12.63-3.12
			c1.58,0.42,2.9,1.08,4.04,1.94c-16.18-1.68-12.04,3.07-9.33,16.19C197.65,85.01,201.62,94.47,201.74,94.76z"/>
		<path class="st8" d="M177.56,95.69c0,0-7.1-29.31-7.12-33.82c-0.02-4.51,6.05-6.7,17.11-5.23c0,0-13.87-6.79-20.04,1.42l0-0.01
			c-0.05,0.06-0.09,0.12-0.13,0.19c-0.04,0.06-0.09,0.12-0.13,0.18c-0.17,0.25-0.34,0.51-0.5,0.79c-0.03,0.05-0.05,0.1-0.08,0.14
			c-0.16,0.3-0.32,0.61-0.47,0.94c-0.01-0.03-0.01-0.05-0.02-0.07c-0.24-0.7-2.43-6.14-11.34-4.66c-4.78,0.8-7.66,2.62-9.15,5.36
			c1.85-1.48,5.13-3.11,10.36-2.82c5.15,0.29,8.92,3.22,11.25,5.77C170.25,73.35,177.56,95.69,177.56,95.69z"/>
		<path class="st8" d="M142.18,151.59c-6.38-9.6-9.77-16.07-9.94-16.4c0-0.01,0-0.01-0.01-0.01c0,0,0.13-1.65,0.15-3.95
			C138.44,140.83,141.07,147.4,142.18,151.59z"/>
		<path class="st8" d="M202.59,442.34l-21.19-8.1c22.18-59.23,35.81-139.72,38.25-179.36c2.59-42.25,4.34-80.25,6.66-104.55
			c0.9-9.4,1.32-18.93,1.5-27.07c0.71,3.05,1.3,5.93,1.72,8.54c2.6,16.49-0.37,24.27,0.58,47.11c0.95,22.84-0.11,10.42-0.23,99.89
			C229.76,368.25,202.59,442.34,202.59,442.34z"/>
	</g>
	<path class="st6" d="M365.63,89.85c-5.7-1.34-11.73-1.29-17.4,0.17c2.94-2.07,6.62-2.94,10.21-2.81c1.75,0.07,3.48,0.36,5.17,0.83
		c0.03,0.13,0.05,0.19,0.05,0.19C364.29,88.73,364.96,89.28,365.63,89.85z"/>
	<path class="st1" d="M643.45-31.2c0,0-121.99,123.4-167.11,170.4c-2.73,2.84-5.36,5.61-7.88,8.29c-1.49-4.71-5.31-9.42-9.97-12.79
		c-8.52-6.17-19.82-10.17-23.69-12.55c-2.24-1.37-4.62-4.01-6.23-5.98c-1.17-1.44-1.93-2.52-1.93-2.52c-0.01,0-0.01,0-0.02-0.01
		c-0.21-0.09-3.35-1.41-8.69-3.2c0.11-0.14,0.21-0.28,0.32-0.42c47.86-62.21,185-191.74,185-191.74L643.45-31.2z"/>
	<path class="st2" d="M476.34,139.2c-2.73,2.84-5.36,5.61-7.88,8.29c-1.49-4.71-5.31-9.42-9.97-12.79
		c-8.52-6.17-19.82-10.17-23.69-12.55c-2.24-1.37-4.62-4.01-6.23-5.98c-1.17-1.44-1.93-2.52-1.93-2.52c-0.01,0-0.01,0-0.02-0.01
		c-0.21-0.09-3.35-1.41-8.69-3.2c0.11-0.14,0.21-0.28,0.32-0.42c4.69,0.06,9.5-0.38,13.78,1.42c5.26,2.2,8.69,7.32,13.51,10.34
		c4.97,3.11,11.06,3.78,16.5,5.95c5.18,2.07,9.78,5.54,13.19,9.96C475.63,138.18,476,138.69,476.34,139.2z"/>
	<path class="st1" d="M454.5,159.66c0,0-1.66-3.12-4.15-4.58c-2.35-1.38-13.88-8.03-15.13-8.74c-0.05-0.03-0.08-0.05-0.1-0.07
		c0,0,10.77,8.32,16.21,13.07c1.31,1.14,2.39,2.27,3.22,3.41c0.56-0.63,1.11-1.25,1.65-1.86
		C455.13,160.29,454.5,159.66,454.5,159.66z"/>
	<path class="st2" d="M454.5,159.66c0,0-1.66-3.12-4.15-4.58c-2.35-1.38-13.88-8.03-15.13-8.74c-0.05-0.03-0.08-0.05-0.1-0.07
		c0,0,10.77,8.32,16.21,13.07c1.31,1.14,2.39,2.27,3.22,3.41c0.56-0.63,1.11-1.25,1.65-1.86
		C455.13,160.29,454.5,159.66,454.5,159.66z"/>
	<path class="st2" d="M426.63,113.65c0.01,0,0.01,0,0.01,0.01c0,0,0.76,1.09,1.93,2.52c0.39,0.48,0.83,1,1.29,1.53
		C467.81,77,581.45-41.23,614.85-65.56l-11.59-16.15c0,0-137.52,129.85-185.32,192.15C423.28,112.24,426.42,113.56,426.63,113.65z"
		/>
	<g>
		<path class="st9" d="M553.89,330.5l-33.53,53.98c0,0-61.91-26.58-117.4-50.29c-0.17-0.07-0.34-0.15-0.51-0.22
			c-16.59-7.08-32.59-13.91-46.16-19.68c-2.24-0.96-4.42-1.88-6.52-2.77c-6.55-2.77-16.31-6.69-26.67-10.75
			c-20.96-8.21-44.33-16.97-48.25-17.9c-5.86-1.41-11.23-1.33-21.29,3.87l-0.03,0.02c-9.04,4.47-17.36,7.83-24.03,10.24
			c-0.88,0.32-1.72,0.61-2.54,0.9c-14.72,5.09-30.08,9.92-45.93,8.38c-10-0.97-28.77-3.6-30.42-15.72
			c-0.12-0.87-0.25-1.75-0.28-2.62c-0.02-0.6,0-1.25,0.07-1.94c0.27-2.59,1.22-5.58,2.95-7.16c0.39-0.35,0.84-0.66,1.35-0.77
			c2.75-0.57,6.47,1.96,9.08,2.67c3.48,0.95,7.13,0.25,10.65-0.16c3.49-0.41,6.99-0.81,10.48-1.23l0.07-0.01
			c0.06-0.01,0.12-0.01,0.17-0.02c0.02,0,0.03-0.01,0.04-0.01c0.05,0,0.1-0.01,0.13-0.01c0.01,0,0.01,0,0.01,0c0.01,0,0.01,0,0.01,0
			s0,0,0.01,0c0.01,0,0.01,0,0.01,0c0,0,0,0,0.01,0c-0.02-0.01-0.03-0.01-0.05-0.01c0,0-0.01,0-0.01,0l-0.02,0
			c-0.34-0.01-1.17-0.02-2.33-0.05c-4.52-0.11-14.1-0.36-19.87-0.81c-3.85-0.31-6.86-1.15-8.83-2.95c-0.12-0.11-0.23-0.22-0.35-0.34
			c-0.11-0.11-0.21-0.22-0.31-0.34c-0.06-0.06-0.11-0.12-0.16-0.19c-0.08-0.09-0.16-0.19-0.23-0.3c-0.08-0.11-0.15-0.22-0.23-0.34
			c-0.1-0.15-0.19-0.31-0.28-0.48c-0.06-0.12-0.13-0.25-0.19-0.38c-0.32-0.68-0.56-1.45-0.71-2.3c-0.03-0.15-0.05-0.29-0.08-0.44
			c-0.13-0.87-0.17-1.84-0.12-2.9c0.01-0.25,0.02-0.5,0.04-0.75c0.12-1.55,0.41-2.82,0.81-3.85c0.05-0.13,0.1-0.25,0.16-0.38
			c0.14-0.33,0.29-0.63,0.45-0.91c0.04-0.07,0.08-0.14,0.13-0.21c0.04-0.07,0.08-0.14,0.12-0.2c0.06-0.09,0.12-0.19,0.18-0.27
			c0.33-0.46,0.68-0.84,1.04-1.16c0.11-0.09,0.21-0.19,0.32-0.27c0.1-0.08,0.21-0.16,0.31-0.24c0.08-0.05,0.15-0.1,0.22-0.15
			c0.06-0.04,0.13-0.08,0.19-0.12c1.1-0.64,2.05-0.78,2.31-0.8c0.02,0,0.04,0,0.07,0c-0.25-0.19-0.47-0.39-0.69-0.58
			c-0.03-0.03-0.07-0.07-0.1-0.1c-0.2-0.19-0.39-0.39-0.56-0.58c-0.02-0.02-0.04-0.05-0.07-0.08c-0.02-0.02-0.04-0.04-0.06-0.06
			l-0.13-0.15c-0.16-0.2-0.32-0.41-0.45-0.61c-0.01-0.01-0.02-0.02-0.03-0.03c-0.23-0.33-0.42-0.67-0.58-1.01
			c-0.04-0.07-0.07-0.14-0.1-0.22c-0.1-0.22-0.18-0.44-0.26-0.65c-0.04-0.11-0.07-0.22-0.11-0.33c-0.08-0.23-0.14-0.45-0.17-0.67
			c-0.02-0.11-0.04-0.22-0.06-0.33c-0.04-0.22-0.07-0.45-0.09-0.67c-0.02-0.2-0.04-0.39-0.04-0.58c-0.01-0.39-0.01-0.78,0.02-1.16
			c0.01-0.12,0.02-0.24,0.03-0.35c0.01-0.14,0.03-0.27,0.05-0.41c0.05-0.34,0.11-0.68,0.18-1.02c0.04-0.24,0.11-0.48,0.17-0.7
			c0.01-0.02,0.01-0.04,0.02-0.06c0.07-0.25,0.15-0.5,0.22-0.75c0.05-0.15,0.1-0.29,0.15-0.44c0.06-0.17,0.12-0.34,0.18-0.51
			l0.11-0.28c0.01-0.02,0.02-0.05,0.03-0.06c0.54-1.33,1.19-2.54,1.79-3.53c0.02-0.04,0.04-0.08,0.07-0.12
			c0.05-0.08,0.09-0.15,0.14-0.22c0.05-0.09,0.1-0.16,0.15-0.24c0.08-0.12,0.15-0.23,0.22-0.33c0.12-0.18,0.23-0.35,0.34-0.5
			c0.01-0.02,0.03-0.04,0.05-0.06c0.06-0.08,0.11-0.16,0.16-0.23c0.05-0.08,0.1-0.15,0.15-0.22c0.08-0.1,0.14-0.19,0.2-0.27
			c0.09-0.12,0.17-0.22,0.23-0.31c0.04-0.05,0.08-0.09,0.1-0.12c0.01-0.01,0.02-0.02,0.02-0.02c0.02-0.02,0.02-0.03,0.03-0.04
			c0.01-0.01,0.01-0.01,0.01-0.01s-4.21-3.57-0.02-11.22c0.68-1.24,1.5-2.21,2.45-2.99c4.14-3.39,10.8-3.01,19.36-3.56
			c8.87-0.57,27.92-2.45,42.29-2.31c2.69,0.03,5.23,0.13,7.5,0.32c14.35,1.2,20.26,5.29,39.59,9.17c8.35,1.68,11.11,2.33,17.59,4.01
			c0.25,0.06,0.5,0.13,0.76,0.2c1.3,0.34,2.76,0.71,4.42,1.15c0.31,0.08,0.64,0.16,0.96,0.25c1.32,0.34,2.77,0.72,4.38,1.13
			c0.4,0.1,0.81,0.21,1.24,0.32c0.43,0.1,0.86,0.22,1.3,0.33c1.11,0.28,2.29,0.58,3.53,0.91c0.49,0.12,1.01,0.26,1.54,0.39
			c1.57,0.4,3.25,0.83,5.05,1.29c0.61,0.15,1.22,0.31,1.85,0.47c2.52,0.64,5.26,1.33,8.25,2.08c0.61,0.16,1.23,0.32,1.86,0.47
			c2.67,0.67,5.53,1.39,8.6,2.14c0.22,0.06,0.43,0.11,0.65,0.17c0.6,0.15,1.19,0.3,1.81,0.45c0.42,0.11,0.84,0.22,1.27,0.32
			c1.69,0.42,3.46,0.86,5.29,1.31c2.6,0.64,5.31,1.32,8.17,2.02c0.52,0.13,1.05,0.26,1.58,0.39c1.16,0.29,2.35,0.58,3.55,0.88
			c0.68,0.17,1.36,0.34,2.04,0.51c0.5,0.12,1.01,0.26,1.5,0.39c1.2,0.3,2.4,0.63,3.62,0.96c0.61,0.16,1.22,0.33,1.83,0.5
			c1.23,0.34,2.47,0.69,3.72,1.05c0.62,0.18,1.25,0.36,1.88,0.54c0.63,0.18,1.26,0.37,1.9,0.56c0.63,0.18,1.26,0.38,1.9,0.57
			c5.11,1.54,10.36,3.23,15.7,5.02c6.68,2.24,13.51,4.66,20.42,7.21c0.69,0.25,1.39,0.51,2.08,0.77c0.4,0.15,0.79,0.29,1.19,0.44
			c0.14,0.05,0.29,0.11,0.43,0.16c2.13,0.8,4.26,1.6,6.4,2.42l1.6,0.61c6.54,2.51,13.1,5.11,19.62,7.75
			c1.37,0.56,2.75,1.13,4.12,1.69c0.08,0.04,0.18,0.07,0.26,0.11c1.06,0.43,2.12,0.87,3.18,1.3c5.4,2.23,10.76,4.49,16.02,6.73
			c0.9,0.39,1.81,0.78,2.71,1.16c11.75,5.04,23,10.04,33.29,14.71c0.86,0.39,1.72,0.78,2.56,1.17c0.04,0.01,0.06,0.03,0.1,0.04
			c0.54,0.25,1.08,0.49,1.62,0.74c0.57,0.26,1.13,0.52,1.69,0.77c0.63,0.29,1.26,0.58,1.88,0.86c3.25,1.49,6.37,2.94,9.37,4.33
			c0.51,0.24,1.01,0.47,1.52,0.71c4.63,2.16,8.92,4.18,12.79,6.02c0.64,0.31,1.28,0.61,1.89,0.9c0.31,0.15,0.62,0.3,0.93,0.44
			c0.3,0.15,0.6,0.29,0.9,0.44c0.46,0.22,0.92,0.44,1.38,0.66c0.19,0.09,0.37,0.18,0.56,0.27c2.05,0.98,3.94,1.9,5.67,2.73
			c0.3,0.15,0.6,0.29,0.9,0.44c0.77,0.37,1.49,0.72,2.18,1.06c0.21,0.1,0.42,0.21,0.62,0.3c2.54,1.24,4.5,2.21,5.83,2.86
			c0.07,0.03,0.13,0.06,0.2,0.1c0.21,0.1,0.4,0.2,0.57,0.28c0.1,0.05,0.19,0.1,0.27,0.14c0.09,0.05,0.18,0.09,0.26,0.13
			c0.25,0.12,0.43,0.21,0.55,0.27c0.02,0.01,0.04,0.01,0.05,0.02c0.04,0.02,0.06,0.03,0.07,0.03
			C553.88,330.5,553.89,330.5,553.89,330.5z"/>
		<path class="st10" d="M185.78,278.98c-0.95,0.08-1.9,0.16-2.85,0.24c1.16,0.03,1.99,0.04,2.33,0.05l0.02,0c0,0.01,0.01,0,0.01,0
			l0.02,0.01c0,0,0,0,0.01,0c0,0,0,0-0.01,0c0,0,0,0-0.01,0c-0.03,0-0.08,0.01-0.13,0.01c-0.01,0-0.03,0.01-0.04,0.01
			c-0.05,0.01-0.1,0.01-0.17,0.02l-0.07,0.01c-3.49,0.42-6.99,0.82-10.48,1.23c-3.52,0.41-7.16,1.11-10.65,0.16
			c-2.62-0.71-6.34-3.24-9.08-2.67c-0.51,0.11-0.96,0.42-1.35,0.77c-1.73,1.58-2.68,4.57-2.95,7.16c0.93-1.12,1.97-2.16,3.33-2.66
			c1.1-0.41,2.29-0.42,3.47-0.42c2.52-0.01,5.06,0.05,7.58-0.09c6.93-0.38,13.85-2.05,20.61-3.52
			C185.56,279.32,185.77,279.18,185.78,278.98z"/>
		<path class="st10" d="M194.09,235.43c-5.96,2.85-14.13,2.32-23.42,2.16c-9.29-0.16-11.43,1.91-11.43,1.91s-4.21-3.57-0.02-11.22
			c0.68-1.23,1.5-2.21,2.45-2.99c-4.73,13.21,0.1,10.72,11.65,11.14C185.08,236.86,193.82,235.47,194.09,235.43z"/>
		<path class="st10" d="M189.9,255.88c0,0-26.02-0.06-29.8-0.97c-3.78-0.91-4.37-6.44-0.87-15.41c0,0-8.54,10.23-2.92,17.08l-0.01,0
			c0.04,0.05,0.09,0.1,0.13,0.15c0.04,0.05,0.08,0.1,0.13,0.15c0.17,0.2,0.36,0.39,0.56,0.58c0.03,0.03,0.07,0.06,0.1,0.1
			c0.22,0.2,0.44,0.4,0.69,0.59c-0.02,0-0.04,0-0.07,0.01c-0.64,0.06-5.65,0.78-6.23,8.55c-0.31,4.17,0.62,6.95,2.61,8.77
			c-0.86-1.86-1.56-4.93-0.23-9.26c1.3-4.26,4.53-6.81,7.14-8.24C169.69,257.42,189.9,255.88,189.9,255.88z"/>
		<path class="st10" d="M553.89,330.5l-11.14,16.09c-25.94-17.69-81.01-42.55-129.32-62.42c-0.92-0.38-1.84-0.76-2.75-1.13
			c-12.77-5.23-25-10.09-36.04-14.34c-18.83-7.26-34.17-12.78-42.7-15.43c-0.51-0.16-1.01-0.32-1.52-0.48
			c-34.27-10.64-65.13-19.73-84.73-26.56c-7.69-2.68-15.59-4.99-22.37-6.81c2.69,0.03,5.23,0.13,7.5,0.32
			c14.35,1.2,20.26,5.29,39.59,9.17c8.35,1.68,11.11,2.33,17.59,4.01c0.25,0.06,0.5,0.13,0.76,0.2c1.3,0.34,2.76,0.71,4.42,1.15
			c0.31,0.08,0.64,0.16,0.96,0.25c1.32,0.34,2.77,0.72,4.38,1.13c0.4,0.1,0.81,0.21,1.24,0.32c0.43,0.1,0.86,0.22,1.3,0.33
			c1.11,0.28,2.29,0.58,3.53,0.91c0.49,0.12,1.01,0.26,1.54,0.39c1.57,0.4,3.25,0.83,5.05,1.29c0.61,0.15,1.22,0.31,1.85,0.47
			c2.52,0.64,5.26,1.33,8.25,2.08c0.61,0.16,1.23,0.32,1.86,0.47c2.67,0.67,5.53,1.39,8.6,2.14c0.22,0.06,0.43,0.11,0.65,0.17
			c0.6,0.15,1.19,0.3,1.81,0.45c0.42,0.11,0.84,0.22,1.27,0.32c1.69,0.42,3.46,0.86,5.29,1.31c2.6,0.64,5.31,1.32,8.17,2.02
			c0.52,0.13,1.05,0.26,1.58,0.39c1.16,0.29,2.35,0.58,3.55,0.88c0.68,0.17,1.36,0.34,2.04,0.51c0.5,0.12,1.01,0.26,1.5,0.39
			c1.2,0.3,2.4,0.63,3.62,0.96c0.61,0.16,1.22,0.33,1.83,0.5c1.23,0.34,2.47,0.69,3.72,1.05c0.62,0.18,1.25,0.36,1.88,0.54
			c0.63,0.18,1.26,0.37,1.9,0.56c0.63,0.18,1.26,0.38,1.9,0.57c5.11,1.54,10.36,3.23,15.7,5.02c6.68,2.24,13.51,4.66,20.42,7.21
			c0.69,0.25,1.39,0.51,2.08,0.77c0.4,0.15,0.79,0.29,1.19,0.44c0.14,0.05,0.29,0.11,0.43,0.16c2.13,0.8,4.26,1.6,6.4,2.42l1.6,0.61
			c6.54,2.51,13.1,5.11,19.62,7.75c1.37,0.56,2.75,1.13,4.12,1.69c0.08,0.04,0.18,0.07,0.26,0.11c1.06,0.43,2.12,0.87,3.18,1.3
			c5.4,2.23,10.76,4.49,16.02,6.73c0.9,0.39,1.81,0.78,2.71,1.16c11.75,5.04,23,10.04,33.29,14.71c0.86,0.39,1.72,0.78,2.56,1.17
			c0.04,0.01,0.06,0.03,0.1,0.04c0.54,0.25,1.08,0.49,1.62,0.74c0.57,0.26,1.13,0.52,1.69,0.77c0.63,0.29,1.26,0.58,1.88,0.86
			c3.25,1.49,6.37,2.94,9.37,4.33c0.51,0.24,1.01,0.47,1.52,0.71c4.63,2.16,8.92,4.18,12.79,6.02c0.64,0.31,1.28,0.61,1.89,0.9
			c0.31,0.15,0.62,0.3,0.93,0.44c0.3,0.15,0.6,0.29,0.9,0.44c0.46,0.22,0.92,0.44,1.38,0.66c0.19,0.09,0.37,0.18,0.56,0.27
			c2.05,0.98,3.94,1.9,5.67,2.73c0.3,0.15,0.6,0.29,0.9,0.44c0.77,0.37,1.49,0.72,2.18,1.06c0.21,0.1,0.42,0.21,0.62,0.3
			c2.54,1.24,4.5,2.21,5.83,2.86c0.07,0.03,0.13,0.06,0.2,0.1c0.21,0.1,0.4,0.2,0.57,0.28c0.1,0.05,0.19,0.1,0.27,0.14
			c0.09,0.05,0.18,0.09,0.26,0.13c0.25,0.12,0.43,0.21,0.55,0.27c0.02,0.01,0.04,0.01,0.05,0.02c0.04,0.02,0.06,0.03,0.07,0.03
			C553.88,330.5,553.89,330.5,553.89,330.5z"/>
	</g>
	<path class="st10" d="M403.28,332.28c-0.27,0.57-0.54,1.13-0.84,1.7c-16.59-7.08-32.59-13.91-46.16-19.68
		c-0.13-0.5-0.24-1.01-0.33-1.53c-0.69-3.89-0.18-7.9,0.69-11.75c2.46-10.95,7.78-21.23,15.31-29.55c0.86-0.95,1.75-1.88,2.68-2.77
		c3.93-3.81,8.45-7.04,13.54-8.99c6.68,2.24,13.51,4.66,20.42,7.21c0.69,0.25,1.39,0.51,2.08,0.77c0.4,0.15,0.79,0.29,1.19,0.44
		c0.94,5.3,1.46,10.67,1.58,16.05C413.79,300.7,410.35,317.33,403.28,332.28z"/>
	<g>
		<path class="st1" d="M404.47,292.13c0.28-1.04,0.56-2.08,0.85-3.12c1.15-4.25,2.3-8.52,2.76-12.9c0.62-5.97-0.21-11.97,0.08-17.94
			c0.35-7.03-0.68-14.46-1.49-21.43c0-0.01,0-0.03-0.01-0.04c-1.54-11.39,0.22-16.56,3.57-21.69c1.14-1.75,5.94-7.63,12.36-15.26
			c-4.87,0.07-9.57-3.84-16.15-8.1c-9.82-6.37-19.6-12.81-29.38-19.23c-0.31-0.2-0.62-0.41-0.92-0.6
			c-12.18,18.02-12.13,17.52-19.04,29.01c-10.32,17.17-16.25,21.42-22.3,34.74c-0.96,2.11-1.92,4.5-2.86,7.07
			c-5.04,13.7-9.76,32.56-12.24,41.24c-2.39,8.38-5.04,14.62-3.21,19.74c0.42,1.18,1.07,2.3,2.02,3.37
			c5.88,6.62,10.74,3.81,10.74,3.81s6.86,11.67,15.34,8.64c0.67-0.23,1.35-0.57,2.04-1.01c-0.01,0.02-0.01,0.04-0.02,0.07
			c-0.16,0.63-1.18,5.67,6.05,8.88c3.88,1.72,6.86,1.78,9.28,0.5c2.39-1.27,4.23-3.86,5.84-7.44c3.23-7.2,8.47-21.11,8.47-21.1
			c-0.01,0.02-0.02,0.06-0.03,0.12c-0.35,1.53-3.6,15.69-4.29,18.59c-0.73,3.06-3.45,5.79-3.45,5.79s-2.21,4.13,0.04,8.03
			c0.87,1.51,2.41,2.98,5,4.16c11.79,5.38,21.89-10.41,24.4-19.68C400.1,308.27,402.28,300.2,404.47,292.13z"/>
		<path class="st2" d="M376.25,299.33c-2.63,20.32-4,22.62-6.34,27.52c-0.95,1.98-1.3,3.68-1.4,5.01c-2.25-3.9-0.04-8.03-0.04-8.03
			s2.72-2.73,3.45-5.79c0.69-2.9,3.94-17.07,4.29-18.59C376.23,299.39,376.24,299.35,376.25,299.33z"/>
		<path class="st2" d="M337.26,276.06c0.69,6.67-2.61,14.31-5.93,23.14c-3.33,8.83-2.08,11.59-2.08,11.59s-4.86,2.81-10.74-3.81
			c-0.95-1.07-1.6-2.19-2.02-3.37c11.03,9.04,10.29,3.56,14.64-7.34C335.55,285.17,337.21,276.34,337.26,276.06z"/>
		<path class="st2" d="M355.4,287.05c0,0-8.95,24.87-11.11,28.18c-2.16,3.31-7.66,1.98-15.04-4.43c0,0,6.87,11.66,15.35,8.63l0,0.01
			c0.06-0.02,0.12-0.05,0.19-0.07c0.06-0.02,0.12-0.05,0.18-0.07c0.25-0.1,0.5-0.21,0.75-0.34c0.04-0.02,0.08-0.05,0.13-0.07
			c0.26-0.14,0.53-0.29,0.8-0.46c-0.01,0.02-0.01,0.04-0.02,0.07c-0.16,0.63-1.18,5.67,6.05,8.88c3.88,1.72,6.86,1.78,9.28,0.5
			c-2.07,0.18-5.25-0.2-8.94-2.94c-3.63-2.7-4.97-6.66-5.45-9.65C349.96,306.92,355.4,287.05,355.4,287.05z"/>
		<path class="st2" d="M377.06,172.42c-0.31-0.2-0.62-0.41-0.92-0.6c-12.18,18.02-12.13,17.52-19.04,29.01
			c-10.32,17.17-16.25,21.42-22.3,34.74c-0.96,2.11-1.92,4.5-2.86,7.07c4.06-5.87,8.96-12.63,14.16-19.08
			c9.42-11.7,21.9-28.47,36.21-47.7C380.55,174.71,378.81,173.57,377.06,172.42z"/>
	</g>
	<path class="st6" d="M375.48,97.52c-1.92,0.6-3.79,1.45-5.61,2.3c-0.92,0.43-1.85,0.86-2.76,1.29c1.91-1.4,3.85-2.82,6.02-3.77
		c0.27-0.12,0.54-0.22,0.82-0.33l0.01,0C374.44,97.19,374.95,97.36,375.48,97.52z"/>
</g>
<rect id="SVGID_3_" x="34.31" y="-80.93" transform="matrix(0.9053 0.4247 -0.4247 0.9053 101.1343 -106.2765)" class="st11" width="509.25" height="509.25"/>
</svg>
