<?xml version="1.0" encoding="utf-8"?>
<!-- Generator: Adobe Illustrator 23.0.2, SVG Export Plug-In . SVG Version: 6.00 Build 0)  -->
<svg version="1.1" xmlns="http://www.w3.org/2000/svg" xmlns:xlink="http://www.w3.org/1999/xlink" x="0px" y="0px"
	 viewBox="0 0 600 300" style="enable-background:new 0 0 600 300;" xml:space="preserve">
<style type="text/css">
	.st0{fill:#AAFF00;}
	.st1{opacity:0.7;fill:#FFFFFF;}
	.st2{fill:#1A2E35;}
	.st3{opacity:0.3;clip-path:url(#XMLID_10_);}
	.st4{fill:none;stroke:#1A2E35;stroke-linecap:round;stroke-linejoin:round;stroke-miterlimit:10;}
	.st5{fill:#FFFFFF;stroke:#1A2E35;stroke-linecap:round;stroke-linejoin:round;stroke-miterlimit:10;}
	.st6{fill:#1A2E35;stroke:#1A2E35;stroke-linecap:round;stroke-linejoin:round;stroke-miterlimit:10;}
	.st7{fill:none;stroke:#6B6B6B;stroke-linecap:round;stroke-linejoin:round;stroke-miterlimit:10;}
	.st8{opacity:0.3;clip-path:url(#XMLID_11_);}
	.st9{fill:#737373;stroke:#1A2E35;stroke-linecap:round;stroke-linejoin:round;stroke-miterlimit:10;}
	.st10{fill:#999999;stroke:#1A2E35;stroke-linecap:round;stroke-linejoin:round;stroke-miterlimit:10;}
	.st11{opacity:0.3;clip-path:url(#XMLID_12_);}
	.st12{fill:none;stroke:#1A2E35;stroke-width:3;stroke-linecap:round;stroke-linejoin:round;stroke-miterlimit:10;}
	.st13{fill:#707070;stroke:#1A2E35;stroke-linecap:round;stroke-linejoin:round;stroke-miterlimit:10;}
	.st14{fill:#1A2E35;stroke:#1A2E35;stroke-miterlimit:10;}
	.st15{opacity:0.3;clip-path:url(#XMLID_13_);}
	.st16{clip-path:url(#XMLID_14_);}
	.st17{clip-path:url(#XMLID_15_);fill:#AAFF00;}
	.st18{clip-path:url(#XMLID_16_);fill:#AAFF00;}
	.st19{fill:none;stroke:#1A2E35;stroke-miterlimit:10;}
	.st20{clip-path:url(#XMLID_17_);fill:#AAFF00;}
	.st21{fill:#FFFFFF;stroke:#1A2E35;stroke-miterlimit:10;}
</style>
<g id="Layer_6">
	<g>
		<path class="st0" d="M279.56,288.46c0,0,45.77,8.27,83.67-23.23c37.9-31.5,50.58-83.67,61.97-125.67
			c11.39-42-6.18-79.89-41.64-92.63c-35.46-12.74-52.66,17.54-97.67,26.32c-45.01,8.79-58.33,4.29-91.31,36.21
			c-32.98,31.92-28.99,93.75,8.6,133.77C240.76,283.25,279.56,288.46,279.56,288.46z"/>
		<path class="st1" d="M279.56,288.46c0,0,45.77,8.27,83.67-23.23c37.9-31.5,50.58-83.67,61.97-125.67
			c11.39-42-6.18-79.89-41.64-92.63c-35.46-12.74-52.66,17.54-97.67,26.32c-45.01,8.79-58.33,4.29-91.31,36.21
			c-32.98,31.92-28.99,93.75,8.6,133.77C240.76,283.25,279.56,288.46,279.56,288.46z"/>
	</g>
</g>
<g id="Layer_5">
	<ellipse class="st2" cx="304.41" cy="291.15" rx="106.38" ry="8.38"/>
</g>
<g id="Layer_4">
	<g>
		<g>
			<g>
				<defs>
					<path id="XMLID_7_" d="M233.83,257.89c0,0-1.23,3.96-1.7,6.68c-0.47,2.72-5.87,16.35-6.4,16.76c-0.53,0.41-6.55,2.39-7.81,2.68
						c-1.26,0.29-4,0.97-4.23,1.6c-0.22,0.62-2.47,2.78-2.47,3.2c-0.01,0.42,0.62,0.54,0.94,0.44c0.32-0.1,1.58-0.39,1.58-0.39
						s-1.59,1.02-1.5,1.65c0.09,0.63,0.61,0.96,0.61,0.96s-0.32,0.31,1.04,0.44c1.36,0.13,3.59-1.08,3.59-1.08s-1.19,1.97-1.73,2.8
						c-0.54,0.83,0.61,1.06,2.29,0.88c1.68-0.18,3.2-2.67,3.85-3.7c0.65-1.04,2.97-1.52,3.38-1.51c0.42,0.01,4.41-0.33,4.41-0.33
						s-0.56,1.77-1.64,3.32c-1.08,1.55,0.78,2.85,1.83,2.97c1.05,0.12,1.58-0.6,1.5-1.75c-0.08-1.16,0.05-2.73,1.65-3.85
						c1.59-1.12,3.01-4.03,3.04-5.6c0.03-1.57,0.09-4.61,0.09-4.61s4.89-8.82,7.17-12.76c2.28-3.94,3.29-7.7,3.44-9.69
						c0.14-1.99-1.4-3.8-2.43-4.77C243.29,251.26,233.83,257.89,233.83,257.89z"/>
				</defs>
				<use xlink:href="#XMLID_7_"  style="overflow:visible;fill:#999999;"/>
				<clipPath id="XMLID_10_">
					<use xlink:href="#XMLID_7_"  style="overflow:visible;"/>
				</clipPath>
				<path class="st3" d="M244.32,252.22c-1.03-0.96-10.49,5.67-10.49,5.67s-1.23,3.96-1.7,6.68c-0.47,2.72-5.87,16.35-6.4,16.76
					c-0.2,0.15-1.15,0.52-2.32,0.93c1.1-0.23,3.33-0.49,4.97,0.74c2.26,1.7,3.39,3.58,2.64,4.52c-0.75,0.94-4.33,0.38-6.41,0.75
					c-2.07,0.38-3.58,2.26-4.9,3.77c-0.93,1.06-2.13,2.02-2.77,2.51c0.32,0.01,0.69-0.01,1.09-0.05c1.68-0.18,3.2-2.67,3.85-3.7
					c0.65-1.04,2.97-1.52,3.38-1.51c0.42,0.01,4.41-0.33,4.41-0.33s-0.56,1.77-1.64,3.32c-1.08,1.55,0.78,2.85,1.83,2.97
					c1.05,0.12,1.58-0.6,1.5-1.75c-0.08-1.16,0.05-2.73,1.65-3.85c1.59-1.12,3.01-4.03,3.04-5.6c0.03-1.57,0.09-4.61,0.09-4.61
					s4.89-8.82,7.17-12.76c2.28-3.94,3.29-7.7,3.44-9.69C246.89,255,245.35,253.19,244.32,252.22z"/>
				
					<use xlink:href="#XMLID_7_"  style="overflow:visible;fill:none;stroke:#1A2E35;stroke-linecap:round;stroke-linejoin:round;stroke-miterlimit:10;"/>
			</g>
			<path class="st4" d="M217.47,290.82c0,0,2.36-2.58,3-3.51c0.65-0.93,3.28-1.41,3.28-1.41"/>
			<path class="st4" d="M213.73,288.86c0,0,1.41-2.7,2.16-3.31c0.75-0.61,3.17-1.3,3.17-1.3"/>
			<path class="st4" d="M212.84,291.47c0,0,2.23-1.43,3.2-2.67c0.97-1.24,1.4-2.18,2.68-2.99c1.27-0.81,3.71-1.92,3.71-1.92"/>
		</g>
		<g>
			<path class="st5" d="M309.62,270.15c0,0,3.45-4.86,5.35-5.35c1.9-0.49,4.19,0.39,5.32,1.36c1.14,0.97,2.85,4.67,5.01,6.7
				c2.16,2.03,6.57,7.36,6.52,9.98c-0.05,2.62-1.36,5.53-2.42,6.14s-3.26,0.46-5.44-0.63c-2.18-1.09-4.01-3.96-6.08-5.57
				c-2.07-1.61-3.11-1.84-3.11-1.84s1.77-4.69-0.07-7.13C312.85,271.36,309.62,270.15,309.62,270.15z"/>
			<path class="st5" d="M331.82,282.84c0.05-2.62-4.36-7.95-6.52-9.98c-2.16-2.03-3.88-5.74-5.01-6.7
				c-1.14-0.97-3.43-1.85-5.32-1.36c-0.34,0.09-0.74,0.32-1.16,0.64c1.18-0.14,3.38-0.13,5.31,1.43c2.79,2.26,3.05,5.2,7.07,8.63
				c4.02,3.43,5.21,7.23,4.96,9.11c-0.25,1.88-1.23,4.07-3.02,4.35c-0.62,0.1-1.19,0.18-1.69,0.25c1.23,0.23,2.3,0.14,2.95-0.23
				C330.46,288.37,331.77,285.46,331.82,282.84z"/>
		</g>
		<g>
			<path class="st5" d="M270.7,265.42c0,0,2.53-0.9,3.44,1.32s0.19,6.3,1.1,8.52c0.9,2.22,2.32,4.87,1.01,7.57
				c-1.31,2.7-3.88,5.38-6.61,5.75c-2.73,0.37-4.81-0.93-4.35-2.6c0.45-1.67,1.11-3.12,0.83-5.02c-0.28-1.89-1.53-7.58-1.48-10.51
				C264.69,267.5,268.19,265.26,270.7,265.42z"/>
			<path class="st5" d="M274.14,266.74c-0.56-1.39-1.77-1.56-2.59-1.49c0.78,0.36,1.56,1.1,2.05,2.53c1.29,3.8-0.02,6.29,1.09,8.83
				c1.1,2.54,1.37,5.27,0.07,7.55c-1.3,2.28-3.52,3.18-5.72,3.14c-2.2-0.04-2.41-0.05-3.23-0.9c-0.18-0.19-0.34-0.37-0.49-0.53
				c-0.01,0.04-0.02,0.07-0.03,0.1c-0.45,1.67,1.62,2.97,4.35,2.6c2.73-0.37,5.3-3.04,6.61-5.75c1.31-2.7-0.11-5.35-1.01-7.57
				C274.33,273.04,275.04,268.96,274.14,266.74z"/>
		</g>
		<g>
			<path class="st6" d="M251.33,258.33c0,0-4.16,9.25-7.2,14.75c-3.04,5.5-3.05,16.83-2.76,18.3c0.29,1.47,5.7,3.36,8.23,2.67
				c2.53-0.69,6.34-2.29,7.19-3.32c0.86-1.03,10.03-9.25,10.03-9.25s4.44-2.01,4.87-2.63c0.43-0.62,0-5.66-1.32-7.79
				c-1.32-2.12-2.36-2.46-2.36-2.46l2.16-3.1c0,0,2.74-0.58,3.99-0.03c1.25,0.55,15.41,16.86,17.25,19.1
				c1.84,2.24,9.19,7.52,11.49,7.77s4.86-1.69,5.82-2.62c0.96-0.93,6.09-6.07,6.84-6.58c0.74-0.51,2.66-1.94,3.1-3.09
				s0.8-3.45-1.13-6.52c-1.93-3.08-5.05-4.4-6-4.41c-0.94-0.02-2.43,0.79-3.38,1.19s-3.79,0.77-3.79,0.77s-12.96-18.91-15.41-22.42
				c-2.45-3.51-4.29-6.47-6.26-7.77c-1.96-1.3-5.14,0.52-5.14,0.52s-4.15,8.52-11.46,12.36c-7.31,3.84-14.42,2.97-14.42,2.97
				L251.33,258.33z"/>
			<line class="st7" x1="262.14" y1="264.85" x2="260.61" y2="264.78"/>
			<line class="st7" x1="269.16" y1="265.18" x2="264.37" y2="264.96"/>
			<path class="st7" d="M277.73,259.18c-0.64,1.38-1.15,2.49-1.38,3.05"/>
			<path class="st7" d="M283.29,247.39c0,0-2.63,5.51-4.68,9.91"/>
			<line class="st7" x1="278.17" y1="254.18" x2="274.21" y2="262.19"/>
			<path class="st7" d="M255.44,289.75c-0.54,0.56-1.07,1.02-1.59,1.35"/>
			<path class="st7" d="M267.16,270.38c0,0-2.74,5.62-5.12,9.56c-1.45,2.39-3.14,5.37-4.86,7.72"/>
			<path class="st7" d="M261.6,280.76c0,0-2.11,6.36-3.4,8.01"/>
			<path class="st7" d="M309.04,285.22c-0.12,1.29-0.26,1.79-0.26,1.79"/>
			<path class="st7" d="M304.36,271.1c0,0,4.88,8.06,4.81,11.42"/>
			<path class="st7" d="M304.87,271.94c0,0,5.65,6.09,6.11,9.66"/>
		</g>
		<g>
			<g>
				<defs>
					<path id="XMLID_8_" d="M225.33,228.38c0,0-3.44,6.56-3.78,12.27c-0.34,5.71,3.7,9.9,5.29,10.39c1.59,0.49,5.61,5.37,5.72,5.94
						c0.1,0.57,0.54,1.61,0.54,1.61s3.4,1.32,7.32-0.32c3.92-1.64,5.11-4.36,5.11-4.36l-0.86-2.65c0,0,3.74,1.56,4.97,3.18
						c1.23,1.62,1.17,4.37,1.17,4.37l-0.02,0.8c0,0,8.89,1.54,15.91-0.95c7.02-2.49,12.84-8.1,14.04-11.05s1.96-6.71,1.96-6.71
						s-12.38-10.3-15.08-12.63c-2.7-2.34-2.7-2.34-2.7-2.34l6.61,0.81c0,0,3.65,0.18,4.74-2.88c1.09-3.07-1.11-7.45-4.75-8.44
						c-3.64-0.98-15.38-2.58-20.15-4.16c-4.77-1.58-9.13-0.86-12.25,1.02c-3.12,1.88-7.02,8.44-8.64,9.67
						C228.86,223.18,225.33,228.38,225.33,228.38z"/>
				</defs>
				<use xlink:href="#XMLID_8_"  style="overflow:visible;fill:#AAFF00;"/>
				<clipPath id="XMLID_11_">
					<use xlink:href="#XMLID_8_"  style="overflow:visible;"/>
				</clipPath>
				<path class="st8" d="M236.93,224.42l2.88-1.87c0,0-0.51-4.75,0.68-4.92c1.19-0.17,6.44,3.56,7.97,4.07
					c1.53,0.51-1.87-2.04-0.68-2.54c1.19-0.51,13.74,3.39,13.74,3.39s-0.85-2.04,1.87-3.9c2.71-1.87,7.46,3.73,8.14,5.6
					c0.68,1.87,0.17,3.05,0.17,3.05l-0.85,2.2c0,0,2.04,6.61,2.04,11.7s-3.22,11.7-1.36,11.53c1.87-0.17,4.24-8.31,4.24-6.44
					c0,1.87,0,4.07-1.53,6.27c-1.53,2.2-6.94,5.9-7.54,6.09c-0.6,0.19-6.03,2.22-7.05,2.56c-1.02,0.34-12.72,4.75-12.72,4.75
					l-12.55-5.26c0,0-1.53-6.11-3.39-8.48c-1.87-2.37-4.41-2.71-5.77-4.07c-1.36-1.36-3.39-3.73-2.2-3.73
					c1.19,0,2.71,0.34,2.71-0.17c0-0.51-2.71-1.87-2.71-1.87s0.68-9.33,2.88-13.57c2.2-4.24,8.31-5.26,8.31-5.26L236.93,224.42z"/>
				<path class="st8" d="M236.95,214.31c0,0,4.04,0.19,7.49-1.15c3.46-1.35,4.8-2.5,4.8-2.5s-2.11-1.35-5.77-0.96
					C239.83,210.08,236.95,214.31,236.95,214.31z"/>
				
					<use xlink:href="#XMLID_8_"  style="overflow:visible;fill:none;stroke:#1A2E35;stroke-linecap:round;stroke-linejoin:round;stroke-miterlimit:10;"/>
			</g>
			<path class="st4" d="M235.24,218.16c0,0,4.17,3.28,5.56,8.11"/>
			<path class="st9" d="M225.68,231.07c0,0,5.68,4.92,10.59,4.84c4.9-0.08,5.01-5.77,3.67-8.77c-1.34-3-6.16-7.56-6.16-7.56
				s2.43,5.65-1.47,8.2s-7.23,2.93-7.23,2.93L225.68,231.07z"/>
			<path class="st4" d="M244.67,251.26c0,0-7.29-1.28-10.24-2.25c-2.95-0.97-6.12-2.52-6.12-2.52"/>
			<path class="st4" d="M233.29,248.65c0,0-2.87,0.4-5.48-0.56"/>
			<path class="st4" d="M266.51,242.74c-0.01,0.71-0.05,1.4-0.12,2.08"/>
			<path class="st4" d="M264.54,228.1c0,0,1.75,6.35,1.96,12.75"/>
			<path class="st4" d="M268.16,236.05c0,0,0.97,8.82-0.97,14.73"/>
			<line class="st4" x1="264.93" y1="225.93" x2="254.1" y2="224.47"/>
			<line class="st4" x1="257.97" y1="225.23" x2="253.73" y2="225.72"/>
			<path class="st4" d="M242.59,230.82c-0.01,0.42-0.03,0.85-0.07,1.31"/>
			<path class="st4" d="M241.19,224.11c0,0,1.07,1.61,1.34,4.84"/>
		</g>
		<g>
			<path class="st10" d="M228.34,210.81c0,0,0.02-1.05,1.16-1.03s1.97,2.49,2.21,3.46c0.24,0.97-0.29,1.22-0.54,0.78
				c-0.25-0.44-3.01-2.77-3.01-2.77L228.34,210.81z"/>
			<g>
				<defs>
					<path id="XMLID_6_" d="M215.17,208.74c-2.27,1.61-3.95,4.19-4.6,6.87c-1.26,5.11,0.56,5.14,1.53,6.49
						c0.97,1.34,4.4,3.73,4.4,3.73s-3.14-0.23-2.03,2.11c1.11,2.34,1.61,2.52,3.26,2.55c1.66,0.03,1.53-1.96,1.53-1.96
						s4.26,2.4,8.39,2.98s8.48-1.83,8.22-5.47c-0.26-3.65-1.8-9.64-4.24-12.34s-7.01-5.93-9.81-6.48
						C219.36,206.72,217.06,207.4,215.17,208.74z"/>
				</defs>
				<use xlink:href="#XMLID_6_"  style="overflow:visible;fill:#999999;"/>
				<clipPath id="XMLID_12_">
					<use xlink:href="#XMLID_6_"  style="overflow:visible;"/>
				</clipPath>
				<path class="st11" d="M235.87,226.21c-0.11,0.13-0.23,0.28-0.34,0.45c-1.7,2.64-2.83,3.02-5.84,3.02
					c-3.02,0-6.78-2.45-9.42-4.71c-2.64-2.26-2.59-5.96-5.65-6.6c-1.64-0.34-3.2,0.55-4.29,1.45c0.37,1.14,1.21,1.49,1.77,2.27
					c0.97,1.34,4.4,3.73,4.4,3.73s-3.14-0.23-2.03,2.11c1.11,2.34,1.61,2.52,3.26,2.55c1.66,0.03,1.53-1.96,1.53-1.96
					s4.26,2.4,8.39,2.98C231.71,232.07,235.98,229.75,235.87,226.21z"/>
				<path class="st11" d="M214.65,210.66c0,0,6.15,5.77,17.68,3.84c0,0-0.96-2.88-5.57-5.96
					C222.15,205.47,214.46,207.01,214.65,210.66z"/>
				
					<use xlink:href="#XMLID_6_"  style="overflow:visible;fill:none;stroke:#1A2E35;stroke-linecap:round;stroke-linejoin:round;stroke-miterlimit:10;"/>
			</g>
			<path class="st4" d="M225.17,216.17c0,0,3.81,2.09,4.06,3.05c0.24,0.97-1.72,2.77-2.6,3.19c-0.88,0.42-2.27-0.13-2.25-1.27"/>
			<line class="st12" x1="218.26" y1="215.78" x2="217.68" y2="219.01"/>
			<line class="st12" x1="222.78" y1="213.06" x2="225.87" y2="211.81"/>
			<path class="st13" d="M228.29,227c0,0,1.64,1.34,3.22,0.94c1.58-0.41,2.13-1.36,2.25-3.02c0.12-1.66-1.34-3.18-1.34-3.18
				S228.4,225.87,228.29,227z"/>
			<path class="st2" d="M229.37,225.8c0,0,1.83,0.65,2.47-0.74c0.64-1.39-0.21-2.54-0.48-2.46c-0.26,0.08-1.49,0.32-1.95,1.1
				C228.95,224.48,228.93,225.61,229.37,225.8z"/>
			<path class="st13" d="M232.42,221.74c0,0-1.93-0.67-2.81,0.47c-0.44,0.57-0.37,0.96-0.37,0.96s-1.41,0.5-1.44,1.9
				c-0.03,1.4,0.49,1.94,0.49,1.94s0.8-0.42,1.07-1.21c0.28-0.78,0.74-2.26,1.71-2.51C232.04,223.05,232.14,222.61,232.42,221.74z"
				/>
			<path class="st2" d="M221.22,219.75c0.52,0.4,0.79,0.91,0.61,1.14s-0.74,0.09-1.26-0.31c-0.52-0.4-0.79-0.91-0.61-1.14
				C220.14,219.21,220.7,219.35,221.22,219.75z"/>
			<path class="st2" d="M227.18,214.57c0.52,0.4,0.79,0.91,0.61,1.14s-0.74,0.09-1.26-0.31c-0.52-0.4-0.79-0.91-0.61-1.14
				S226.66,214.17,227.18,214.57z"/>
			<g>
				<path class="st14" d="M221.82,207.21c-2.47-0.48-4.77,0.19-6.65,1.53c-2.27,1.61-3.95,4.19-4.6,6.87
					c-1.26,5.11,0.56,5.14,1.53,6.49c0.97,1.34,4.4,3.73,4.4,3.73l0.36-0.88c0,0-0.09,0.09-0.5-1.24c-0.41-1.32,1.1-2.78-0.27-4.21
					c-1.37-1.43-3.04-1.02-3.3-1.46c-0.25-0.44-0.91-2.73,0.43-4.19c1.34-1.46,3.79-1.24,4.51-2.36c0.72-1.12,0.75-2.79,2.08-3.37
					c1.32-0.59,3.33-0.02,4.46,0.26c1.05,0.26,1.57,0.89,2.26,1.06C224.84,208.32,223.14,207.47,221.82,207.21z"/>
				<path class="st14" d="M215.58,225.87l0.92-0.05C216.5,225.82,216.07,225.79,215.58,225.87z"/>
			</g>
		</g>
		<g>
			<g>
				<defs>
					<path id="XMLID_5_" d="M258.75,202.15c0,0,3.26,9.09,3.75,13.33c0.49,4.24,4.6,10.72,7.33,11.23c2.73,0.51,6.06,0.12,7.48-2.71
						c1.43-2.83,0.14-7.54-1.96-11.01c-2.11-3.47-7.69-10.32-8.47-11.36c-0.78-1.04-1-1.39-1-1.39L258.75,202.15z"/>
				</defs>
				<use xlink:href="#XMLID_5_"  style="overflow:visible;fill:#999999;"/>
				<clipPath id="XMLID_13_">
					<use xlink:href="#XMLID_5_"  style="overflow:visible;"/>
				</clipPath>
				<path class="st15" d="M277.79,222.46c-0.51,0.64-1.47,1.5-3.25,2.13c-3.2,1.13-6.78-2.83-8.29-8.67
					c-1.51-5.84-3.39-6.41-2.64-7.91c0.62-1.24,3.01-4.5,3.85-5.63c-0.27-0.35-0.48-0.61-0.59-0.75c-0.78-1.04-1-1.39-1-1.39
					l-7.12,1.92c0,0,3.26,9.09,3.75,13.33c0.49,4.24,4.6,10.72,7.33,11.23c2.73,0.51,6.06,0.12,7.48-2.71
					C277.54,223.53,277.7,223.01,277.79,222.46z"/>
				
					<use xlink:href="#XMLID_5_"  style="overflow:visible;fill:none;stroke:#1A2E35;stroke-linecap:round;stroke-linejoin:round;stroke-miterlimit:10;"/>
			</g>
			<g>
				<path class="st9" d="M256.95,188.86c0,0,0.08,7.66-0.98,9.35c-1.06,1.69-2.58,3.49-3.74,4.04c-1.15,0.55-3.92,1.64-3.94,2.67
					s2.03,1.64,3.86,1.22c1.84-0.42,3.59-2.33,4.05-2.55c0.46-0.22,2.18-0.19,3.67-0.62c1.49-0.43,3.11-1.2,4.26-1.4
					s3.54-0.05,4.6-1.4c1.05-1.35,1.87-1.91,1.87-1.91s3.46-1.53,4.38-1.75c0.92-0.21,1.96-0.88,1.52-1.69
					c-0.44-0.81-1.59-0.6-2.85-0.51c-1.26,0.09-2.87,0.75-2.87,0.75s2.12-3.16,2.94-4.17c0.82-1.01,1.98-2.13,1.31-2.95
					c-0.67-0.81-2.39-0.39-3.79,0.84c-1.4,1.23-3.19,5.43-3.19,5.43l-1.61,0.31c0,0,0.98-3.64,1.58-5.11
					c0.6-1.47,1.54-3.06,1.34-4.09c-0.21-1.03-2.03-1.18-2.85-0.63c-0.81,0.56-2.47,3.72-2.72,4.98c-0.25,1.25-1.46,4.77-1.46,4.77
					l-1.04,0.44c0,0-0.82-5.05-0.79-6.42c0.03-1.37,0.05-2.51-1.21-2.65C258.04,185.68,256.75,187.25,256.95,188.86z"/>
				<path class="st4" d="M259.68,195.54c0,0,4.59-1.17,6.08-1.14"/>
				<path class="st4" d="M258.79,200.21c0,0,1.36,0.37,3.9-0.73c2.54-1.09,3.56-1.07,3.56-1.07"/>
			</g>
		</g>
	</g>
</g>
<g id="Layer_3">
	<g>
		<g>
			<g>
				<defs>
					<path id="XMLID_4_" d="M273.62,116.67c0,0-12.19,18.45-16.48,26.03c-4.28,7.58-12.52,21.42-12.52,21.42s-9.23,14.5-9.23,20.76
						c0,6.26,8.57,8.24,11.86,6.92c3.3-1.32,17.13-19.77,17.13-19.77l10.22-15.16l14.17-17.13c0,0,23.07,7.58,31.3,10.21
						c8.24,2.64,14.17,6.59,22.74,5.93c8.57-0.66,15.16-5.6,15.16-5.6s7.25-1.65,12.19-5.6c4.94-3.95,5.27-15.16,5.27-15.16
						s4.94-8.24,8.24-17.79c3.3-9.56,3.3-18.45,3.3-18.45l-0.33-6.26l15.82-26.69L356,29.35l-21.75,29.33c0,0-10.22,4.94-14.5,5.93
						s-22.74,8.24-29.66,15.82c-6.92,7.58-12.85,31.63-12.85,31.63L273.62,116.67z"/>
				</defs>
				<use xlink:href="#XMLID_4_"  style="overflow:visible;fill:#FFFFFF;"/>
				<clipPath id="XMLID_14_">
					<use xlink:href="#XMLID_4_"  style="overflow:visible;"/>
				</clipPath>
				<g class="st16">
					<path class="st0" d="M275.93,113.73l-2.31,2.94c0,0-1.37,2.07-3.34,5.09c0.42,0.66,1.02,1.38,1.86,2.16
						c4.75,4.39,8.77,14.99,7.31,17.91c-1.46,2.92-6.21,7.68-6.21,7.68s-0.37,5.48-4.75,11.7c-4.39,6.21-7.68,9.14-9.87,12.79
						c-2.19,3.66-8.41,13.52-14.62,12.06c-6.21-1.46-6.21-8.41-6.21-8.41l-0.5,0.23c-1.11,2.66-1.89,5.18-1.89,7
						c0,6.26,8.57,8.24,11.86,6.92c3.3-1.32,17.13-19.77,17.13-19.77l10.21-15.16l13.35-16.14c0.22-0.96,0.43-1.94,0.64-2.92
						c1.46-6.94-1.46-10.97-3.66-16.81C283.37,116.81,279.18,114.13,275.93,113.73z"/>
					<path class="st0" d="M400.35,63.89L351.9,36.82l22.47,20.5l-4.54,8.87l6.6-6.99l10.71,9.77c0,0-4.25,10.35-6.8,12.55
						c-1.49,1.27-3.83,0.2-4.68-0.27c0.27,0.18,0.72,0.49,1.39,1c4.39,3.29,5.12,9.87,5.12,9.87s-3.29-2.92-7.31-4.75
						s-6.58,0-5.12,0.73c1.46,0.73,8.04,5.12,10.23,11.7c2.19,6.58-1.46,19.74-5.85,22.3c-4.39,2.56-10.23,2.19-10.23,2.19
						s3.71,2.27,4.5,5.73c0.8,3.46-1.6,1.33-4.52-1.86c-2.93-3.19-7.72-7.45-7.72-9.31c0-1.86-0.67-1.82-3.13-4.77
						c-0.83-1-1.26-1.02-1.35-0.31c-2.18-2.71-4.16-3.2-6.51-3.54c0.71-0.66,1.42-1.28,1.91-1.65c1.46-1.1,10.6-6.94,10.97-13.89
						c0.37-6.94-0.73-10.23-2.56-6.21c-1.83,4.02-2.92,9.5-5.12,9.5s0.73-10.97-1.83-12.79c-2.56-1.83-1.43,9.42-3.66,13.16
						c-2.23,3.74-4.75,5.48-4.75,4.39c0-1.1,3.29-10.6,2.56-12.79c-0.73-2.19-2.92,8.77-7.68,12.06
						c-4.75,3.29-13.52,5.48-19.37,1.83s-5.58-14.05-5.58-14.05c-1.1,11.7-15.07,19.9-15.07,19.9s8.95,2.55,11.15,3.28
						c2.19,0.73,9.87,7.31,9.87,7.31s7.08-6.63,10.97-6.94c3.88-0.32,10.04,4.95,10.04,4.95l2.38-2.38
						c2.66,0.03,8.66,0.22,12.07,1.46c0.34,0.12,0.63,0.28,0.91,0.45c0.5,1.79,1.25,3.98,2.19,6.38c0.19,0.5,0.38,0.95,0.55,1.38
						c0.1,1.4,0.19,2.94,0.37,4.59c0.73,6.58-1.83,14.25-7.68,14.25S337.57,140,337.57,140l-3.8,14.91
						c2.82,0.78,5.74,1.23,9.06,0.97c8.57-0.66,15.16-5.6,15.16-5.6s7.25-1.65,12.19-5.6c4.94-3.95,5.27-15.16,5.27-15.16
						s4.94-8.24,8.24-17.79c3.3-9.56,3.3-18.45,3.3-18.45l-0.33-6.26L400.35,63.89z M360.6,142.56c-2.26-0.85-0.15-3.89-1.58-11.45
						c1.34,0.49,3.78,1.7,5.9,4.49c-1.01-0.51-1.76-1.08-1.76-1.08s1.83,3.66,1.83,5.48S363.52,143.65,360.6,142.56z"/>
					<path class="st0" d="M366,78.67c0,0-1.86-3.19-5.59-5.85c-3.72-2.66-9.05-2.93-9.05-2.93s5.85,3.19,9.31,5.85
						C364.13,78.4,366,78.67,366,78.67z"/>
				</g>
				<use xlink:href="#XMLID_4_"  style="overflow:visible;fill:none;stroke:#1A2E35;stroke-miterlimit:10;"/>
			</g>
			<g>
				<defs>
					<path id="XMLID_3_" d="M302.31,109.66c4.36,0.07,8.91,1.29,10.53,3.05c3.62,3.95,4.61,10.54,2.31,19.11
						c-2.31,8.57-3.3,27.02-5.27,29.66c-1.98,2.64-7.25,2.64-13.51,2.31c-6.26-0.33-8.9-4.61-9.56-12.19s3.95-33.61,6.26-38.56
						C294.23,110.55,298.19,109.6,302.31,109.66z"/>
				</defs>
				<use xlink:href="#XMLID_3_"  style="overflow:visible;fill:#FFFFFF;"/>
				<clipPath id="XMLID_15_">
					<use xlink:href="#XMLID_3_"  style="overflow:visible;"/>
				</clipPath>
				<path class="st17" d="M293.71,153.16c0,0,4.02,1.46,9.14,1.46s6.21-9.14,7.31-16.08s4.73-15.98,4.02-19.37
					c-1.34-6.45-12.04-4.86-12.04-4.86s0.97-6.18,6.38-4.83c7.73,1.93,6.89,11.65,6.76,17c-0.13,5.35-3.86,32-5.4,35.01
					c-1.54,3.01-13.24,5.2-17.62,3.01c-4.39-2.19-5.85-9.14-5.85-9.14S290.79,154.62,293.71,153.16z"/>
				<use xlink:href="#XMLID_3_"  style="overflow:visible;fill:none;stroke:#1A2E35;stroke-miterlimit:10;"/>
			</g>
			<g>
				<defs>
					<path id="XMLID_2_" d="M316.13,117.99c0,0,0-5.6,6.26-7.25c6.26-1.65,12.19-1.98,13.84,3.3c1.65,5.27,1.32,28.34,1.65,33.28
						c0.33,4.94,0.33,5.6-4.61,9.56c-4.94,3.95-12.52,1.65-15.49,0.99c-2.97-0.66-5.6-6.26-5.6-8.9
						C312.18,146.32,316.13,117.99,316.13,117.99z"/>
				</defs>
				<use xlink:href="#XMLID_2_"  style="overflow:visible;fill:#FFFFFF;"/>
				<clipPath id="XMLID_16_">
					<use xlink:href="#XMLID_2_"  style="overflow:visible;"/>
				</clipPath>
				<path class="st18" d="M313.08,140.37c0,0,0.37,5.85,4.75,8.04c4.39,2.19,16.08,5.12,16.45,2.92c0.37-2.19-4.02-1.1-6.94-3.29
					c-2.92-2.19,2.92-2.92,5.48-2.56c2.56,0.37,2.19-6.58,2.19-12.06s2.19-11.33,0.73-16.08c-1.46-4.75-11.33-5.48-14.25-3.66
					c-2.92,1.83-4.39,2.92-4.39,2.92s0.44-6.19,9.57-6.55s10.16,3.63,10.89,16.42c0.73,12.79,1.1,21.56,0,25.95
					c-1.1,4.39-5.12,7.68-11.33,7.31c-6.21-0.37-8.41-0.73-11.33-4.75C311.99,150.97,310.16,147.31,313.08,140.37z"/>
				<use xlink:href="#XMLID_2_"  style="overflow:visible;fill:none;stroke:#1A2E35;stroke-miterlimit:10;"/>
			</g>
			<path class="st19" d="M337.01,118.26c0,0,1.61-8.21,5.96-8.36c2.63-0.09,8.74,0.54,10.06,4.17c1.32,3.62,3.64,9.18,3.64,9.18
				s4.75,11.76,1.45,18.68"/>
			<path class="st19" d="M358.97,130.51c0,0,4.61,1.65,7.91,7.91"/>
			<path class="st19" d="M334.58,110.08c0,0,9.89-4.28,12.52-15.49"/>
			<path class="st19" d="M350.4,73.5c0,0,3.3,4.61,8.9,6.92s14.5,3.62,18.12,10.22"/>
			<path class="st19" d="M370.17,79.43c0,0,7.91,2.64,10.87,8.9"/>
			<path class="st19" d="M247.92,163.46c0,0,6.59,4.61,9.23,7.58"/>
			<path class="st19" d="M261.76,145.34c0,0,6.59,1.65,9.23,6.92"/>
			<g>
				<defs>
					<path id="XMLID_1_" d="M305.53,96.66c0,0,0.38,3.39-0.38,9.8c-0.75,6.41-5.28,11.31-5.28,11.31s1.51,1.77,2.26,7.54
						c0.85,6.49-1.57,19.19-4.58,23.71c-3.02,4.52-5.97,6.44-9.74,6.44s-4.9-4.9-4.9-9.8c0-4.9-2.64-11.68-2.64-11.68
						s-7.92-14.7-7.54-19.6c0.45-5.9,5.06-12.62,7.64-17.77c2.53-5.04,5.14-10.05,7.82-15.02c0,0,3.88-6.43,12.82-8.29
						c5.13-1.07,14.7-6.03,14.7-6.03"/>
				</defs>
				<use xlink:href="#XMLID_1_"  style="overflow:visible;fill:#FFFFFF;"/>
				<clipPath id="XMLID_17_">
					<use xlink:href="#XMLID_1_"  style="overflow:visible;"/>
				</clipPath>
				<path class="st20" d="M273.97,119.17c0,0,1.46-8.41,13.52-6.21c12.06,2.19,10.6,2.56,6.58-1.83c-4.02-4.39-6.21-6.58-2.56-6.58
					s8.77,3.29,10.23,2.19c1.46-1.1,0.73-11.7,2.19-14.25c1.46-2.56,1.87,2.12,1.87,2.12s0.14,3.8,0,6.38
					c-0.39,7.15,0.13,6.98-1.55,10.24c-1.68,3.26-1.42,6.49-1.42,6.49s1.83,17.91,0,24.85c-1.83,6.94-9.14,14.25-14.25,14.25
					c-5.12,0-8.04-14.25-10.6-20.83C275.44,129.4,273.97,119.17,273.97,119.17z"/>
				<use xlink:href="#XMLID_1_"  style="overflow:visible;fill:none;stroke:#1A2E35;stroke-miterlimit:10;"/>
			</g>
			<path class="st19" d="M294.27,114.64c4.75,0,5.61,3.12,5.61,3.12s-2.2-7.9-6.15-10.54"/>
			<path class="st19" d="M304.83,109.63c0,0,6.86-5.8,5.01-18.21"/>
			<path class="st19" d="M275.31,115.82c0,0,4.01-5.11,10.94-3.28"/>
			<path class="st19" d="M284.24,141.83c0,0,3.07-3.57,8-2.54c1.03,0.22,1.77,1.08,1.83,2.08c0.12,2.03,0.33,5.51,0.33,6.89
				c0,2.01-0.42,4.42-2.54,4.82c-2.11,0.4-4.65,1.21-5.92,0.4c-1.27-0.8-1.72-2.11-1.96-9.67"/>
			<path class="st19" d="M277.25,112.05c0,0,4.26-3.16,8.64-2.07"/>
			<path class="st19" d="M318.35,154.85c0,0,3.65,2.19,11.67,1.46"/>
			<path class="st19" d="M293.91,159.96c0,0,1.46,1.09,11.67,0.73"/>
			<path class="st19" d="M291.36,158.13c0,0,2.55-0.73,9.48,0.73"/>
			<path class="st19" d="M323.09,113.64c0,0,3.28-2.19,9.85,1.09"/>
			<path class="st19" d="M304.85,114.37c0,0,3.65-2.19,8.39,2.55"/>
			<path class="st19" d="M340.27,107.45c0,0,9.57-4.41,15.21-14.96"/>
			<path class="st19" d="M343.14,114.24c0,0,6.34-1.98,11.28,3.17"/>
			<path class="st19" d="M323.14,154.03c0,0,4.36,1.78,8.91,0.59"/>
			<path class="st19" d="M262.75,147.97c0,0,2.97,2.97,6.59,4.61"/>
			<path class="st19" d="M272.31,125.89c0,0,5.93,3.3,6.59,6.59"/>
		</g>
		<g>
			<g>
				<polygon class="st21" points="346.78,33.63 410.04,74.82 422.57,51.09 356,15.18 				"/>
				<polygon class="st0" points="355.6,21.55 415.66,62.6 418.44,56.77 				"/>
			</g>
			<path class="st21" d="M410.15,63.29c0,1.46-1.18,2.64-2.64,2.64s-2.64-1.18-2.64-2.64s1.18-2.64,2.64-2.64
				S410.15,61.83,410.15,63.29z"/>
		</g>
		<g>
			<path class="st14" d="M364.13-5.69L352.05,18.8l79.08,48.77l38.44-73.26C469.58-5.69,420.3-31.13,364.13-5.69z"/>
			<path class="st21" d="M432.56,56.7c0,1.7-1.38,3.08-3.08,3.08c-1.7,0-3.08-1.38-3.08-3.08s1.38-3.08,3.08-3.08
				C431.18,53.62,432.56,55,432.56,56.7z"/>
			<path class="st21" d="M438.71,46.15c0,1.7-1.38,3.08-3.08,3.08c-1.7,0-3.08-1.38-3.08-3.08c0-1.7,1.38-3.08,3.08-3.08
				C437.33,43.08,438.71,44.45,438.71,46.15z"/>
			<circle class="st21" cx="441.79" cy="35.61" r="3.08"/>
		</g>
		<g>
			<path class="st0" d="M375.65,81.25C375.19,80.94,375.27,81.03,375.65,81.25L375.65,81.25z"/>
		</g>
	</g>
</g>
</svg>
