<?xml version="1.0" encoding="utf-8"?>
<!-- Generator: Adobe Illustrator 23.0.2, SVG Export Plug-In . SVG Version: 6.00 Build 0)  -->
<svg version="1.1" id="Layer_1" xmlns="http://www.w3.org/2000/svg" xmlns:xlink="http://www.w3.org/1999/xlink" x="0px" y="0px"
	 viewBox="0 0 600 300" style="enable-background:new 0 0 600 300;" xml:space="preserve">
<style type="text/css">
	.st0{fill:#FF5E00;}
	.st1{fill:#181F37;}
	.st2{fill:#FFFFFF;}
	.st3{fill:#915D45;}
	.st4{fill:#845640;}
	.st5{fill:#1F2B45;}
	.st6{fill:#39496A;}
	.st7{fill:#DFAB89;}
	.st8{fill:#E2BC91;}
	.st9{fill:#D89970;}
	.st10{fill:#C58864;}
	.st11{fill:#D8AA70;}
	.st12{fill:#CC965F;}
	.st13{fill:none;}
</style>
<g>
	<ellipse class="st0" cx="322" cy="252.34" rx="180.9" ry="45.72"/>
	<g>
		<path class="st1" d="M343.58,223.1c-14.28-1.7-28.71-1.97-43.06-0.96c-41.98,2.97-61.98,10.12-55.8,20.73
			c7.12,12.23,31.26,9.47,31.26,9.47s-10.93,20.48-8.61,20.84c2.32,0.36,24.39-0.7,30.93-0.44c6.54,0.27,19.98-14.46,19.98-14.46
			h11.55c0,0,16.55,15.93,31.19,15.86c14.64-0.06,18.09-2.88,18.09-2.88V250.1C404.52,249.22,409.05,230.88,343.58,223.1z"/>
		<g>
			<path class="st0" d="M280.87,82.05c17.14-13.71,39.99-12.57,60.55-5.71c17.89,5.37,40.69,10.04,53.58,24.43
				c0.56-4.35,0.84-8.98-0.35-12.04c-0.84-2.16-1.68-4.31-2.52-6.47c-0.89-2.29-1.78-4.58-2.98-6.72
				c-2.98-5.3-7.48-8.74-12.84-11.35c-33.56-16.32-74.34-17.65-107.59,0.65c-4.11,2.26-8.1,4.78-11.53,7.9
				c-1.91,1.74-3.54,3.57-4.94,5.5c-7.06,9.74-11.3,31.03-2.84,40.62c1.34,1.52,2.58,3.06,3.74,4.63
				C256.08,106.43,266.45,92.62,280.87,82.05z"/>
			<path class="st1" d="M341.42,76.34c-20.57-6.86-43.42-8-60.55,5.71c-14.42,10.57-24.79,24.38-27.72,41.43
				c7.41,10.02,11.19,21.01,12.72,33.94c0.54,4.58,0.94,9.4,3.49,13.23c2.5,3.75,6.71,5.99,10.89,7.67
				c16.52,6.63,34.82,6.86,52.62,7c10.53,0.08,22.65,1.51,32.31-2.91c0.8-0.37,1.63-0.75,2.19-1.43c0.59-0.7,0.81-1.63,1.01-2.53
				c1.7-7.57,3.02-15.23,3.94-22.94c0.87-7.28,1.54-15.02,5.9-20.92c2.37-3.2,5.65-5.58,8.37-8.48c4.53-4.82,6.38-11.38,7.27-17.78
				c0.29-2.07,0.77-4.76,1.13-7.55C382.11,86.38,359.32,81.71,341.42,76.34z"/>
			<path class="st2" d="M306.32,255.6c-1.61,1.37-4.34,1.27-5.42,3.08c-0.4,0.66-0.48,1.47-0.55,2.24
				c-0.41,4.42-0.35,9.19-4.9,11.32c-3.42,1.61-7.65,1.26-11.32,1.33c-8.15,0.15-16.29-0.87-24.16-2.92
				c-0.56-0.15-1.15-0.33-1.53-0.77c-0.48-0.55-0.49-1.35-0.46-2.08c0.03-0.69,0.1-1.37,0.19-2.03c0.83-6.39,3.88-11.84,7-17.26
				c2.56-4.46,5.15-8.9,6.62-13.85c0.07-0.22,0.14-0.45,0.21-0.66c0.22-0.73,0.46-1.49,0.98-2.02c0.66-0.69,1.65-0.88,2.57-1.02
				c10.01-1.61,20.2-1.99,30.29-1.13C305.76,229.83,308.59,253.67,306.32,255.6z"/>
			<path class="st1" d="M306.32,255.6c-1.61,1.37-4.34,1.27-5.42,3.08c-0.4,0.66-0.48,1.47-0.55,2.24
				c-0.41,4.42-0.35,9.19-4.9,11.32c-3.42,1.61-7.65,1.26-11.32,1.33c-8.15,0.15-16.29-0.87-24.16-2.92
				c-0.56-0.15-1.15-0.33-1.53-0.77c-0.48-0.55-0.49-1.35-0.46-2.08c0.03-0.69,0.1-1.37,0.19-2.03c17.26,3.07,29.05,2.9,31.26-2.06
				c2.29-5.14,3.14-13.42,3.14-13.42s-16.85,1.43-27.4-1.78c2.56-4.46,5.15-8.9,6.62-13.85c0.07-0.22,0.14-0.45,0.21-0.66
				c0.22-0.73,0.46-1.49,0.98-2.02c0.66-0.69,1.65-0.88,2.57-1.02c10.01-1.61,20.2-1.99,30.29-1.13
				C305.76,229.83,308.59,253.67,306.32,255.6z"/>
			<path class="st2" d="M378.72,235.52c3.42,11.61,13.13,20.45,13.81,33.14c0.04,0.73,0.02,1.54-0.46,2.09
				c-0.38,0.43-0.97,0.61-1.53,0.76c-6.61,1.73-13.43,2.72-20.26,2.91c-5.6,0.15-12.22,0.27-16.11-4.52
				c-1.32-1.63-2.23-3.53-3.03-5.45c-0.61-1.45-0.71-3.65-1.53-4.89c-1.08-1.82-3.81-1.71-5.42-3.09
				c-2.26-1.93,0.56-25.78,0.48-25.78c10.09-0.86,20.29-0.48,30.3,1.13c0.92,0.15,1.9,0.34,2.57,1.02c0.52,0.54,0.76,1.3,0.98,2.03
				C378.59,235.08,378.65,235.3,378.72,235.52z"/>
			<path class="st1" d="M344.19,256.46c1.61,1.37,4.34,1.27,5.42,3.08c0.4,0.66,0.48,1.47,0.55,2.24c0.41,4.42,0.35,9.19,4.9,11.32
				c3.42,1.61,7.65,1.26,11.32,1.33c8.15,0.15,16.29-0.87,24.16-2.92c0.56-0.15,1.15-0.33,1.53-0.77c0.48-0.55,0.49-1.35,0.46-2.08
				c-0.03-0.69-0.1-1.37-0.19-2.03c-17.26,3.07-29.05,2.9-31.26-2.06c-2.29-5.14-3.14-13.42-3.14-13.42s16.85,1.43,27.4-1.78
				c-2.56-4.46-5.15-8.9-6.62-13.85c-0.07-0.22-0.14-0.45-0.21-0.66c-0.22-0.73-0.46-1.49-0.98-2.02c-0.66-0.69-1.65-0.88-2.57-1.02
				c-10.01-1.61-20.2-1.99-30.29-1.13C344.75,230.69,341.93,254.53,344.19,256.46z"/>
			<path class="st0" d="M273.83,128.18c-0.59,0.99-1.83,1.45-2.97,1.84c-6.64,2.26-13.31,4.47-20.01,6.6
				c-3.29,1.05-7.18,2.01-10.02,0.15l-6.31-3.48c0.64-2.38,0.79-6.2,2.59-7.99c0.9-0.89,2.02-1.61,2.62-2.72
				c1.36-2.54-0.57-5.7,0.14-8.48c0.5-1.99,2.24-3.39,3.27-5.16c2.32-4.02,0.59-8.59,1.09-12.9c1.06-9.35,8-22.29,16.88-26.25
				c0.16-0.07,4.14,13.83,4.29,14.86c0.54,3.63,1.22,7.24,2.03,10.82c0.82,3.6,1.77,7.16,2.87,10.68c1.04,3.37,3.06,7,3.61,10.47
				c0.02,0.15,0.05,0.3,0.06,0.45c0.35,2.71,0.06,5.7,0.24,8.43C274.26,126.4,274.31,127.38,273.83,128.18z"/>
			<path class="st1" d="M273.97,117.06c-9.65,5.11-19.48,9.89-29.31,14.68c2-4.57,4-9.13,6-13.69c0.82-1.9,1.79-3.94,3.66-4.83
				c1.67-0.8,3.63-0.47,5.48-0.57c1.84-0.09,3.99-0.99,4.27-2.82c0.15-0.97-0.29-1.93-0.57-2.87c-1.28-4.14,0.45-8.97,3.93-11.49
				c0.82,3.6,1.77,7.16,2.87,10.68c1.04,3.37,3.06,7,3.61,10.47C273.93,116.76,273.96,116.91,273.97,117.06z"/>
			<path class="st0" d="M406.1,132.09c-0.08,0.21-0.15,0.39-0.23,0.57c-1.03,2.35-2.48,2.57-4.87,4.1c-2.9,1.86-6.76,0.9-10.01-0.15
				c-3.69-1.19-7.37-2.4-11.05-3.62c-2.74-0.93-7.55-1.42-9.78-3.26c0.11-0.91,0.24-1.82,0.37-2.73c1.77-12.75,4.25-25.4,7.43-37.85
				c1.54-6.06,3.26-12.08,5.13-18.04c0.16-0.51,0.38-1.09,0.88-1.29c0.54-0.23,1.14,0.1,1.62,0.43c6.4,4.38,9.78,11.13,10.9,18.62
				c0.94,6.16-0.94,14.67,3.31,19.83c0.54,0.65,1.19,1.22,1.57,1.99c1.03,2.13-0.59,4.66-0.14,6.98c0.33,1.66,1.67,2.9,2.68,4.26
				C405.83,124.52,407.23,128.92,406.1,132.09z"/>
			<path class="st1" d="M390.8,125.2c-0.01,0.58-0.11,1.21-0.53,1.62c-0.43,0.43-1.12,0.51-1.75,0.56c-6,0.45-12.13,0.88-17.99-0.38
				c1.77-12.75,4.25-25.4,7.43-37.85c1.1,3.51-0.73,7.92,0.93,11.37c0.64,1.36,1.79,2.46,2.24,3.88c0.89,2.88-1.33,5.76-1.7,8.76
				c-0.05,0.41-0.06,0.86,0.14,1.22c0.43,0.78,1.5,0.82,2.38,0.89C386.83,115.65,390.99,120.3,390.8,125.2z"/>
			<path class="st1" d="M262.87,179.2c-0.5,5.58-0.83,11.17-1.13,16.75c-0.49,9.31-0.45,19.75,6.01,26.47
				c3.42,3.56,8.25,5.51,13.12,6.33c5.55,0.93,11.11,0.12,16.65,0.64c14.26,1.32,28.59,0.84,42.87,0.36
				c9.93-0.33,19.75-3.66,29.03-7.06c3.69-1.35,7.54-2.8,10.17-5.72c3.7-4.08,4.2-10.07,4.25-15.57c0.04-4.11-0.07-8.25-0.77-12.3
				c-0.57-3.29-1.52-6.5-2.47-9.7c-3.94-13.27-7.87-26.55-11.81-39.82c-6.94,4.49-16.48,0.98-24.18,3.98
				c0.16,8.66-0.78,17.35-2.79,25.78c-6.11-0.44-12.09-1.2-18.23-1.21c-2.69,0-5.05,0.15-7.64,0.73c-1.68,0.38-5.89,1.68-7.36,0.43
				c-0.28-0.24-0.34-0.63-0.39-0.99c-1.84-13.74-3.69-27.48-5.53-41.22c-5.86,0.41-11.72,0.82-17.58,1.23
				c-3.54,0.25-7.3,0.58-10.11,2.75c-2.35,1.82-3.65,4.66-4.72,7.44c-3.19,8.32-4.38,17.72-5.73,26.54
				C263.83,169.73,263.29,174.46,262.87,179.2z"/>
			<g>
				<path class="st3" d="M295.84,57.46c-0.53-1.76-1.1-3.58-2.33-4.94c-1.23-1.36-3.34-2.11-4.95-1.24
					c-1.02,0.55-1.65,1.63-2.05,2.71c-1.36,3.72-0.39,8.19,2.39,11.01c1.26,1.27,2.98,2.25,4.76,2.05c1.78-0.21,3.39-1.97,2.95-3.7
					L295.84,57.46z"/>
				<path class="st3" d="M346.4,58.02c0.53-1.76,1.1-3.58,2.33-4.94c1.23-1.36,3.34-2.11,4.95-1.24c1.02,0.55,1.65,1.63,2.05,2.71
					c1.36,3.72,0.39,8.19-2.39,11.01c-1.26,1.27-2.98,2.25-4.76,2.05c-1.78-0.21-3.39-1.97-2.95-3.7L346.4,58.02z"/>
				<path class="st4" d="M350.73,53.52c-0.17-2.46-0.43-4.84-0.75-7.09c-0.71-5.03-2.13-10.32-5.92-13.71
					c-2.79-2.5-6.51-3.66-10.12-4.67c-14.25-3.99-35.86-1.2-41.25,15.1c-2.26,6.84-0.58,14.51,0.55,21.4
					c1.61,9.82,8.01,21.07,17.42,25.58c10.27,4.93,23.05,2.34,30.63-6.09C348.84,75.65,351.49,64.53,350.73,53.52z"/>
				<path class="st1" d="M328.47,79.71c-1.06,2.44-3.21,3.58-5.7,3.7c-1.25,0.06-2.82-0.17-3.93-0.75
					c-0.43-0.22-2.16-2.12-2.31-2.11C320.58,80.51,324.59,81.06,328.47,79.71z"/>
				<path class="st5" d="M356.36,31.39c0.81,0.27,1.58,0.65,2.29,1.13c0.71,0.49,1.42,1.41,0.96,2.14
					c-0.17,0.29-0.47,0.46-0.77,0.61c-0.99,0.51-2.02,0.98-3.06,1.38c1.31-0.07,2.08,1.6,1.84,2.89c-0.46,2.51-3.54,4.14-5.86,3.1
					c2.05,0.77-1.11,20.75-1.62,24.05c0.62-4.35-1.89-9.72-3.87-13.33c-0.09-0.18-0.21-0.38-0.39-0.48c-0.17-0.1-0.4-0.13-0.59-0.09
					c-9.85,1.54-16.05,2.75-25.24,2.71c-7.2-0.03-16.69-0.78-23.81-1.29c-0.39-0.03-0.8-0.06-1.14,0.11
					c-0.66,0.31-0.86,1.14-0.96,1.87c-0.45,3.34-0.33,6.63-0.4,9.97c-0.69-1.89-4.08-21.25-3.74-21.23
					c-1.58-0.13-3.19-0.97-3.78-2.42c-0.59-1.46,0.25-3.46,1.81-3.69c-1.2-0.26-2.34-0.8-3.32-1.53c-0.79-0.58-1.53-1.5-1.3-2.45
					c0.26-1.12,1.83-1.62,2.79-1.77c-0.91-1.36-3.74-1.84-3.24-4.2c0.19-0.9,0.86-1.66,1.7-2.02c1.68-0.72,3.51-0.09,5.05,0.77
					c-0.87-0.69-1.26-1.77-1.21-2.88c0.03-1.12,0.49-2.24,1.33-2.99c1.65-1.51,4.18-1.67,6.3-0.95c-2.46-1.92-2.36-6.12-0.03-8.19
					c2.33-2.06,6.2-1.85,8.56,0.18c-0.64-1.74,0.14-3.87,1.73-4.8c2.06-1.2,4.27,0.09,6.02,1.21c1.11-1.44,3.71-1.79,5.94-1.34
					c2.41,0.49,4.39,1.93,3.53,3.95c0.79-1.87,2.33-3.66,4.36-3.84c2.03-0.18,4.1,2.11,3.12,3.9c1.71-2.21,4.58-3.8,7.29-3.08
					c2.43,0.64,4.04,3.76,2.94,5.88c1.35-1.68,3.84-2.41,5.86-1.6c2.26,0.89,3.63,3.59,3.04,5.94c0.43-2.48,4.28-3.1,5.94-1.2
					c1.67,1.89,1.2,4.99-0.43,6.91c1.52-0.59,3.14-1.19,4.75-0.79c0.83,0.21,1.58,0.74,1.99,1.47c0.05,0.07,0.08,0.14,0.11,0.22
					C362.11,28.52,358.16,30.29,356.36,31.39z"/>
				<path class="st1" d="M356.36,31.39c0.81,0.27,1.58,0.65,2.29,1.13c0.71,0.49,1.42,1.41,0.96,2.14
					c-0.17,0.29-0.47,0.46-0.77,0.61c-0.99,0.51-2.02,0.98-3.06,1.38c1.31-0.07,2.08,1.6,1.84,2.89c-0.46,2.51-3.54,4.14-5.86,3.1
					c2.05,0.77-1.11,20.75-1.62,24.05c0.62-4.35-1.89-9.72-3.87-13.33c-0.09-0.18-0.21-0.38-0.39-0.48c-0.17-0.1-0.4-0.13-0.59-0.09
					c-9.85,1.54-16.05,2.75-25.24,2.71c-7.2-0.03-16.69-0.78-23.81-1.29c-0.39-0.03-0.8-0.06-1.14,0.11
					c-0.66,0.31-0.86,1.14-0.96,1.87c-0.45,3.34-0.33,6.63-0.4,9.97c-0.69-1.89-4.08-21.25-3.74-21.23
					c-1.58-0.13-3.19-0.97-3.78-2.42c-0.59-1.46,0.25-3.46,1.81-3.69c-1.2-0.26-2.34-0.8-3.32-1.53c-0.79-0.58-1.53-1.5-1.3-2.45
					c0.26-1.12,1.83-1.62,2.79-1.77c-0.91-1.36-3.74-1.84-3.24-4.2c0.19-0.9,0.86-1.66,1.7-2.02c1.68-0.72,3.51-0.09,5.05,0.77
					c-0.87-0.69-1.26-1.77-1.21-2.88c0.79,1.51,2.45,2.35,4.03,2.96c-2.16,0.47-2.16,3.95-0.35,5.23c1.79,1.28,4.26,0.94,6.4,0.39
					c-0.67,1.75,1.55,3.47,3.38,3.1c1.83-0.37,3.12-1.94,4.26-3.42c0.09,2.02,1.67,3.88,3.64,4.31c1.98,0.42,4.17-0.62,5.08-2.42
					c2.67,3.84,9.49,3.45,11.7-0.67c1.79,3.26,7.26,3.44,9.27,0.32c-1.13,2.19,1.31,4.86,3.77,4.86c2.46,0.01,4.57-1.69,6.3-3.44
					c0.03,2.02,3.21,2.76,4.49,1.21c1.28-1.55,0.55-4.11-1.11-5.27c0.89,0.64,2.26,0.48,2.98-0.35c0.72-0.82,0.67-2.21-0.08-2.99
					c3.08,0.1,6.15-1.1,8.45-3.13c0.05,0.07,0.08,0.14,0.11,0.22C362.11,28.52,358.16,30.29,356.36,31.39z"/>
				<path class="st1" d="M302.19,70.08c0.78,1.59,2.98,2.29,4.63,2.45c0.89,0.09,1.85,0.02,2.71-0.23c0.74-0.23,1.9-0.86,2.03-1.71
					c0.02-0.13-0.05-0.25-0.19-0.25c-0.38-0.02-0.73,0.12-1.09,0.27c-0.36,0.15-0.74,0.24-1.11,0.37c-0.74,0.26-1.49,0.41-2.28,0.41
					c-0.79,0-1.57-0.14-2.3-0.42c-0.76-0.28-1.41-0.78-2.11-1.16C302.29,69.71,302.11,69.91,302.19,70.08z"/>
				<path class="st1" d="M341.15,69.51c-1.05,1.01-2.45,1.64-3.91,1.77c-0.68,0.06-1.41,0.05-2.09-0.05
					c-0.35-0.05-0.68-0.16-1.02-0.23c-0.34-0.08-0.8-0.19-1.14-0.12c-0.27,0.06-0.35,0.37-0.24,0.59c0.15,0.32,0.64,0.61,0.96,0.74
					c0.38,0.16,0.8,0.24,1.2,0.31c0.86,0.13,1.68,0.1,2.53-0.11c1.58-0.38,3.04-1.27,4.04-2.55
					C341.69,69.61,341.39,69.28,341.15,69.51z"/>
				<path class="st1" d="M301.14,67.24c1.64,0.7,3.47,0.91,5.24,1.06c0.89,0.07,1.78,0.1,2.67,0.09c0.81-0.01,1.99,0.01,2.69-0.44
					c0.47-0.3,0.36-0.96-0.15-1.14c-0.43-0.15-0.86-0.09-1.3-0.07c-0.44,0.02-0.89,0.04-1.33,0.06c-0.82,0.04-1.65,0.05-2.48,0.02
					c-1.71-0.06-3.38-0.4-5.09-0.5C300.92,66.3,300.69,67.05,301.14,67.24z"/>
				<path class="st1" d="M333.06,68.54c1.64-0.24,3.26-0.58,4.85-1.03c0.82-0.23,1.59-0.54,2.38-0.87c0.72-0.31,1.48-0.59,1.77-1.38
					c0.08-0.21-0.09-0.39-0.26-0.47c-0.77-0.31-1.58,0.12-2.31,0.36c-0.73,0.24-1.46,0.48-2.19,0.72c-1.52,0.5-3.06,0.9-4.63,1.2
					c-0.4,0.08-0.63,0.56-0.53,0.93C332.25,68.45,332.66,68.6,333.06,68.54z"/>
				<path class="st1" d="M291.15,60.62c-0.57-0.01-0.98-0.47-1.03-1.03c-0.07-0.73,0.43-1.46,0.64-2.14
					c0.2-0.67,0.18-1.35-0.14-1.98c-0.32-0.62-0.97-1.08-1.65-0.74c-0.3,0.15-0.3,0.65,0,0.8c0.25,0.12,0.44,0.19,0.6,0.36
					c0.15,0.17,0.25,0.44,0.28,0.68c0.08,0.69-0.34,1.39-0.5,2.04c-0.18,0.73-0.13,1.45,0.35,2.06c0.19,0.25,0.44,0.45,0.74,0.55
					c0.34,0.12,0.62,0.03,0.89-0.2C291.49,60.89,291.35,60.62,291.15,60.62z"/>
				<path class="st1" d="M351.99,62.2c1.25-0.13,2.12-1.36,1.85-2.58c-0.13-0.6-0.61-1.22-0.66-1.77c-0.02-0.24,0.04-0.38,0.17-0.6
					l0.05-0.09l0.07-0.06l0.18-0.05c0.47-0.03,0.63-0.61,0.24-0.87c-0.58-0.39-1.34,0.02-1.63,0.58c-0.35,0.67-0.2,1.39,0.14,2.02
					c0.3,0.58,0.71,1.08,0.63,1.76c-0.07,0.6-0.51,1.12-1.08,1.31C351.76,61.91,351.78,62.22,351.99,62.2z"/>
			</g>
			<path class="st6" d="M313.6,135.83c-0.41,8.11-2.57,16.16-1.92,24.26c0.41,4.97,1.87,9.94,1.2,14.89
				c-0.79,5.82-4.46,11-4.86,16.86c-0.55,7.96,5.06,15.8,3.07,23.54c-0.56,2.19-1.7,4.2-2.26,6.4c-0.87,3.4-0.23,6.86,0.66,10.17
				c0.26,0.99,2.02,7.97,0.87,8.6c-5.11,2.8-12,3.11-18.1,3.06c-1.43,0-2.82-0.03-4.12-0.06c-8.24-0.14-18.05-0.4-25.96-2.79
				c0.57-9.64,2.74-19.42,3.71-29.09c0.96-9.53,1.67-19.08,2.22-28.64c0.46-7.8,0.8-15.63,1.09-23.44c0.09-2,0.16-3.99,0.23-5.99
				c0.15-4.62,0.25-9.24,0.43-13.85c0.01-0.3,0.02-0.58,0.03-0.88c0.16-3.76,1.55-6.46,3.19-9.86
				c5.44-11.36,19.41-24.42,32.43-15.08C312.11,118.66,314,127.72,313.6,135.83z"/>
			<path class="st1" d="M313.6,135.83c-0.41,8.11-2.57,16.16-1.92,24.26c0.41,4.97,1.87,9.94,1.2,14.89
				c-0.79,5.82-4.46,11-4.86,16.86c-0.55,7.96,5.06,15.8,3.07,23.54c-0.56,2.19-1.7,4.2-2.26,6.4c-0.87,3.4-0.23,6.86,0.66,10.17
				c0.26,0.99,2.02,7.97,0.87,8.6c-5.11,2.8-12,3.11-18.1,3.06c0.67,0,1.29-6.52,1.38-7.11c0.43-2.91,2.39-4.68,2.25-7.65
				c-0.39-8.24-1.05-16.46-1.98-24.65c-1.46,1.88-2.92,3.77-4.39,5.65c-0.59,0.76-1.34,1.59-2.3,1.52
				c-1.46-0.11-1.85-2.07-1.75-3.54c0.58-8.78,3.69-17.09,6.01-25.51c2.21-8.02,2.25-14.72,1.87-22.87
				c-0.02-0.49-0.06-1.02-0.29-1.45c-0.81-1.57-3.13-1.1-4.79-0.5c-6.08,2.17-12.68,2.88-19.09,2.09c0.09-2,0.16-3.99,0.23-5.99
				c0.15-4.62,0.25-9.24,0.43-13.85c0.01-0.3,0.02-0.58,0.03-0.88c0.16-3.76,1.55-6.46,3.19-9.86
				c5.44-11.36,19.41-24.42,32.43-15.08C312.11,118.66,314,127.72,313.6,135.83z"/>
			<path class="st6" d="M385.37,235.27c-0.16,2.99-3.39,3.77-5.9,4.55c-6.7,2.07-13.97,2.65-20.94,2.85
				c-0.81,0.02-5.72,0.11-10.73-0.1c-5.77-0.25-11.65-0.9-11.49-2.54c0.38-3.77,3.14-7.04,3.3-10.82c0.13-3.11-1.53-6.06-1.51-9.16
				c0.01-3.93,2.68-7.76,1.63-11.54c-0.46-1.66-1.59-3.04-2.32-4.58c-2.56-5.34-0.31-11.62-0.55-17.53
				c-0.34-8.59-5.69-15.81-7.79-23.95c-2.15-8.34,0.06-16.68-1.29-25.06c-1.37-8.43-2.08-18.83,5.42-24.78
				c8.65-6.88,22.65-4.42,30.25,2.8c5.05,4.8,7.85,11.56,9.25,18.39c0.35,1.77,0.64,3.56,0.86,5.36c0.62,5.12,0.79,10.29,1.15,15.44
				c0.21,2.81,0.47,5.61,0.79,8.41c2.23,19.94,6.83,39.58,8.12,59.64c0.16,2.46-0.02,5.06,0.34,7.51
				C384.21,231.75,385.45,233.68,385.37,235.27z"/>
			<path class="st1" d="M353.13,214.52c-2.6-1.05-5.18-2.16-7.71-3.36c0.43,10.49,1.22,20.97,2.38,31.4
				c-5.77-0.25-11.65-0.9-11.49-2.54c0.38-3.77,3.14-7.04,3.3-10.82c0.13-3.11-1.53-6.06-1.51-9.16c0.01-3.93,2.68-7.76,1.63-11.54
				c-0.46-1.66-1.59-3.04-2.32-4.58c-2.56-5.34-0.31-11.62-0.55-17.53c-0.34-8.59-5.69-15.81-7.79-23.95
				c-2.15-8.34,0.06-16.68-1.29-25.06c-1.37-8.43-2.08-18.83,5.42-24.78c8.65-6.88,22.65-4.42,30.25,2.8
				c5.05,4.8,7.85,11.56,9.25,18.39c0.35,1.77,0.64,3.56,0.86,5.36c0.62,5.12,0.79,10.29,1.15,15.44c0.21,2.81,0.47,5.61,0.79,8.41
				c-11.31-0.05-22.62-1.86-33.39-5.36C339.47,176.93,354.03,195.06,353.13,214.52z"/>
			<path class="st3" d="M403.68,140.16c-0.57,2.27-2.27,3.22-4.26,4.25c-5.98,3.11-12.32,5.93-19.01,6.24
				c-4.78,0.23-10.64-0.29-15.07-2.14c-7.24-3.02-13.61-7.82-20.23-12.04c-4.17-2.65-8.47-5.08-12.8-7.44
				c-1.82-0.98-3.63-1.95-5.46-2.92c-4.46-2.37-8.88-4.62-13.4-6.58c-0.77-0.33-1.54-0.66-2.32-0.97
				c-4.75-1.94-9.63-3.53-14.77-4.57c-0.42-0.08-0.86-0.16-1.29-0.24c-0.95-0.16-1.93-0.3-2.89-0.13c-1.05,0.18-2.01,0.74-2.97,1.23
				c-4.3,2.18-9.19,3.07-13.96,2.66c-4.12-0.37-8.44-2.01-12.6-0.65c-0.82,0.26-1.53,0.8-2.26,1.28c-2.99,1.95-6.52,3.06-10.08,3.15
				c-0.23,0.01-0.49-0.02-0.72-0.09c-0.47-0.13-0.87-0.4-0.81-0.86c0.03-0.34,0.33-0.58,0.59-0.79c2.37-1.87,4.49-4.07,6.3-6.5
				c1.5-2.02,2.81-4.25,4.82-5.72c1.36-0.99,2.99-1.61,4.14-2.86c0.9-0.97,1.45-2.3,2.51-3.07c1.09-0.8,2.52-0.9,3.72-1.51
				c1.15-0.58,2.05-1.62,3.19-2.26c2.22-1.26,5.21-0.87,7.67-0.98c3.19-0.13,6.39-0.24,9.6-0.26c5.06-0.02,10.12,0.16,15.15,0.8
				c2.08,0.27,4.15,0.17,6.15,0.75c2.57,0.77,5.1,1.71,7.64,2.55c6.49,2.13,12.95,3.87,19.56,5.45c3.19,0.77,6.38,1.51,9.56,2.25
				c9.93,2.37,19.81,4.87,29.4,8.39c3.45,1.27,6.96,2.64,9.97,4.8c0.29,0.19,0.56,0.4,0.83,0.62c2.48,1.95,4.92,3.99,7.36,6.03
				c1.3,1.1,2.62,2.19,3.93,3.28c0.98,0.8,1.98,1.63,2.58,2.74C404.47,135.93,404.19,138.17,403.68,140.16z"/>
			<path class="st1" d="M329.79,108.64c-0.93,2.45-3.34,3.96-5.68,5.14c-4.16,2.08-8.51,3.61-12.99,4.78
				c-4.75-1.94-9.63-3.53-14.77-4.57c-0.42-0.08-0.86-0.16-1.29-0.24c-0.95-0.16-1.93-0.3-2.89-0.13c-1.05,0.18-2.01,0.74-2.97,1.23
				c-4.3,2.18-9.19,3.07-13.96,2.66c-4.12-0.37-8.44-2.01-12.6-0.65c-0.82,0.26-1.53,0.8-2.26,1.28c-2.99,1.95-6.52,3.06-10.08,3.15
				c-0.23,0.01-0.49-0.02-0.72-0.09c2.37-1.97,4.96-3.68,7.72-5.05c4.98-2.48,10.81-4.19,13.89-8.82c0.93-1.37,1.62-3.03,3.08-3.8
				c0.89-0.47,1.92-0.54,2.92-0.58c15.58-0.83,31.19-1.13,46.8-0.88L329.79,108.64z"/>
			<path class="st1" d="M388.74,121.38c-3.74,1.19-7.91,1.03-11.53-0.48c-0.97-0.41-1.92-0.9-2.95-1.11
				c-1.86-0.35-3.76,0.29-5.51,1.01c-3.53,1.44-7.14,3.22-10.95,2.95c-2.33-0.17-4.54-1.11-6.84-1.43
				c-6.71-0.91-12.53,3.36-18.66,6.72c-1.82-0.98-3.63-1.95-5.46-2.92c-4.46-2.37-8.88-4.62-13.4-6.58
				c10.15-6.04,21.48-10.08,33.23-11.14c0.9-0.08,1.79-0.15,2.7-0.19c9.93,2.37,19.81,4.87,29.4,8.39
				C382.21,117.85,385.72,119.22,388.74,121.38z"/>
			<path class="st3" d="M243.7,127.99c2.43-2.04,4.87-4.07,7.36-6.03c3.19-2.51,7.04-4.03,10.8-5.41
				c12.66-4.65,25.86-7.52,38.96-10.64c6.62-1.58,13.08-3.32,19.56-5.45c2.55-0.84,5.07-1.78,7.64-2.54c2-0.59,4.07-0.49,6.15-0.75
				c5.02-0.65,10.1-0.83,15.16-0.8c3.2,0.02,6.4,0.13,9.6,0.27c2.45,0.1,5.45-0.28,7.66,0.98c1.13,0.64,2.03,1.68,3.19,2.27
				c1.2,0.61,2.63,0.7,3.72,1.5c1.07,0.78,1.62,2.1,2.52,3.08c1.14,1.24,2.78,1.86,4.13,2.85c2.01,1.47,3.33,3.71,4.82,5.72
				c1.8,2.44,3.93,4.63,6.3,6.5c0.27,0.21,0.56,0.45,0.59,0.79c0.08,0.69-0.85,0.97-1.53,0.95c-3.56-0.09-7.08-1.2-10.07-3.16
				c-0.73-0.48-1.44-1.01-2.27-1.28c-4.16-1.35-8.48,0.29-12.59,0.65c-4.78,0.42-9.67-0.48-13.97-2.66
				c-0.96-0.49-1.91-1.04-2.97-1.23c-0.96-0.17-1.94-0.04-2.89,0.13c-0.43,0.07-0.86,0.15-1.29,0.24
				c-10.9,2.2-20.64,6.89-30.49,12.12c-6.18,3.28-12.35,6.6-18.26,10.37c-6.63,4.22-12.99,9.03-20.23,12.05
				c-4.43,1.85-10.3,2.36-15.07,2.14c-6.7-0.31-13.04-3.13-19.02-6.24c-1.98-1.03-3.68-1.98-4.26-4.25
				c-0.51-1.99-0.79-4.23,0.24-6.11c0.61-1.12,1.61-1.95,2.59-2.75C241.08,130.19,242.38,129.09,243.7,127.99z"/>
		</g>
	</g>
</g>
<g>
	<path class="st7" d="M534.49,406.17c-4.77,2.4-10.92,3.59-15.63,4.89c-4.22,1.16-8.92,1.74-13.01,3.12
		c-4.54,1.53-8.55,4.89-13.15,6.57c-11.24-19.04-22.48-38.07-33.71-57.11c-0.71-1.2-1.45-2.43-2.59-3.23
		c-2.29-1.6-5.56-1.34-8.17-2.12c-2.64-0.79-4.89-2.1-7.19-3.67c-7.59-5.18-11.1-11.58-15.79-19.34c-3.16-5.23-3.04-11.57-7.1-16.53
		c-2.77-3.38-0.6-5.65,3.26-5.19c0.47,0.05,0.96,0.14,1.48,0.28c3.08,0.83,4.77,2.98,6.77,5.09c-0.66-4.9-2.45-9.35-4.86-13.57
		c-7.15-12.61-19.74-23.16-23.52-37.23c-0.23-0.84-0.43-1.8,0.11-2.57c0.36-0.5,0.95-0.82,1.56-1.02c4.01-1.28,7.51,2,9.82,4.93
		c3.77,4.82,18.07,20.11,20.49,23.66c0.12,0.17,0.26,0.37,0.46,0.41c0.95,0.19,5.36-4.03,7.62-4.11c3.21-0.1,6.52,2.99,9.66,1.65
		c0.87-0.37,1.55-1.06,2.43-1.43c3.43-1.41,6.93,2.88,10.4,1.54c0.89-0.35,1.59-1.02,2.46-1.44c2.35-1.13,5.09-0.08,7.19,1.14
		c15.13,8.82,21.99,26.19,19.24,43.13c-0.31,1.91-0.75,3.87-0.27,5.74c0.26,1,0.77,1.92,1.28,2.82
		c12.45,21.96,28.28,41.79,44.05,61.51C536.81,404.88,535.69,405.56,534.49,406.17z"/>
	<path class="st5" d="M436.86,333.64c-6.62-9.9-9.92-17.31-15.44-20.08c0.47,0.05,0.96,0.14,1.48,0.28
		c3.08,0.83,4.77,2.98,6.77,5.09c-0.66-4.9-2.45-9.35-4.86-13.57C431.04,312.04,434.36,328.37,436.86,333.64z"/>
</g>
<path class="st5" d="M533.5,435.71c0.26-1.2,0.43-2.48,0.06-3.66c-0.3-0.95-0.93-1.75-1.55-2.53c-4.64-5.8-9.54-11.38-14.69-16.72
	c-0.58-0.61-1.2-1.23-1.99-1.51c-0.77-0.27-1.61-0.2-2.42-0.11c-7.15,0.83-14.22,3.15-20.55,6.56c-2.26,1.22-4.38,2.71-6.29,4.43
	c5.22,13.3,10.76,27.65,18.98,39.33c5.66-1.89,11.06-4.69,15.72-8.35C526.5,448.64,531.88,443.11,533.5,435.71z"/>
<path class="st1" d="M478.55,433.14c-1.09,3.09-1.54,6.57-0.29,9.6c2.16,3.77,4.33,7.53,6.49,11.3c1.77,3.08,3.62,8.6,7.43,9.56
	c1.73,0.44,3.55,0.2,5.31-0.12c2.54-0.47,5.07-1.14,7.55-1.97c-8.21-11.68-13.76-26.03-18.98-39.33
	C482.72,425.19,480.05,428.91,478.55,433.14z"/>
<path class="st1" d="M501.62,437.07c-3.77,2.42-7.17,5.37-9.81,8.98c-2.43,3.32-3.74,6.91-4.73,10.85
	c-1.48,5.85,2.55,10.28,5.44,15.14c2.36,3.96,4.79,7.88,7.28,11.76c1.16,1.81,2.34,3.61,3.53,5.4c0.35,0.52,0.72,1.06,1.29,1.32
	c0.61,0.27,1.32,0.16,1.98,0.03c6.55-1.23,13.07-2.66,19.54-4.25C514.25,470.57,498.84,455.51,501.62,437.07z"/>
<path class="st5" d="M556,456.21c-5.09-7.45-10.47-14.7-16.13-21.73c-1.98-2.47-3.09-4.51-6.19-5.56c-2.7-0.92-5.6-1.02-8.42-0.73
	c-5.31,0.54-10.54,2.54-15.34,4.56c-2.87,1.21-5.67,2.65-8.3,4.33c-2.78,18.44,12.62,33.49,24.53,49.24
	c13.09-3.22,26.01-7.16,38.66-11.83C568.43,473.14,557.48,458.37,556,456.21z"/>
<g>
	<path class="st8" d="M221.09,349.52c-0.76,1.81-1.57,3.64-2.61,5.32c-0.69,1.15-10.71,8.53-11.83,9.22
		c-0.43,0.26-3.65-0.36-4.38,0.16c-1.55,1.07-3.13,2.12-4.75,3.11c-2.6,1.59-5.31,2.97-8.1,4.06c-4.48,1.72-8.6-0.11-12.52,3.28
		c-7.35,6.39-14.15,13.74-20.62,20.96c-11.45,12.8-23.22,25.31-35.32,37.49c-0.72,0.72-1.48,1.46-2.43,1.86
		c-1.91,0.76-4.07-0.12-5.93-1.03c-0.89-0.44-1.77-0.87-2.65-1.32c-10.72-5.39-20.81-11.72-28.54-21.1
		c14.03-12.48,27.95-25.09,41.76-37.84c4.15-3.82,8.81-7.63,13.37-11.64c7.57-6.65,14.85-13.86,18.86-22.59
		c2.63-5.72,4.09-9.25,8.24-14.19c4.01-4.78,8.13-9.45,12.35-14.02c7.1-7.67,14.5-15.07,22.19-22.15
		c6.83-6.31,14.04-12.12,20.79-18.53c2.22-2.11,7.42-5.63,9.09-1.9c0.15,0.34,0.27,0.72,0.36,1.18c0.89,4.56-2.89,10.63-5.96,13.63
		c-2.35,2.3-4.03,4.92-6.03,7.5c-3.05,3.97-6.09,8.21-9.62,11.79c-0.13,0.15-0.27,0.28-0.4,0.42c0.59-0.58,7.25,1.85,7.9,2.51
		c1.98,2.01,0.06,4.44,0.87,6.69c0.79,2.25,4.01,2.33,5.75,3.95c2.36,2.17,1.34,5.97,0.84,9.13c-0.14,0.93-0.22,1.93,0.2,2.78
		c0.33,0.71,0.96,1.21,1.46,1.83c2.08,2.56,1.39,6.31,0.6,9.51C223.22,343.01,222.44,346.3,221.09,349.52z"/>
	<path class="st5" d="M222.47,283.5c-2.36,2.31-4.04,4.92-6.03,7.5c-3.05,3.97-6.1,8.22-9.62,11.8c-2.06,0.25-4.88-0.96-7.19-0.61
		c8.4-10.38,13.92-16.35,23.19-25.97c2.14-2.22,4.4-4.64,5.25-7.53c0.15,0.33,0.27,0.72,0.36,1.18
		C229.32,274.43,225.53,280.5,222.47,283.5z"/>
	<path class="st5" d="M205.98,353.51c-3.72,2.59-7.54,5.16-11.39,6.44c-4.72,1.57-10.29-0.44-14.95,1.16
		c-1.9,0.65-3.27,2.28-4.55,3.83c-20.4,24.69-43.7,46.99-69.27,66.27c0.9-0.68,9.92,4.89,12.72,3.77c0.95-0.4,1.71-1.14,2.43-1.86
		c12.09-12.18,23.87-24.68,35.32-37.49c6.46-7.23,13.26-14.57,20.62-20.96c3.91-3.38,8.04-1.55,12.52-3.28
		c3.69-1.42,6.88-3.81,10.4-5.44c4.04-1.88,1.57-6.58,5.86-8.87c1.02-0.55,2.16-0.84,3.16-1.43c2.09-1.23,4.12-4.54,4.5-6.94
		C210.73,349.9,208.34,351.86,205.98,353.51z"/>
</g>
<path class="st5" d="M153.2,457.94c2.34,4.81,1.37,10.68-1.14,15.4c-2.52,4.71-6.4,8.52-10.15,12.31
	c-9.43,9.5-18.45,19.41-27.05,29.67c-3.65-1.13-7.13-2.86-10.27-5.06l-5.71-6.97l-54.51-14.8c10-9.15,42.03-43.08,51.07-53.17
	c2.59-2.9,5.2-5.88,8.52-7.91c3.31-2.03,7.52-3,11.13-1.58c5.08-4.62,10.16-9.24,15.24-13.86c0.75-0.69,1.57-1.41,2.57-1.62
	c0.96-0.21,1.95,0.08,2.88,0.38c9.39,3.08,18.39,8.57,24.71,16.02c3.64,4.3,6.39,9.24,7.82,14.74
	C163.27,446.97,158.23,452.45,153.2,457.94z"/>
<path class="st1" d="M153.2,457.94c2.34,4.81,1.37,10.68-1.14,15.4c-2.52,4.71-6.4,8.52-10.15,12.31
	c-9.43,9.5-18.45,19.41-27.05,29.67c-3.65-1.13-7.13-2.86-10.27-5.06l-5.71-6.97c1.37-1.57,2.78-3.12,4.18-4.68
	c10.7-11.93,20.69-24.51,29.88-37.64c1.11-1.59,2.23-3.22,2.66-5.1c1.37-5.94-4.36-11.14-5.48-17.13c4.12,1.91,8.31,3.62,12.59,5.14
	c6.07-5.55,12-11.26,17.78-17.12c3.64,4.3,6.39,9.24,7.82,14.74C163.27,446.97,158.23,452.45,153.2,457.94z"/>
<g>
	<path class="st5" d="M552.99,213.76c0,0-4.19,1.46-6.17,3.08s-1.69,4.35,0,9.01c1.69,4.66,3.21,12.83,3.95,12.83
		c0.74,0,12.44,0.25,12.51-2.22C563.36,234,552.99,213.76,552.99,213.76z"/>
	<path class="st7" d="M662.06,259.4c-1.23-0.97-49.6-26.39-49.6-26.39s-23.93-24.68-26.16-26.16s-2.71-1.73-4.93-2.22
		s-2.22-1.73-5.43-2.71c-3.21-0.99-10.12,0.74-14.31-1.23s-41.45-19.74-43.43-20.73s-4.69,5.43,0,9.62
		c4.69,4.19,28.13,20.23,29.61,21.71c1.48,1.48,4.93,8.64,6.91,12.83s1.73,9.22-1.73,9.92c-3.45,0.69-3.45,0.69-3.45,0.69
		s0.25-5.43-3.7-5.92c-3.7,2.22-7.9,4.93-9.38,7.16c-1.48,2.22-0.99,5.79,0.99,8.08c1.97,2.29,23.44,16.35,28.13,18.57
		s11.72,3.64,23.25,3.21c6.6-0.25,8.33,0.74,14.25,4.69s49.57,31.19,49.57,31.19L662.06,259.4z"/>
</g>
<g>
	<path class="st9" d="M620.24-41.36c-24.47,12.01-49.79,25.74-68.37,33.38c-14.39,6.35-28.9,10.36-43.93,14.48
		c-1.08,0.3-2.28,0.71-2.73,1.72c-0.47,1.04,0.12,2.32,1.05,2.97c0.1,0.07,0.21,0.14,0.31,0.2c0.87,0.51,1.91,0.68,2.93,0.8
		c14.6,1.83,29.22-2.22,43.38-6.22c-0.08,0.63-0.13,1.27-0.16,1.94c-0.17,4.5,0.67,9.75,1.08,14.04c0.33,3.46,1.24,7.19,1.01,10.68
		c-0.13,1.87-0.25,4.16,1.35,5.14c0.89,0.55,2.02,0.48,3.02,0.16c3.65-1.12,5.92-4.71,7.25-8.07c-0.85,2.14,22.58,4.95,25.81,3.44
		c2.75-1.28,4.98-3.49,7.14-5.64c2.05-2.04,4.08-4.06,6.13-6.1c0.83-0.83,1.69-1.71,2.04-2.83c0.34-1.13-0.03-2.56-1.11-3.02
		c-1.14-0.47-2.52,0.28-3.66-0.21c1.72-2.5,3.24-5.14,4.51-7.9c0.73-1.58,1.39-3.2,1.96-4.86c0.36-1.02,0.71-2.12,1.55-2.81
		c0.56-0.46,1.28-0.68,1.98-0.89c19.18-5.82,38.71-10.65,57.97-16.32c4-1.17,7.98-2.39,11.95-3.62
		c-4.02-15.47-7.72-31.06-11.51-46.58C654.8-58.76,638.28-50.21,620.24-41.36z"/>
	<path class="st5" d="M562.01-1.86c-2.23,3.93-9.23,8.46-9.15,7.83c-14.16,4-28.78,8.05-43.38,6.22c-1.02-0.12-2.06-0.29-2.93-0.8
		c7.15,0.29,14.29-1.44,21.25-3.25C539.3,5.13,550.7,1.79,562.01-1.86z"/>
	<path class="st5" d="M586.07,19.35c-0.27-1.79-0.97-3.53-2.64-3.93c-1.34-0.32-2.68,0.46-3.83,1.23c-2.88,1.91-5.67,3.95-8.38,6.1
		c-0.4,0.32-5.31,3.49-5.33,3.76c0.14-2.16-0.43-9.06,0.73-10.78c0.38-0.56,1.1-0.76,1.75-0.94c7.07-1.95,13.54-6.04,18.32-11.6
		c1.01-1.17,2-2.45,3.39-3.13c0.91-0.44,1.93-0.59,2.93-0.73c6.29-0.89,11.46,1.49,17.75,0.6c-1.84,4.18-2.62,5.08-4.26,9.32
		c-0.71,1.84-1.12,3.44-2.47,5.01c-0.87,1.01-3.96,2.31-4.39,3.22c0.56-1.17,0.35-2.66-0.51-3.64s-2.31-1.37-3.54-0.96
		c-0.9,0.3-1.62,0.95-2.31,1.59c-2.36,2.17-4.71,4.34-7.07,6.5C586.2,20.46,586.16,19.9,586.07,19.35z"/>
	<path class="st5" d="M641.76-22.87c-10.6,3.58-21.22,7.14-31.83,10.71c-8.58,2.88-18.43,7.67-23.23,15.35l15.55,3.06
		c1.66,0.52,3.33,0.98,5.01,1.35c0.73-1.58,1.39-3.2,1.96-4.86c0.36-1.02,0.71-2.12,1.55-2.81c0.56-0.46,1.28-0.68,1.98-0.89
		c19.18-5.82,38.71-10.65,57.97-16.32c4-1.17,7.98-2.39,11.95-3.62c-1.29-4.95-2.54-9.92-3.78-14.89
		C666.61-31.23,654.19-27.04,641.76-22.87z"/>
</g>
<path class="st5" d="M674.92-72.66c0,0-50.86,21.11-59.83,29.73c-6.21,5.97-11.7,20.07-5.45,30.79
	c28.64-6.92,56.27-16.33,82.33-29.34L674.92-72.66z"/>
<path class="st1" d="M609.65-12.14c2.77,4.76,7.84,8.85,16.2,11.28c32.89-6.02,77.79-19.3,77.79-19.3l-11.66-21.31
	C665.92-28.48,638.29-19.06,609.65-12.14z"/>
<path class="st8" d="M92.1,208.42c0.18,1.79-1.56,4.99-5.19,6.94c-5.71,3.06-10.39,6.32-10.8,6.93c-0.41,0.61-6.93,6.11-6.93,6.11
	s8.97,7.13,13.86,11.01c1.87,1.48,2.34,3.22,2.2,4.82c-0.2,2.43-1.79,4.51-1.98,4.75c-0.01,0.01-0.02,0.01-0.02,0.01
	s2.04,4.89,3.26,6.52c1.22,1.63-2.04,6.11-2.04,6.11s0.61,4.08-1.02,6.11c-0.44,0.55-1.26,1.22-2.32,1.89
	c-2.85,1.82-7.48,3.63-11.34,3.11c-5.3-0.72-7.95-4.39-7.95-4.39s-8.76,6.93-17.73,11.21c-8.97,4.28-13.86,5.49-13.86,5.49
	l-40.15,45.67l-15.85-11.94l-19.21-14.48c0,0,43.27-34.47,52.45-42.83c9.17-8.36,27.86-31.02,32.14-33.88
	c4.28-2.85,10.19-6.52,13.45-7.95c3.26-1.43,22.83-9.17,25.07-10.39c2.24-1.22,8.15-1.02,11.82-2.04
	C91.29,206.84,92.01,207.4,92.1,208.42z"/>
<path class="st5" d="M81.13,269.63c-2.85,1.82-7.48,3.63-11.34,3.11c-5.3-0.72-7.95-4.39-7.95-4.39s-8.76,6.93-17.73,11.21
	c-8.97,4.28-13.86,5.49-13.86,5.49l-40.15,45.67l-15.85-11.94c11.41-11.23,33.97-33.83,37.45-40.03
	c4.69-8.36,13.86-13.04,22.42-16.1c8.56-3.06,28.13-12.03,34.24-13.45c6.11-1.43,9.78,8.76,12.23,11.62
	C82.14,262.62,82.46,266.24,81.13,269.63z"/>
<path class="st5" d="M92.1,208.42c0.18,1.79-1.56,4.99-5.19,6.94c-5.71,3.06-10.39,6.32-10.8,6.93c-0.41,0.61-6.93,6.11-6.93,6.11
	s-2.45-3.06-4.48-4.89c-2.04-1.83-8.76-1.22-8.76-1.22l6.73-3.26c0,0,11.62-5.5,15.69-6.52C82.42,211.48,89.56,210.06,92.1,208.42z"
	/>
<path class="st5" d="M85.24,244.23c-0.2,2.43-1.79,4.51-1.98,4.75c-0.01,0.01-0.02,0.01-0.02,0.01s-8.24-11.01-9.22-13.04
	C79.45,240.39,83.04,242.81,85.24,244.23z"/>
<path class="st9" d="M237.79-95.84c-1.62,0.82-4.58,0.28-6.63-2.23c-3.11-3.79-5.35-8.62-7.24-9.82
	c-1.89-1.2-17.92-16.02-17.92-16.02s-2.93,6.55-4.13,10.17c-1.2,3.61-5.51,3.79-6.89,3.27c-1.38-0.51-5.25-4.48-5.25-4.48
	s-3.89,4.13-6.98,3.45c-3.11-0.69-5.17-2.76-5.17-2.76s-2.92,1.2-6.38-0.17c-3.44-1.38-4.3-6.89-4.65-7.4
	c-0.09-0.15-0.49-0.83-1.06-1.81c-1.38-2.4-3.78-6.62-5.48-9.55c-2.29-3.91-5.03-15.09-5.9-20.21c-0.03-0.16-0.06-0.39-0.11-0.66
	c0-0.05-0.01-0.1-0.02-0.15c-0.04-0.24-0.08-0.49-0.14-0.74c-0.01-0.04-0.02-0.07-0.02-0.1c-1.07-4.75-5.28-12.22-6.73-14.65
	c-1.55-2.59-25.67-28.77-25.67-28.77l1.16-8.27l2.29-16.36l22.56,2.07c0,0,20.33,29.63,24.12,32.73
	c3.79,3.1,27.05,27.74,30.49,32.21c3.45,4.47,15.5,22.56,18.94,28.08c3.45,5.51,8.44,11.2,10.34,15.16
	c1.89,3.96,7.07,11.71,7.58,14.82C239.08-97.04,238.61-96.27,237.79-95.84z"/>
<path class="st5" d="M237.79-95.84c-1.62,0.82-4.58,0.28-6.63-2.23c-3.11-3.79-5.35-8.62-7.24-9.82
	c-1.89-1.2-17.92-16.02-17.92-16.02s-2.93,6.55-4.13,10.17c-1.2,3.61-5.51,3.79-6.89,3.27c-1.38-0.51-5.25-4.48-5.25-4.48
	s-3.89,4.13-6.98,3.45c-3.11-0.69-5.17-2.76-5.17-2.76s-2.92,1.2-6.38-0.17c-3.44-1.38-4.3-6.89-4.65-7.4
	c-0.09-0.15-0.49-0.83-1.06-1.81c0.02,0.02,0.03,0.04,0.04,0.06c1.9,3.34,4.81,4.17,7.74,4.51c2.92,0.35,6.37-2.24,8.95-3.96
	c2.59-1.72,3.28,0,7.51-0.69c4.24-0.69,1.29-4.82,4.73-5.69c3.45-0.85,6.38,0.52,8.78,0.52c2.41,0,2.58-3.62,2.58-3.62
	s11.02,12.74,13.44,14.13c2.41,1.38,8.61,10.16,9.99,13.08C230.63-102.38,235.29-96.7,237.79-95.84z"/>
<path class="st10" d="M153.83-155.08c-1.07-4.75-5.28-12.22-6.73-14.65c-1.55-2.59-25.67-28.77-25.67-28.77l1.16-8.27
	c8.43,11.02,23.91,31.46,26.4,36.18C151.79-165.29,153.22-158.4,153.83-155.08z"/>
<g>
	<path class="st11" d="M146.39,64.86c-0.16,0.41-0.42,0.82-0.8,1.21c-0.8,0.84-2.01,1.54-3.3,2.01c-1.09,0.42-2.22,0.67-3.21,0.7
		c-14.38,0.57-18.57-2.96-32.93-2.3c-0.07,0.45-0.11,0.89-0.12,1.36c-0.28,5.8,2.61,11.82,1.2,17.37l-0.01,0.01
		c-0.08,0.34-0.18,0.7-0.32,1.04c-1.78,4.88-7.08,7.86-12.28,8.08c-2.15,0.09-4.4-0.18-6.36,0.68c-1.26,0.55-2.3,1.55-3.59,2.05
		c-3.96,1.55-8.24-2.04-12.45-1.54c-2.67,0.33-5,2.29-7.69,2.36c-5.87,0.13-8.19-7.32-11.75-10.7c-1.76-1.67-5.51-2.74-6.58-4.99
		c-1.55-3.26,0.39-5.11,3.04-5.63c0.67-0.13,1.37-0.18,2.07-0.17c-4.58-6.37-11.19-8.86-13.28-17.32
		C7.02,53.34-19.92,48.72-44.78,43.97c1.51-5.72,3.24-11.36,5.13-16.94c2.16-6.41,4.54-12.75,7.07-19.04
		c17.48,5.91,35.15,11.69,54.27,17.5c27.79,8.48,56.75,18.58,77.6,23.46c20.91,4.88,25.85,8.41,44.01,12.09
		C145.72,61.54,147.06,63.15,146.39,64.86z"/>
	<path class="st5" d="M107.22,85.22c-0.08,0.34-0.18,0.7-0.32,1.04c-1.78,4.88-7.08,7.86-12.28,8.08c-2.15,0.09-4.4-0.18-6.36,0.68
		c-1.26,0.55-2.3,1.55-3.59,2.05c-3.96,1.55-8.24-2.04-12.45-1.54c-2.67,0.33-5,2.29-7.69,2.36c-5.87,0.13-8.19-7.32-11.75-10.7
		c-1.76-1.67-5.51-2.74-6.58-4.99c-1.55-3.26,0.39-5.11,3.04-5.63c0.67-0.13,1.37-0.18,2.07-0.17c-4.58-6.37-11.19-8.86-13.28-17.32
		C7.02,53.34-19.92,48.72-44.78,43.97c1.51-5.72,3.24-11.36,5.13-16.94c19.08,5.04,60.96,16.15,67.77,18.23
		c8.88,2.72,18.75,4.97,25.17,7.68c6.13,2.6,14.31,8.12,14.56,14.78c0.19,5.23,0.49,13.22,1.73,17.77c1.82,6.71,8.64,1.11,14.56,2.4
		c5.92,1.3,7.41,0.55,11.59-1.91C99.93,83.52,101.69,89.85,107.22,85.22z"/>
	<path class="st12" d="M146.39,64.86c-0.16,0.41-0.42,0.82-0.8,1.21c-0.8,0.84-2.01,1.54-3.3,2.01c-1.09,0.42-2.22,0.67-3.21,0.7
		c-14.38,0.57-18.57-2.96-32.93-2.3l-0.3-6.65c0,0,24.68,6.53,30.35,5.72C138.72,65.2,142.72,64.98,146.39,64.86z"/>
</g>
<g>
	<path class="st1" d="M-53.72,52.09c0,1.97,73.7,11.19,73.7,11.19s2.01-4.94,4.52-12.72c-25.67-1.23-51.04-4.89-75.56-12.9
		C-52.61,45.57-53.72,51.49-53.72,52.09z"/>
	<path class="st5" d="M-41.87-8.44c0,0-5.7,28.18-9.19,46.1c24.53,8.01,49.9,11.67,75.56,12.9c2.68-8.29,5.94-19.8,7.98-32.02
		L-41.87-8.44z"/>
</g>
<g>
	<g>
		<path class="st9" d="M557.53-128.07c-22.94,16.95-45.25,34.75-66.88,53.35c-11.56,9.94-22.91,20.11-34.08,30.49
			c-9.72,9.04-10.53,18.99-17.97,29.71c-2.82,4.06-7.44,9.93-12.28,10.93c-0.91,0.19-1.84,0.17-2.77,0.16
			c-1.65-0.03-3.29-0.06-4.94-0.09c-0.87-0.01-1.74-0.03-2.61-0.04c-1.06-0.01-2.15-0.03-3.17,0.32c-1.78,0.61-3.46,2.13-5,3.88
			c-0.17,0.19-0.33,0.37-0.49,0.56c-1.39,1.61-2.65,3.36-3.76,4.64c-3.08,3.54-6.15,7.1-9.54,10.32c-4.07,3.85-8.77,7.64-14.15,7.64
			c-1.65,0.01-3.76-0.98-3.57-2.78c0.09-0.85,0.7-1.5,1.25-2.09c6.79-7.04,12.47-14.25,17.98-22.56c0.29-0.43,0.58-0.88,0.67-1.4
			c-0.1-0.01-0.24-0.03-0.38-0.07c-1.36-0.3-4.34-1.56-5.05-2.28c-1.17-1.2,0.01-3.44-0.63-5.06c-1.06-2.67-5.73-1.21-6.68-3.93
			c-0.5-1.46,0.54-3.2-0.05-4.61c-0.52-1.22-1.98-1.53-2.9-2.45c-1.63-1.64-1.06-4.57-0.26-6.83c0.5-1.43,1.04-2.97,1.64-4.55
			c2.48-6.55,5.92-13.86,11.02-17.37c5.96-4.1,15.47-5.51,22.19-8.82c18.64-9.18,33.46-20.5,46.52-36.66
			c10.02-12.4,21.64-23.52,34.49-32.97c2.07-1.52,4.24-3.03,6.73-3.67c2.1-0.53,4.3-0.41,6.47-0.29c17.65,1.01,35.3,2.03,52.95,3.04
			C560.69-130.4,559.11-129.24,557.53-128.07z"/>
	</g>
	<path class="st5" d="M428.24-19.13c-1.4,5.5-4.88,10.04-8.42,14.23c-0.39,0.46-0.79,0.92-1.21,1.38c-0.87-0.01-1.74-0.03-2.61-0.04
		c-1.06-0.01-2.15-0.03-3.17,0.32c-1.78,0.61-3.46,2.13-5,3.88c3.63-4.28,7.88-8.79,12.01-12.4
		C422.64-14.23,425.45-16.68,428.24-19.13z"/>
	<path class="st5" d="M400.14-13.25c-1.43,2.71-2.85,5.43-4.29,8.14c-1.36-0.3-4.34-1.56-5.05-2.28c-1.17-1.2,0.01-3.44-0.63-5.06
		c-1.06-2.67-5.73-1.21-6.68-3.93c-0.5-1.46,0.54-3.2-0.05-4.61c-0.52-1.22-1.98-1.53-2.9-2.45c-1.63-1.64-1.06-4.57-0.26-6.83
		c0.5-1.43,1.04-2.97,1.64-4.55c-0.38,1.74-0.67,3.53-0.5,5.3c0.22,2.35,1.4,4.74,3.41,5.59c0.62,0.27,1.3,0.39,1.82,0.84
		c1.39,1.21,0.96,4.15,2.6,4.9c0.83,0.39,1.81-0.04,2.66,0.27c1.01,0.37,1.47,1.6,2.1,2.54C395.36-13.34,397.97-12.43,400.14-13.25z
		"/>
</g>
<path class="st5" d="M583.12-245.75l-61.74-10.76c0,0-60.54,65.8-60.54,68.43c1.23,13.82,10.05,21.62,19.12,26.01
	C513.8-190.21,553.63-212.46,583.12-245.75z"/>
<path class="st1" d="M608.23-241.38l-25.11-4.38c-29.49,33.29-69.31,55.55-103.16,83.68c10.35,5.01,21.02,5.58,21.02,5.58
	L608.23-241.38z"/>
<polygon class="st0" points="323.32,358.06 302.92,419.26 319.37,411.36 308.84,476.5 333.84,477.16 333.84,394.91 316.74,400.17 
	"/>
<polygon class="st2" points="-29.23,393.92 54.57,332.02 33.62,322.5 142.18,251.08 68.85,312.98 94.57,326.31 1.24,408.2 "/>
<polygon class="st2" points="470.77,248.24 554.99,279.16 541.83,289.69 616.84,333.78 611.58,352.2 516.17,296.27 533.94,281.79 
	"/>
<polygon class="st0" points="417.88,54.24 528.24,-69.3 534.23,-51.31 673.61,-179.7 683.2,-131.05 522.84,-5.67 516.23,-30.33 "/>
<polygon class="st2" points="14.09,-152.01 121.47,-57.41 131.7,-82.12 230.56,26.11 138.52,-48.89 125.73,-17.35 -0.4,-108.54 "/>
<polygon class="st2" points="469.39,94.14 569.1,84.99 560.86,102.37 673.37,101.46 662.4,129.81 535.25,118.84 543.48,100.54 "/>
<polygon class="st0" points="165.7,120.03 54.5,142.46 69.08,158.66 -53.36,194.19 -32.24,221.41 102.22,168.22 87.35,151.03 "/>
<polygon class="st0" points="228.53,-161.63 249.26,-74 228.53,-78.71 266.22,37.18 252.08,-58.93 277.52,-55.16 259.62,-163.51 "/>
<rect id="SVGID_3_" x="-7" y="-194" class="st13" width="658" height="658"/>
</svg>
